<?xml version="1.0" encoding="utf-8"?>
<svg xmlns="http://www.w3.org/2000/svg">
<symbol id='cintillo'  viewBox="0 0 1140 240"><path fill="#DCB706" d="M66.177 144.265V99.706s77.516-51.177 86.911-30.441c9.396 20.735 66.619-41.03 66.619-41.03v47.647c-21.177 23.824-59.119 45-60.001 35.294 0-24.185-93.225 27.522-93.529 33.036z"/><path fill="#3FA8DB" d="M162.794 145.588c-3.529 16.324 41.1 4.421 57.794-19.412V75.441s-51.487 51.177-60.882 30.441C150.31 85.147 66.177 142.5 66.177 142.5l.882 54.265c.304-5.53 95.735-75.367 95.735-51.177"/><path fill="#FDFDFD" d="M210.254 99.433c-.264-.812-1.414-.812-1.678 0l-1.34 4.124a.88.88 0 0 1-.84.61h-4.335c-.855 0-1.211 1.093-.519 1.596l3.508 2.548a.88.88 0 0 1 .32.987l-1.339 4.124c-.265.813.666 1.489 1.357.987l3.508-2.549a.88.88 0 0 1 1.038 0l3.507 2.549c.692.502 1.623-.174 1.358-.987l-1.339-4.124a.88.88 0 0 1 .32-.987l3.508-2.548c.691-.503.336-1.596-.519-1.596h-4.335a.88.88 0 0 1-.84-.61zM194.458 114.433c.264-.812 1.415-.812 1.678 0l1.341 4.124a.88.88 0 0 0 .839.61h4.336c.855 0 1.209 1.093.519 1.596l-3.509 2.548a.88.88 0 0 0-.32.987l1.339 4.124c.265.813-.666 1.489-1.357.987l-3.508-2.549a.88.88 0 0 0-1.037 0l-3.509 2.549c-.691.502-1.621-.174-1.357-.987l1.34-4.124a.88.88 0 0 0-.321-.987l-3.508-2.548c-.692-.503-.336-1.596.519-1.596h4.336a.88.88 0 0 0 .839-.61zM156.517 116.198c.264-.813 1.414-.813 1.678 0l1.341 4.124a.88.88 0 0 0 .839.61h4.336c.855 0 1.209 1.093.518 1.596l-3.508 2.548a.88.88 0 0 0-.32.987l1.339 4.124c.265.812-.666 1.488-1.358.986l-3.507-2.548a.88.88 0 0 0-1.038 0l-3.508 2.548c-.691.502-1.622-.174-1.357-.986l1.339-4.124a.88.88 0 0 0-.32-.987l-3.508-2.548c-.692-.503-.336-1.596.519-1.596h4.336a.88.88 0 0 0 .839-.61zM136.136 122.374c-.263-.812-1.414-.812-1.678 0l-1.34 4.125a.88.88 0 0 1-.839.609h-4.336c-.855 0-1.211 1.093-.519 1.596l3.508 2.549a.88.88 0 0 1 .321.986l-1.34 4.124c-.264.813.666 1.489 1.357.987l3.509-2.549a.88.88 0 0 1 1.037 0l3.508 2.549c.691.502 1.622-.174 1.357-.987l-1.339-4.124a.88.88 0 0 1 .32-.986l3.509-2.549c.69-.503.336-1.596-.519-1.596h-4.336a.88.88 0 0 1-.839-.609zM114.164 130.316c.264-.813 1.415-.813 1.678 0l1.341 4.124a.88.88 0 0 0 .839.609h4.336c.855 0 1.209 1.094.518 1.597l-3.508 2.548a.88.88 0 0 0-.32.986l1.339 4.124c.265.813-.666 1.489-1.358.987l-3.507-2.548a.88.88 0 0 0-1.038 0l-3.508 2.548c-.691.502-1.622-.174-1.357-.987l1.34-4.124a.88.88 0 0 0-.321-.986l-3.508-2.548c-.692-.503-.336-1.597.519-1.597h4.336a.88.88 0 0 0 .839-.609zM98.195 145.316c-.263-.813-1.414-.813-1.678 0l-1.34 4.124a.88.88 0 0 1-.84.609h-4.335c-.855 0-1.21 1.094-.519 1.597l3.508 2.548a.88.88 0 0 1 .32.986l-1.339 4.124c-.265.813.666 1.489 1.357.987l3.508-2.548a.88.88 0 0 1 1.038 0l3.507 2.548c.692.502 1.623-.174 1.358-.987l-1.339-4.124a.88.88 0 0 1 .32-.986l3.508-2.548c.691-.503.337-1.597-.518-1.597h-4.336a.88.88 0 0 1-.84-.609zM79.666 154.139c-.264-.813-1.414-.813-1.679 0l-1.34 4.124a.88.88 0 0 1-.839.61h-4.336c-.854 0-1.21 1.093-.518 1.596l3.508 2.548c.309.225.438.623.32.987l-1.34 4.124c-.264.813.667 1.489 1.358.986l3.508-2.548a.88.88 0 0 1 1.037 0l3.508 2.548c.692.503 1.622-.173 1.358-.986l-1.34-4.124a.88.88 0 0 1 .32-.987l3.509-2.548c.691-.503.336-1.596-.519-1.596h-4.336a.88.88 0 0 1-.84-.61zM176.725 122.374c-.264-.812-1.415-.812-1.679 0l-1.34 4.125a.88.88 0 0 1-.839.609h-4.336c-.855 0-1.21 1.093-.519 1.596l3.509 2.549a.88.88 0 0 1 .32.986l-1.34 4.124c-.264.813.667 1.489 1.358.987l3.508-2.549a.88.88 0 0 1 1.037 0l3.508 2.549c.692.502 1.622-.174 1.358-.987l-1.34-4.124a.88.88 0 0 1 .321-.986l3.508-2.549c.691-.503.336-1.596-.519-1.596h-4.336a.88.88 0 0 1-.839-.609z"/><path fill="#DF281E" d="M67.059 211.324v-16.765c36.017-30.647 99.593-68.377 96.617-50.735s51.925-2.536 57.353-18.53v52.059c-31.942 19.721-54.204 12.797-53.382 2.647s-41.086 8.143-57.353 31.324z"/><path fill="#878889" d="M296.556 94.96a8.7 8.7 0 0 0-1.052-2.188 6.7 6.7 0 0 0-1.534-1.668 6.4 6.4 0 0 0-2.006-1.052q-1.123-.363-2.465-.363-2.198 0-4 1.137-1.8 1.136-2.863 3.348-1.064 2.212-1.064 5.428t1.076 5.427q1.076 2.212 2.912 3.349 1.836 1.136 4.132 1.136 2.127 0 3.747-.907a6.4 6.4 0 0 0 2.537-2.587q.918-1.68.918-3.952l.919.193h-7.444v-2.66h9.425v2.66q0 3.058-1.305 5.319a9 9 0 0 1-3.577 3.506q-2.271 1.232-5.22 1.232-3.286 0-5.776-1.547-2.476-1.548-3.866-4.4-1.378-2.852-1.377-6.77 0-2.936.785-5.282.796-2.356 2.247-4.014a9.8 9.8 0 0 1 3.432-2.538q1.983-.882 4.362-.882 1.958 0 3.65.592a9.8 9.8 0 0 1 3.032 1.656 9.4 9.4 0 0 1 2.236 2.55 9.7 9.7 0 0 1 1.233 3.277zM312.08 112.367q-2.512 0-4.41-1.197-1.886-1.197-2.949-3.348-1.05-2.152-1.05-5.029 0-2.902 1.05-5.065 1.063-2.165 2.949-3.36 1.897-1.198 4.41-1.198t4.399 1.198q1.896 1.195 2.949 3.36 1.063 2.163 1.063 5.065 0 2.877-1.063 5.029-1.053 2.151-2.949 3.348-1.885 1.197-4.399 1.197m0-2.563q1.91 0 3.142-.979 1.233-.98 1.825-2.575t.592-3.457-.592-3.47-1.825-2.599q-1.231-.99-3.142-.99-1.908 0-3.141.99-1.233.992-1.825 2.6-.592 1.607-.592 3.469t.592 3.457q.592 1.596 1.825 2.575t3.141.979M325.23 111.98V87.223h2.852v9.139h.242q.314-.483.87-1.233.567-.762 1.619-1.354 1.063-.605 2.876-.605 2.344 0 4.132 1.173 1.789 1.173 2.792 3.325 1.003 2.15 1.002 5.077 0 2.949-1.002 5.113-1.003 2.152-2.779 3.336-1.777 1.173-4.096 1.173-1.79 0-2.864-.592-1.076-.606-1.656-1.366a18 18 0 0 1-.894-1.282h-.338v2.853zm2.804-9.284q0 2.103.616 3.711.616 1.596 1.801 2.503 1.184.894 2.899.894 1.79 0 2.985-.943 1.209-.955 1.813-2.562.616-1.62.616-3.603 0-1.958-.604-3.53-.592-1.583-1.801-2.502-1.196-.93-3.009-.93-1.739 0-2.924.882-1.184.87-1.788 2.441-.604 1.56-.604 3.639M345.978 111.98V93.412h2.851v18.568zm1.45-21.662q-.835 0-1.438-.569a1.83 1.83 0 0 1-.592-1.365q0-.798.592-1.366a2.03 2.03 0 0 1 1.438-.569q.834 0 1.426.569.603.568.604 1.365 0 .8-.604 1.366-.592.569-1.426.569M361.834 112.367q-2.681 0-4.628-1.185-1.933-1.197-2.984-3.336-1.04-2.152-1.039-5.005 0-2.853 1.039-5.029 1.051-2.188 2.924-3.408 1.885-1.233 4.399-1.234a8.8 8.8 0 0 1 2.863.484 7.1 7.1 0 0 1 2.574 1.571q1.16 1.077 1.849 2.854.689 1.776.689 4.375v1.209h-14.308v-2.466h11.407q0-1.571-.628-2.804a4.73 4.73 0 0 0-1.764-1.947q-1.136-.712-2.682-.712-1.704 0-2.949.846a5.57 5.57 0 0 0-1.897 2.176 6.4 6.4 0 0 0-.664 2.876v1.645q0 2.103.724 3.565.738 1.451 2.043 2.212 1.305.75 3.032.75 1.124 0 2.031-.315a4.3 4.3 0 0 0 1.583-.967 4.4 4.4 0 0 0 1.027-1.619l2.754.773a6.1 6.1 0 0 1-1.462 2.466q-1.026 1.053-2.537 1.644-1.51.582-3.396.581M373.857 111.98V93.412h2.756v2.805h.193q.507-1.377 1.837-2.237 1.329-.857 2.997-.857.314 0 .785.011.47.012.713.036v2.901a9 9 0 0 0-.664-.108 6.6 6.6 0 0 0-1.076-.085q-1.354 0-2.417.569a4.3 4.3 0 0 0-1.667 1.547q-.605.978-.605 2.236v11.75zM389.37 100.811v11.169h-2.852V93.412h2.755v2.901h.242a5.3 5.3 0 0 1 1.981-2.272q1.33-.87 3.433-.87 1.885 0 3.298.773 1.413.761 2.2 2.322.785 1.546.785 3.915v11.799h-2.852v-11.604q0-2.189-1.135-3.41-1.136-1.232-3.119-1.232-1.364-.001-2.44.592-1.063.592-1.68 1.728-.615 1.137-.616 2.757M413.963 112.367q-2.514 0-4.41-1.197-1.885-1.197-2.949-3.348-1.05-2.152-1.051-5.029 0-2.902 1.051-5.065 1.064-2.165 2.949-3.36 1.896-1.198 4.41-1.198t4.398 1.198q1.898 1.195 2.949 3.36 1.064 2.163 1.064 5.065 0 2.877-1.064 5.029-1.051 2.151-2.949 3.348-1.884 1.197-4.398 1.197m0-2.563q1.91 0 3.142-.979 1.231-.98 1.825-2.575.591-1.596.592-3.457 0-1.862-.592-3.47-.594-1.607-1.825-2.599-1.232-.99-3.142-.99t-3.141.99q-1.234.992-1.825 2.6-.592 1.607-.592 3.469t.592 3.457q.59 1.596 1.825 2.575 1.232.98 3.141.979M286.261 153.701q-2.32 0-4.097-1.172-1.776-1.185-2.778-3.336-1.004-2.164-1.004-5.114 0-2.925 1.004-5.077 1.002-2.152 2.79-3.324 1.79-1.172 4.133-1.172 1.812 0 2.864.604 1.064.592 1.619 1.354.569.749.882 1.232h.242v-9.138h2.852v24.757h-2.755v-2.853h-.339q-.313.507-.894 1.282-.58.76-1.655 1.365-1.076.592-2.864.592m.386-2.562q1.717 0 2.901-.895 1.183-.906 1.8-2.502.616-1.608.616-3.711 0-2.079-.604-3.639-.604-1.57-1.789-2.441-1.182-.883-2.924-.883-1.812 0-3.02.931-1.197.918-1.801 2.502-.591 1.572-.592 3.53 0 1.983.605 3.603.615 1.608 1.812 2.562 1.208.943 2.996.943M308.168 153.701q-2.682 0-4.628-1.184-1.933-1.197-2.984-3.337-1.04-2.151-1.04-5.004t1.04-5.029q1.05-2.188 2.924-3.408 1.885-1.234 4.399-1.233 1.449 0 2.863.483a7.1 7.1 0 0 1 2.574 1.572q1.16 1.075 1.849 2.853.688 1.776.688 4.375v1.209h-14.306v-2.466h11.407q0-1.572-.629-2.804a4.74 4.74 0 0 0-1.764-1.947q-1.136-.713-2.682-.713-1.704 0-2.949.846a5.57 5.57 0 0 0-1.897 2.176 6.4 6.4 0 0 0-.665 2.878v1.643q0 2.104.726 3.566.736 1.451 2.041 2.212 1.305.75 3.033.75 1.125 0 2.03-.314a4.35 4.35 0 0 0 1.583-.967 4.4 4.4 0 0 0 1.027-1.62l2.756.774a6.1 6.1 0 0 1-1.462 2.465q-1.027 1.052-2.538 1.645-1.511.579-3.396.579M331.164 128.558l7.346 20.84h.291l7.346-20.84h3.142l-9.087 24.757h-3.094l-9.086-24.757zM358.811 153.701q-2.683 0-4.628-1.184-1.933-1.197-2.985-3.337-1.04-2.151-1.039-5.004 0-2.853 1.039-5.029 1.05-2.188 2.925-3.408 1.884-1.234 4.397-1.233 1.45 0 2.864.483a7.1 7.1 0 0 1 2.574 1.572q1.16 1.075 1.849 2.853.689 1.776.689 4.375v1.209h-14.307v-2.466h11.407q0-1.572-.629-2.804a4.74 4.74 0 0 0-1.763-1.947q-1.136-.713-2.684-.713-1.703 0-2.948.846a5.6 5.6 0 0 0-1.897 2.176 6.4 6.4 0 0 0-.664 2.878v1.643q0 2.104.724 3.566.738 1.451 2.043 2.212 1.305.75 3.033.75 1.123 0 2.03-.314a4.35 4.35 0 0 0 1.583-.967 4.4 4.4 0 0 0 1.027-1.62l2.755.774a6.1 6.1 0 0 1-1.462 2.465q-1.027 1.052-2.538 1.645-1.51.579-3.395.579M373.685 142.145v11.17h-2.851v-18.567h2.755v2.901h.242a5.3 5.3 0 0 1 1.982-2.273q1.328-.87 3.431-.87 1.885 0 3.299.773 1.414.762 2.199 2.321.785 1.547.785 3.917v11.798h-2.851V141.71q0-2.187-1.136-3.409-1.135-1.233-3.117-1.233-1.366 0-2.442.592-1.063.594-1.679 1.729t-.617 2.756M398.52 153.701q-2.682 0-4.628-1.184-1.932-1.197-2.984-3.337-1.04-2.151-1.039-5.004 0-2.853 1.039-5.029 1.052-2.188 2.924-3.408 1.885-1.234 4.399-1.233 1.449 0 2.863.483a7.1 7.1 0 0 1 2.574 1.572q1.16 1.075 1.849 2.853.688 1.776.688 4.375v1.209h-14.306v-2.466h11.406q0-1.572-.628-2.804a4.74 4.74 0 0 0-1.764-1.947q-1.136-.713-2.682-.713-1.705 0-2.949.846a5.57 5.57 0 0 0-1.897 2.176 6.4 6.4 0 0 0-.665 2.878v1.643q0 2.104.726 3.566.736 1.451 2.041 2.212 1.306.75 3.033.75 1.124 0 2.03-.314a4.35 4.35 0 0 0 1.583-.967 4.4 4.4 0 0 0 1.027-1.62l2.756.774a6.1 6.1 0 0 1-1.463 2.465q-1.027 1.052-2.537 1.645-1.51.579-3.396.579M410.012 153.315v-2.176l10.537-13.539v-.193H410.35v-2.659h13.872v2.272l-10.247 13.442v.194h10.585v2.659zM440.65 145.723v-10.975h2.851v18.567h-2.851v-3.143h-.194q-.652 1.413-2.03 2.405-1.377.98-3.48.98-1.74 0-3.093-.762-1.354-.774-2.127-2.321-.773-1.56-.773-3.928v-11.798h2.851v11.604q0 2.031 1.137 3.239 1.148 1.21 2.924 1.209 1.062 0 2.162-.543 1.113-.545 1.861-1.669.762-1.124.762-2.865M456.507 153.701q-2.683 0-4.628-1.184-1.934-1.197-2.985-3.337-1.04-2.151-1.04-5.004t1.04-5.029q1.051-2.188 2.924-3.408 1.885-1.234 4.398-1.233 1.45 0 2.864.483 1.414.484 2.574 1.572 1.16 1.075 1.849 2.853.689 1.776.689 4.375v1.209h-14.308v-2.466h11.407q0-1.572-.628-2.804a4.74 4.74 0 0 0-1.764-1.947q-1.135-.713-2.683-.713-1.703 0-2.948.846a5.57 5.57 0 0 0-1.897 2.176 6.4 6.4 0 0 0-.665 2.878v1.643q0 2.104.725 3.566.738 1.451 2.043 2.212 1.304.75 3.033.75 1.123 0 2.03-.314a4.4 4.4 0 0 0 1.583-.967 4.4 4.4 0 0 0 1.027-1.62l2.754.774a6.1 6.1 0 0 1-1.462 2.465q-1.026 1.052-2.537 1.645-1.51.579-3.395.579M471.381 128.558v24.757h-2.852v-24.757zM482.066 153.75q-1.764 0-3.202-.665a5.5 5.5 0 0 1-2.284-1.946q-.846-1.28-.845-3.094 0-1.596.628-2.587a4.43 4.43 0 0 1 1.679-1.572 8.9 8.9 0 0 1 2.321-.846 28 28 0 0 1 2.573-.46q1.692-.217 2.743-.326 1.064-.12 1.547-.399.495-.277.495-.967v-.096q0-1.79-.978-2.781-.967-.99-2.937-.991-2.042 0-3.202.894-1.16.895-1.631 1.911l-2.707-.967q.725-1.694 1.933-2.636a7.25 7.25 0 0 1 2.659-1.33 11 11 0 0 1 2.851-.386q.895 0 2.055.217a6.6 6.6 0 0 1 2.259.858q1.1.653 1.825 1.971t.725 3.529v12.234h-2.852V150.8h-.145q-.29.605-.966 1.294-.677.69-1.801 1.172-1.123.484-2.743.484m.435-2.562q1.692 0 2.852-.666 1.172-.664 1.764-1.716a4.4 4.4 0 0 0 .604-2.212v-2.612q-.18.218-.797.399-.604.17-1.402.303-.785.12-1.535.218-.737.084-1.196.144-1.112.147-2.078.472-.954.315-1.547.955-.58.629-.58 1.716 0 1.487 1.1 2.249 1.111.75 2.815.75"/><path fill="currentColor" d="M451.361 111.98V87.223h9.908q2.731 0 4.555.81 1.825.81 2.743 2.248.92 1.427.919 3.288 0 1.451-.58 2.551a5 5 0 0 1-1.595 1.79 6.55 6.55 0 0 1-2.296.978v.242q1.414.06 2.646.798 1.245.738 2.018 2.067.773 1.318.774 3.143 0 1.97-.979 3.518-.967 1.534-2.864 2.43-1.897.894-4.676.894zm5.232-4.279h4.265q2.188 0 3.19-.835 1.003-.846 1.003-2.248 0-1.027-.495-1.813-.496-.786-1.414-1.233-.907-.447-2.163-.447h-4.386zm0-10.118h3.879q1.075 0 1.908-.375.847-.387 1.33-1.088.495-.701.495-1.68 0-1.343-.954-2.163-.943-.824-2.683-.823h-3.975zM482.147 112.343q-2.817 0-4.87-1.197-2.042-1.21-3.154-3.36-1.113-2.164-1.112-5.017 0-2.877 1.112-5.029 1.112-2.164 3.154-3.36 2.053-1.21 4.87-1.21 2.815 0 4.857 1.21 2.055 1.196 3.166 3.36 1.112 2.151 1.112 5.029 0 2.853-1.112 5.017a8.17 8.17 0 0 1-3.166 3.36q-2.041 1.196-4.857 1.197m.024-3.989q1.281 0 2.138-.725.859-.74 1.293-2.008.447-1.269.447-2.889t-.447-2.888q-.434-1.27-1.293-2.007-.857-.738-2.138-.738-1.294 0-2.175.738-.87.737-1.318 2.007-.434 1.269-.435 2.888 0 1.62.435 2.889.447 1.269 1.318 2.008.881.725 2.175.725M499.776 87.223v24.757h-5.147V87.223zM503.9 111.98V93.412h5.148v18.568zm2.586-20.96a2.8 2.8 0 0 1-1.97-.762q-.81-.774-.81-1.85 0-1.064.81-1.826a2.77 2.77 0 0 1 1.97-.773q1.148 0 1.958.773.82.762.821 1.826 0 1.076-.821 1.85-.81.76-1.958.761M530.475 93.412l-6.489 18.568h-5.8l-6.489-18.568h5.438l3.854 13.286h.193l3.843-13.286zM537.904 112.331q-1.778 0-3.166-.617a5.1 5.1 0 0 1-2.2-1.85q-.797-1.233-.798-3.07 0-1.548.569-2.599a4.6 4.6 0 0 1 1.546-1.692 7.5 7.5 0 0 1 2.224-.967 17 17 0 0 1 2.634-.46 67 67 0 0 0 2.61-.314q.991-.157 1.438-.46.447-.302.447-.894v-.073q0-1.148-.725-1.777-.714-.628-2.03-.628-1.39 0-2.211.617-.822.603-1.088 1.523l-4.761-.387q.363-1.692 1.426-2.926 1.063-1.244 2.743-1.91 1.692-.676 3.914-.677 1.548 0 2.962.363 1.425.363 2.525 1.124a5.5 5.5 0 0 1 1.752 1.959q.64 1.185.64 2.84v12.524h-4.881v-2.575h-.146a5.2 5.2 0 0 1-1.195 1.535q-.75.654-1.801 1.028-1.052.363-2.428.363m1.473-3.555q1.135 0 2.007-.447a3.55 3.55 0 0 0 1.365-1.233q.495-.774.495-1.753v-1.97a2.8 2.8 0 0 1-.665.29q-.41.121-.93.23-.52.096-1.039.181l-.943.133a6.4 6.4 0 0 0-1.583.423q-.676.291-1.051.786-.375.484-.374 1.208 0 1.052.761 1.609.773.544 1.957.543M552.349 111.98V93.412h4.99v3.24h.194q.507-1.729 1.704-2.61 1.195-.895 2.755-.895.385 0 .834.048.447.048.785.132v4.57a7 7 0 0 0-1.003-.193 9 9 0 0 0-1.172-.085q-1.136 0-2.03.496a3.64 3.64 0 0 0-1.402 1.354q-.507.87-.507 2.006v10.505zM566.272 111.98V93.412h5.148v18.568zm2.586-20.96a2.8 2.8 0 0 1-1.969-.762q-.81-.774-.81-1.85 0-1.064.81-1.826a2.77 2.77 0 0 1 1.969-.773q1.148 0 1.958.773.821.762.822 1.826 0 1.076-.822 1.85-.81.76-1.958.761M580.836 112.331q-1.776 0-3.166-.617a5.1 5.1 0 0 1-2.199-1.85q-.798-1.233-.797-3.07 0-1.548.567-2.599a4.6 4.6 0 0 1 1.547-1.692 7.5 7.5 0 0 1 2.223-.967 17 17 0 0 1 2.634-.46q1.62-.169 2.61-.314.991-.157 1.439-.46.447-.302.447-.894v-.073q0-1.148-.725-1.777-.713-.628-2.031-.628-1.388 0-2.211.617-.822.603-1.087 1.523l-4.761-.387q.363-1.692 1.426-2.926 1.063-1.244 2.743-1.91 1.692-.676 3.915-.677 1.547 0 2.96.363a7.8 7.8 0 0 1 2.526 1.124 5.5 5.5 0 0 1 1.752 1.959q.64 1.185.641 2.84v12.524h-4.883v-2.575h-.144a5.2 5.2 0 0 1-1.197 1.535 5.5 5.5 0 0 1-1.801 1.028q-1.05.363-2.428.363m1.475-3.555q1.135 0 2.005-.447a3.55 3.55 0 0 0 1.365-1.233q.496-.774.496-1.753v-1.97a2.8 2.8 0 0 1-.664.29q-.411.121-.931.23-.52.096-1.04.181l-.942.133a6.4 6.4 0 0 0-1.583.423q-.676.291-1.051.786-.375.484-.375 1.208 0 1.052.762 1.609.773.544 1.958.543M600.43 101.246v10.734h-5.148V93.412h4.906v3.276h.217a5.18 5.18 0 0 1 2.066-2.562q1.451-.956 3.517-.956 1.934 0 3.371.846 1.438.847 2.236 2.418.797 1.56.798 3.724v11.822h-5.148v-10.904q.012-1.703-.87-2.66-.883-.966-2.429-.966-1.04 0-1.837.447a3.1 3.1 0 0 0-1.232 1.306q-.435.846-.447 2.043M624.836 112.343q-2.816 0-4.87-1.197-2.043-1.21-3.155-3.36-1.11-2.164-1.11-5.017 0-2.877 1.11-5.029 1.112-2.164 3.155-3.36 2.054-1.21 4.87-1.21 2.814 0 4.857 1.21 2.054 1.196 3.166 3.36 1.112 2.151 1.112 5.029 0 2.853-1.112 5.017a8.18 8.18 0 0 1-3.166 3.36q-2.043 1.196-4.857 1.197m.023-3.989q1.283 0 2.139-.725.858-.74 1.293-2.008.447-1.269.447-2.889t-.447-2.888q-.435-1.27-1.293-2.007-.856-.738-2.139-.738-1.292 0-2.175.738-.87.737-1.317 2.007-.434 1.269-.435 2.888 0 1.62.435 2.889.448 1.269 1.317 2.008.883.725 2.175.725"/><path stroke="currentColor" stroke-width="4" d="M693.088 66.838v105.883"/><path fill="#878889" d="M748.957 93.55h2.597l6.107 14.914h.21l6.106-14.914h2.597v17.967h-2.036v-13.65h-.175l-5.615 13.65h-1.965l-5.615-13.65h-.175v13.65h-2.036zM770.656 111.517V98.042h2.071v13.475zm1.053-15.722q-.605 0-1.044-.412a1.32 1.32 0 0 1-.43-.992q0-.578.43-.99.439-.413 1.044-.413.606 0 1.035.413.438.412.439.99 0 .58-.439.992a1.44 1.44 0 0 1-1.035.412M778.589 103.411v8.106h-2.07V98.042h2v2.105h.176a3.84 3.84 0 0 1 1.438-1.65q.966-.63 2.492-.63 1.368 0 2.396.56 1.025.554 1.596 1.685.57 1.124.571 2.843v8.562h-2.071v-8.422q0-1.589-.825-2.474-.825-.895-2.263-.895-.992 0-1.773.43a3.1 3.1 0 0 0-1.22 1.255q-.447.824-.447 2M790.971 111.517V98.042h2.07v13.475zm1.053-15.722q-.606 0-1.044-.412a1.33 1.33 0 0 1-.431-.992q0-.578.431-.99a1.47 1.47 0 0 1 1.044-.413q.605 0 1.035.413.439.412.438.99 0 .58-.438.992a1.45 1.45 0 0 1-1.035.412M806.379 101.059l-1.86.527a3.5 3.5 0 0 0-.517-.903 2.5 2.5 0 0 0-.913-.738q-.579-.289-1.483-.29-1.236 0-2.061.571-.816.562-.816 1.43 0 .772.561 1.219t1.755.746l2 .491q1.808.44 2.693 1.343.887.894.887 2.308 0 1.158-.667 2.07-.659.912-1.842 1.439-1.185.527-2.755.527-2.062-.001-3.413-.896t-1.711-2.614l1.965-.492q.28 1.088 1.062 1.632.79.544 2.062.544 1.447 0 2.298-.614.86-.623.86-1.491 0-.702-.491-1.176-.491-.483-1.509-.72l-2.246-.526q-1.852-.438-2.72-1.36-.86-.93-.86-2.324 0-1.142.641-2.018.649-.878 1.763-1.377 1.124-.5 2.544-.5 2.001 0 3.141.876 1.15.877 1.632 2.316M815.602 98.042v1.754h-6.984v-1.754zm-4.948-3.229h2.071v12.844q0 .877.254 1.316.263.43.667.579.411.14.868.14.344 0 .561-.035l.351-.07.421 1.86q-.21.078-.587.158-.377.088-.957.088a4.2 4.2 0 0 1-1.719-.377 3.4 3.4 0 0 1-1.386-1.15q-.543-.772-.544-1.947zM824.222 111.799q-1.948 0-3.36-.861-1.404-.868-2.167-2.421-.755-1.561-.755-3.633 0-2.07.755-3.649.763-1.589 2.123-2.474 1.368-.895 3.194-.895a6.4 6.4 0 0 1 2.079.35 5.2 5.2 0 0 1 1.868 1.141q.844.78 1.342 2.071.501 1.29.501 3.176v.877h-10.388v-1.79h8.282q0-1.14-.456-2.035a3.43 3.43 0 0 0-1.281-1.413q-.825-.517-1.947-.517-1.237 0-2.142.614a4.05 4.05 0 0 0-1.377 1.58 4.64 4.64 0 0 0-.482 2.087v1.193q0 1.528.526 2.588.536 1.053 1.483 1.606.947.545 2.202.545a4.5 4.5 0 0 0 1.474-.229 3.2 3.2 0 0 0 1.149-.701q.483-.474.746-1.177l2 .562a4.4 4.4 0 0 1-1.062 1.79q-.744.763-1.842 1.193-1.097.421-2.465.422M832.952 111.517V98.042h2v2.034h.14q.369-1 1.334-1.622a3.9 3.9 0 0 1 2.175-.623q.229 0 .57.009.344.01.518.026v2.106a6 6 0 0 0-.482-.08 5 5 0 0 0-.781-.06q-.983 0-1.754.411a3.1 3.1 0 0 0-1.212 1.123q-.438.71-.438 1.624v8.527zM842.144 111.517V98.042h2.07v13.475zm1.053-15.722q-.606 0-1.044-.412a1.33 1.33 0 0 1-.431-.992q0-.578.431-.99a1.47 1.47 0 0 1 1.044-.413q.605 0 1.035.413.439.412.438.99 0 .58-.438.992a1.45 1.45 0 0 1-1.035.412M853.481 111.799q-1.824 0-3.202-.87-1.369-.867-2.141-2.43-.763-1.562-.763-3.649 0-2.106.763-3.677.772-1.57 2.141-2.439 1.378-.867 3.202-.868 1.825 0 3.194.868 1.378.87 2.14 2.439.773 1.571.772 3.677.001 2.087-.772 3.649-.762 1.563-2.14 2.43-1.369.87-3.194.87m0-1.86q1.386 0 2.281-.712.896-.71 1.325-1.868.43-1.16.43-2.509 0-1.352-.43-2.518-.43-1.167-1.325-1.887-.894-.72-2.281-.719-1.386 0-2.28.719-.896.72-1.326 1.887a7.2 7.2 0 0 0-.429 2.518q0 1.35.429 2.509.43 1.158 1.326 1.868.894.712 2.28.712M874.785 111.799q-1.683 0-2.974-.852-1.29-.86-2.017-2.421-.73-1.571-.729-3.711 0-2.124.729-3.685.728-1.562 2.025-2.413 1.3-.851 3.001-.85 1.316 0 2.08.438.771.43 1.175.983.413.543.641.894h.175V93.55h2.07v17.967h-2v-2.07h-.245q-.229.368-.65.93-.42.552-1.201.991-.781.43-2.08.431m.281-1.86q1.246-.001 2.106-.65.858-.657 1.307-1.816.447-1.167.447-2.694 0-1.508-.439-2.64-.438-1.141-1.298-1.772-.86-.64-2.123-.64-1.315 0-2.193.674-.87.667-1.308 1.817-.429 1.14-.429 2.561 0 1.44.438 2.615.447 1.166 1.317 1.86.876.684 2.175.685M890.691 111.799q-1.945 0-3.362-.861c-.935-.579-1.658-1.386-2.161-2.421-.503-1.041-.759-2.252-.759-3.633 0-1.38.256-2.596.759-3.649q.754-1.589 2.117-2.474c.918-.597 1.977-.895 3.194-.895.706 0 1.395.117 2.083.35a5.2 5.2 0 0 1 1.87 1.141c.556.52 1.006 1.211 1.342 2.071.335.86.494 1.918.494 3.176v.877h-10.386v-1.79h8.286c0-.76-.15-1.439-.459-2.035a3.44 3.44 0 0 0-1.28-1.413c-.547-.345-1.2-.517-1.95-.517-.82 0-1.535.205-2.135.614-.6.404-1.059.93-1.385 1.58a4.7 4.7 0 0 0-.477 2.087v1.193c0 1.019.177 1.881.521 2.588q.543 1.053 1.482 1.606c.636.363 1.368.545 2.206.545a4.5 4.5 0 0 0 1.474-.229 3.2 3.2 0 0 0 1.147-.701 3.2 3.2 0 0 0 .75-1.177l2.003.562a4.4 4.4 0 0 1-1.068 1.79c-.494.509-1.112.906-1.844 1.193-.724.28-1.553.422-2.462.422M901.491 93.55v17.967h-2.073V93.55zM912.229 116.571v-18.53h2.003v2.141h.247c.15-.234.362-.532.627-.894.282-.37.67-.697 1.182-.983.512-.293 1.209-.439 2.083-.439 1.138 0 2.135.283 3 .85.873.568 1.544 1.373 2.029 2.414s.732 2.269.732 3.685c0 1.426-.247 2.664-.732 3.711-.485 1.041-1.156 1.848-2.021 2.421-.856.567-1.844.852-2.973.852-.865 0-1.553-.144-2.074-.431-.52-.292-.926-.623-1.208-.991a15 15 0 0 1-.645-.93h-.176v7.124zm2.039-11.792q0 1.527.45 2.694c.3.772.732 1.378 1.306 1.816.573.432 1.27.65 2.108.65.865 0 1.58-.229 2.162-.685.582-.463 1.024-1.082 1.315-1.86q.45-1.176.45-2.615c0-.947-.15-1.801-.441-2.561-.283-.767-.724-1.372-1.306-1.817-.583-.45-1.306-.675-2.18-.675-.847 0-1.553.214-2.126.641q-.86.631-1.297 1.772c-.291.754-.441 1.635-.441 2.64M932.762 111.799q-1.827 0-3.203-.87-1.364-.867-2.144-2.43c-.503-1.041-.759-2.258-.759-3.649 0-1.404.256-2.629.759-3.677q.78-1.57 2.144-2.439 1.376-.867 3.203-.868c1.217 0 2.285.29 3.194.868q1.377.87 2.144 2.439.768 1.571.768 3.677 0 2.087-.768 3.649-.767 1.563-2.144 2.43c-.909.579-1.977.87-3.194.87m0-1.86c.926 0 1.685-.238 2.285-.712q.886-.71 1.324-1.868a7.3 7.3 0 0 0 .423-2.509q0-1.352-.423-2.518-.438-1.167-1.324-1.887-.898-.72-2.285-.719-1.39 0-2.277.719c-.6.48-1.041 1.109-1.332 1.887a7.3 7.3 0 0 0-.424 2.518q0 1.35.424 2.509c.291.772.732 1.395 1.332 1.868q.886.712 2.277.712M947.118 111.799c-1.121 0-2.118-.285-2.974-.852-.865-.573-1.535-1.38-2.02-2.421-.486-1.047-.724-2.285-.724-3.711 0-1.416.238-2.644.724-3.685q.73-1.562 2.029-2.413c.865-.568 1.862-.85 3-.85.873 0 1.571.145 2.082.438.512.286.9.614 1.174.983q.41.543.635.894h.177V93.55h2.073v17.967h-2.003v-2.07h-.247c-.15.245-.362.555-.644.93-.282.368-.679.699-1.2.991-.521.287-1.218.431-2.082.431m.282-1.86c.829 0 1.526-.218 2.1-.65.573-.438 1.015-1.044 1.315-1.816.291-.778.441-1.676.441-2.694 0-1.005-.141-1.886-.433-2.64-.3-.761-.732-1.351-1.305-1.772q-.861-.64-2.118-.64c-.882 0-1.606.224-2.197.674-.574.445-1.015 1.05-1.306 1.817-.282.76-.432 1.614-.432 2.561 0 .96.15 1.831.441 2.615.3.778.741 1.397 1.315 1.86.591.456 1.314.685 2.179.685M963.026 111.799q-1.945 0-3.361-.861-1.403-.868-2.171-2.421c-.503-1.041-.75-2.252-.75-3.633 0-1.38.247-2.596.75-3.649.512-1.059 1.218-1.884 2.127-2.474.908-.597 1.976-.895 3.194-.895a6.4 6.4 0 0 1 2.073.35 5.1 5.1 0 0 1 1.871 1.141c.565.52 1.015 1.211 1.341 2.071q.503 1.29.503 3.176v.877h-10.385v-1.79h8.276q0-1.14-.45-2.035a3.44 3.44 0 0 0-1.279-1.413c-.556-.345-1.2-.517-1.95-.517q-1.245 0-2.144.614a4.1 4.1 0 0 0-1.377 1.58 4.7 4.7 0 0 0-.485 2.087v1.193q0 1.528.529 2.588.543 1.053 1.483 1.606c.635.363 1.367.545 2.205.545q.81 0 1.474-.229a3.2 3.2 0 0 0 1.147-.701 3.25 3.25 0 0 0 .75-1.177l1.994.562a4.5 4.5 0 0 1-1.059 1.79q-.743.763-1.844 1.193-1.098.421-2.462.422M971.753 111.517V98.042h2.003v2.034h.141c.238-.666.688-1.207 1.332-1.622a3.9 3.9 0 0 1 2.171-.623c.159 0 .344.002.574.009s.397.015.52.026v2.106a6 6 0 0 0-.485-.08 5 5 0 0 0-.785-.06q-.98 0-1.748.411a3.13 3.13 0 0 0-1.217 1.123q-.435.71-.433 1.624v8.527zM987.891 116.571v-18.53h2.003v2.141h.247c.15-.234.362-.532.627-.894.282-.37.67-.697 1.182-.983.512-.293 1.209-.439 2.082-.439 1.139 0 2.136.283 3 .85.874.568 1.544 1.373 2.03 2.414s.732 2.269.732 3.685c0 1.426-.247 2.664-.732 3.711-.486 1.041-1.156 1.848-2.021 2.421-.856.567-1.844.852-2.973.852-.865 0-1.553-.144-2.074-.431-.52-.292-.926-.623-1.209-.991a16 16 0 0 1-.644-.93h-.176v7.124zm2.038-11.792q0 1.527.45 2.694.448 1.159 1.306 1.816c.574.432 1.271.65 2.109.65.865 0 1.58-.229 2.162-.685q.875-.694 1.315-1.86.45-1.176.45-2.615-.002-1.42-.442-2.561c-.282-.767-.723-1.372-1.305-1.817-.583-.45-1.306-.675-2.18-.675q-1.269 0-2.126.641-.86.631-1.297 1.772c-.292.754-.442 1.635-.442 2.64M1008.42 111.799c-1.21 0-2.28-.291-3.2-.87-.91-.578-1.62-1.388-2.14-2.43-.51-1.041-.76-2.258-.76-3.649 0-1.404.25-2.629.76-3.677.52-1.046 1.23-1.86 2.14-2.439.92-.578 1.99-.868 3.2-.868 1.22 0 2.29.29 3.2.868.92.58 1.63 1.393 2.14 2.439.51 1.048.77 2.273.77 3.677 0 1.391-.26 2.608-.77 3.649-.51 1.042-1.22 1.852-2.14 2.43-.91.579-1.98.87-3.2.87m0-1.86c.93 0 1.69-.238 2.29-.712q.885-.71 1.32-1.868c.28-.773.43-1.609.43-2.509 0-.901-.15-1.741-.43-2.518q-.435-1.167-1.32-1.887c-.6-.48-1.36-.719-2.29-.719-.92 0-1.68.24-2.27.719-.6.48-1.04 1.109-1.34 1.887a7.4 7.4 0 0 0-.42 2.518q0 1.35.42 2.509c.3.772.74 1.395 1.34 1.868.59.474 1.35.712 2.27.712M1017.69 116.571v-18.53h2v2.141h.25c.15-.234.36-.532.62-.894.29-.37.68-.697 1.19-.983.51-.293 1.21-.439 2.08-.439 1.14 0 2.13.283 3 .85.86.568 1.54 1.373 2.03 2.414.48 1.041.73 2.269.73 3.685 0 1.426-.25 2.664-.73 3.711-.49 1.041-1.16 1.848-2.02 2.421-.86.567-1.85.852-2.98.852q-1.29 0-2.07-.431c-.52-.292-.93-.623-1.21-.991-.27-.375-.49-.685-.64-.93h-.18v7.124zm2.04-11.792q0 1.527.45 2.694c.29.772.73 1.378 1.3 1.816.58.432 1.27.65 2.1.65.88 0 1.59-.229 2.17-.685q.885-.694 1.32-1.86.45-1.176.45-2.615c0-.947-.15-1.801-.44-2.561-.29-.767-.73-1.372-1.31-1.817q-.87-.675-2.19-.675c-.84 0-1.54.214-2.12.641q-.855.631-1.29 1.772c-.29.754-.44 1.635-.44 2.64M1041.24 106.008v-7.966h2.07v13.475h-2.07v-2.281h-.14c-.32.685-.81 1.266-1.48 1.746-.66.474-1.51.711-2.52.711q-1.275 0-2.25-.553c-.65-.374-1.16-.936-1.54-1.684-.37-.755-.56-1.706-.56-2.852v-8.562h2.06v8.422c0 .983.28 1.766.83 2.351.56.585 1.27.877 2.12.877.52 0 1.04-.131 1.57-.394q.81-.395 1.35-1.211c.37-.544.56-1.237.56-2.079M1049.17 93.55v17.967h-2.07V93.55zM1056.93 111.833c-.85 0-1.63-.161-2.32-.483-.7-.327-1.26-.797-1.66-1.411-.41-.621-.62-1.37-.62-2.247 0-.772.16-1.398.46-1.878a3.26 3.26 0 0 1 1.22-1.14q.765-.413 1.68-.614c.62-.14 1.25-.251 1.87-.333.82-.106 1.48-.185 2-.238.51-.058.88-.154 1.12-.289.23-.134.36-.368.36-.701v-.071q0-1.298-.72-2.018c-.46-.48-1.17-.72-2.12-.72-.99 0-1.77.217-2.33.65-.57.433-.96.895-1.18 1.386l-1.97-.702c.35-.819.82-1.456 1.4-1.912a5.3 5.3 0 0 1 1.93-.965c.7-.187 1.4-.28 2.08-.28.43 0 .92.051 1.49.157a4.8 4.8 0 0 1 1.64.623q.795.474 1.32 1.429c.35.638.52 1.493.52 2.563v8.878h-2.06v-1.825h-.11c-.14.293-.38.606-.7.939-.33.334-.76.617-1.31.852-.55.233-1.21.35-1.99.35m.31-1.86c.82 0 1.51-.161 2.08-.483.56-.321.99-.736 1.28-1.245s.44-1.044.44-1.606v-1.895c-.09.106-.28.202-.58.29q-.45.123-1.02.219c-.38.058-.75.111-1.12.158-.35.041-.64.076-.86.105-.54.071-1.05.185-1.51.343-.46.151-.84.382-1.12.693-.29.304-.43.719-.43 1.245 0 .72.27 1.264.8 1.632q.81.544 2.04.544M1066.89 111.517V98.042h1.99v2.034h.14c.25-.666.7-1.207 1.34-1.622s1.37-.623 2.18-.623q.225 0 .57.009c.22.006.4.015.51.026v2.106a6 6 0 0 0-.48-.08 4.7 4.7 0 0 0-.78-.06c-.65 0-1.24.137-1.76.411-.5.269-.91.644-1.21 1.123a3.05 3.05 0 0 0-.44 1.624v8.527zM748.676 146.571v-18.529h2.001v2.14h.245q.229-.35.632-.894.413-.554 1.176-.983.772-.44 2.088-.439 1.701 0 3.001.851 1.297.851 2.026 2.413t.728 3.685q0 2.14-.728 3.711-.728 1.562-2.018 2.421-1.29.851-2.974.852-1.299 0-2.08-.431-.78-.438-1.202-.991-.42-.562-.649-.93h-.175v7.124zm2.036-11.792q0 1.527.447 2.694.448 1.159 1.307 1.816.861.649 2.106.65 1.3 0 2.167-.685.878-.694 1.316-1.86.447-1.175.447-2.615 0-1.42-.438-2.561-.43-1.15-1.307-1.817-.87-.675-2.185-.675-1.263 0-2.123.641-.86.631-1.298 1.772-.438 1.132-.439 2.64M767.697 141.833q-1.28 0-2.325-.483a4 4 0 0 1-1.658-1.411q-.614-.931-.614-2.247 0-1.158.456-1.878a3.2 3.2 0 0 1 1.22-1.14 6.4 6.4 0 0 1 1.684-.614 21 21 0 0 1 1.869-.333 83 83 0 0 1 1.992-.238q.77-.087 1.123-.289.359-.201.359-.701v-.071q0-1.299-.71-2.018-.702-.719-2.132-.719-1.484 0-2.325.649-.843.65-1.185 1.386l-1.965-.702q.527-1.228 1.404-1.912a5.3 5.3 0 0 1 1.929-.965 8 8 0 0 1 2.071-.281q.65 0 1.491.158a4.8 4.8 0 0 1 1.642.623q.798.474 1.324 1.429.527.958.527 2.563v8.878h-2.071v-1.825h-.105q-.21.44-.702.939-.492.5-1.307.852-.817.35-1.992.35m.316-1.86q1.229 0 2.07-.483.852-.481 1.281-1.245a3.17 3.17 0 0 0 .439-1.606v-1.895q-.131.158-.579.29a10 10 0 0 1-1.017.219q-.571.087-1.115.158-.535.062-.869.105a8 8 0 0 0-1.509.343q-.692.227-1.123.693-.42.456-.421 1.245 0 1.08.799 1.632.807.544 2.044.544M777.653 141.517v-13.475h2v2.034h.141q.367-1 1.333-1.622a3.9 3.9 0 0 1 2.176-.623q.228 0 .571.009.341.01.517.026v2.105a6 6 0 0 0-.483-.078 4.6 4.6 0 0 0-.781-.062q-.983 0-1.754.412a3.1 3.1 0 0 0-1.211 1.123q-.44.71-.439 1.624v8.527zM790.811 141.833q-1.282 0-2.325-.483a4 4 0 0 1-1.658-1.411q-.615-.931-.614-2.247 0-1.158.456-1.878a3.2 3.2 0 0 1 1.219-1.14 6.4 6.4 0 0 1 1.684-.614q.932-.21 1.869-.333a84 84 0 0 1 1.992-.238q.772-.087 1.123-.289.36-.201.36-.701v-.071q0-1.299-.711-2.018-.702-.719-2.132-.719-1.483 0-2.325.649-.842.65-1.184 1.386l-1.966-.702q.526-1.228 1.404-1.912a5.3 5.3 0 0 1 1.931-.965 8 8 0 0 1 2.07-.281q.649 0 1.492.158a4.8 4.8 0 0 1 1.64.623q.798.474 1.325 1.429.525.958.526 2.563v8.878h-2.07v-1.825h-.106q-.21.44-.701.939-.492.5-1.308.852-.816.35-1.991.35m.315-1.86q1.228 0 2.071-.483.852-.481 1.281-1.245a3.17 3.17 0 0 0 .439-1.606v-1.895q-.132.158-.58.29a10 10 0 0 1-1.017.219q-.57.087-1.114.158-.535.062-.869.105a8 8 0 0 0-1.509.343q-.693.227-1.123.693-.42.456-.421 1.245 0 1.08.798 1.632.807.544 2.044.544M809.786 123.55v17.967h-2.071V123.55zM817.543 141.833q-1.281 0-2.325-.483a4 4 0 0 1-1.658-1.411q-.614-.931-.614-2.247 0-1.158.456-1.878a3.23 3.23 0 0 1 1.22-1.14 6.4 6.4 0 0 1 1.684-.614 21 21 0 0 1 1.869-.333 84 84 0 0 1 1.991-.238q.773-.087 1.124-.289.36-.201.359-.701v-.071q0-1.299-.71-2.018-.702-.719-2.132-.719-1.483 0-2.325.649-.842.65-1.184 1.386l-1.966-.702q.527-1.228 1.404-1.912a5.3 5.3 0 0 1 1.93-.965 8 8 0 0 1 2.07-.281q.65 0 1.492.158a4.8 4.8 0 0 1 1.641.623q.799.474 1.324 1.429.527.958.527 2.563v8.878h-2.071v-1.825h-.105q-.21.44-.702.939-.491.5-1.307.852-.816.35-1.992.35m.316-1.86q1.228 0 2.071-.483.85-.481 1.28-1.245a3.17 3.17 0 0 0 .439-1.606v-1.895q-.132.158-.579.29a10 10 0 0 1-1.017.219q-.571.087-1.115.158a59 59 0 0 0-.868.105 8 8 0 0 0-1.51.343q-.692.227-1.122.693-.423.456-.422 1.245 0 1.08.799 1.632.807.544 2.044.544"/><path fill="currentColor" d="M844.561 128.717q-.106-1.062-.904-1.649-.798-.588-2.167-.588-.93 0-1.57.263-.64.255-.983.71-.333.457-.333 1.036-.017.482.201.842.229.36.623.623.396.254.913.447.517.186 1.105.316l1.615.387q1.174.263 2.158.701a6.6 6.6 0 0 1 1.702 1.079q.719.64 1.115 1.509.402.87.412 1.992-.01 1.65-.843 2.86-.825 1.202-2.386 1.869-1.553.657-3.746.658-2.176 0-3.79-.667-1.606-.667-2.509-1.974-.896-1.316-.939-3.255h3.676q.061.905.517 1.509.464.597 1.238.904.78.298 1.763.298.965 0 1.675-.281.72-.28 1.115-.781.395-.5.395-1.149 0-.605-.36-1.018-.351-.411-1.035-.701a10.5 10.5 0 0 0-1.659-.527l-1.956-.491q-2.272-.553-3.589-1.728-1.316-1.177-1.307-3.168-.009-1.632.869-2.851.886-1.22 2.43-1.904 1.543-.684 3.51-.684 2 0 3.491.684 1.5.684 2.334 1.904t.859 2.825zM854.775 141.772q-1.288 0-2.299-.447a3.7 3.7 0 0 1-1.596-1.343q-.579-.896-.579-2.228 0-1.123.413-1.887a3.3 3.3 0 0 1 1.122-1.228 5.5 5.5 0 0 1 1.615-.702 12.4 12.4 0 0 1 1.913-.333 49 49 0 0 0 1.894-.228q.72-.114 1.045-.334.323-.22.323-.649v-.052q0-.834-.525-1.29-.518-.457-1.475-.457-1.008 0-1.605.448a2.06 2.06 0 0 0-.79 1.105l-3.457-.28a4.7 4.7 0 0 1 1.036-2.123q.772-.905 1.992-1.386 1.228-.493 2.842-.492 1.123 0 2.149.263a5.6 5.6 0 0 1 1.834.816q.807.552 1.272 1.422.466.859.465 2.061v9.089h-3.544v-1.869h-.105a3.8 3.8 0 0 1-.869 1.115 4 4 0 0 1-1.307.745q-.764.264-1.764.264m1.07-2.58q.826 0 1.457-.324.632-.333.992-.895.359-.562.359-1.272v-1.43a2 2 0 0 1-.483.21 8 8 0 0 1-.675.167q-.377.07-.754.132-.378.052-.685.096a4.7 4.7 0 0 0-1.149.307q-.491.21-.764.57-.272.351-.272.878 0 .763.554 1.167.562.394 1.42.394M869.001 123.55v17.967h-3.737V123.55zM880.637 135.78v-7.738h3.737v13.475h-3.588v-2.448h-.14a3.98 3.98 0 0 1-1.518 1.905q-1.053.719-2.57.719-1.352 0-2.378-.614t-1.605-1.747q-.571-1.131-.58-2.71v-8.58h3.738v7.913q.009 1.194.64 1.886.632.694 1.694.694.675 0 1.263-.307.588-.316.948-.93.368-.615.359-1.518M892.332 141.737q-1.535 0-2.779-.79c-.829-.532-1.482-1.313-1.968-2.343-.485-1.035-.723-2.304-.723-3.807 0-1.544.247-2.828.75-3.851.494-1.03 1.156-1.8 1.976-2.308a5.1 5.1 0 0 1 2.736-.772c.75 0 1.376.129 1.888.386.503.251.917.567 1.226.947q.477.562.715 1.106h.115v-6.755H900v17.967h-3.688v-2.158h-.159a5 5 0 0 1-.741 1.114c-.318.363-.733.664-1.236.904-.502.24-1.12.36-1.844.36m1.183-2.975q.902 0 1.526-.491c.424-.333.741-.798.962-1.395q.344-.895.344-2.097c0-.801-.106-1.497-.335-2.087-.221-.591-.538-1.048-.962-1.37q-.635-.482-1.535-.482c-.618 0-1.13.166-1.553.5q-.635.501-.953 1.386c-.221.591-.327 1.275-.327 2.053 0 .784.106 1.477.327 2.08q.33.895.953 1.403c.423.334.935.5 1.553.5"/></symbol>
<symbol id='close'  width="371" height="370" fill="none"><path fill="currentColor" d="M7.734 8.065a26.417 26.417 0 0 1 37.354 0L184.91 147.888 324.734 8.065a26.42 26.42 0 0 1 43.451 8.349 26.4 26.4 0 0 1-.177 20.43 26.4 26.4 0 0 1-5.92 8.574L222.264 185.24l139.824 139.824a26.416 26.416 0 0 1-37.354 37.353L184.911 222.594 45.088 362.418a26.415 26.415 0 0 1-37.353-37.353l139.823-139.824L7.734 45.418a26.417 26.417 0 0 1 0-37.353"/></symbol>
<symbol id='logo'  fill="none" viewBox="0 0 1281 306"><path fill="#D82A3C" d="M62.35 151.111h-9.447l16.06 71.778 4.723-19.833zM68.962 305.056l-11.336-44.389h51.958L195.551 0h106.75l-9.447 34.944h-60.46l-34.954 86.889h57.626l-12.281 29.278h-64.239l-48.179 153.945z"/><path fill="#1282BD" d="M197.44 0h-19.838L90.69 260.667h18.894zM68.018 222.889l-7.558 18.889-34.953-134.111H44.4z"/><path fill="#FDFDFD" d="M180.757 5.794c.283-.87 1.514-.87 1.797 0l1.434 4.415c.127.389.49.652.899.652h4.642c.915 0 1.297 1.17.556 1.709l-3.756 2.728a.94.94 0 0 0-.343 1.056l1.434 4.414c.283.87-.713 1.593-1.453 1.056l-3.756-2.729a.95.95 0 0 0-1.111 0l-3.756 2.729c-.74.537-1.736-.186-1.453-1.056l1.434-4.414a.94.94 0 0 0-.343-1.056l-3.756-2.728c-.74-.538-.36-1.709.555-1.709h4.643a.94.94 0 0 0 .898-.652zM170.993 38.998c.283-.87 1.514-.87 1.797 0l1.434 4.414c.127.39.489.653.899.653h4.642c.915 0 1.296 1.17.555 1.708l-3.755 2.728a.94.94 0 0 0-.344 1.056l1.435 4.414c.283.87-.713 1.594-1.454 1.056l-3.756-2.728a.94.94 0 0 0-1.11 0l-3.756 2.728c-.74.538-1.736-.186-1.454-1.056l1.435-4.414a.945.945 0 0 0-.343-1.056l-3.756-2.728c-.74-.538-.36-1.708.555-1.708h4.643a.94.94 0 0 0 .898-.653zM159.336 72.224c.283-.87 1.514-.87 1.797 0l1.435 4.414c.126.389.489.652.898.652h4.643c.915 0 1.295 1.171.555 1.709l-3.756 2.728a.94.94 0 0 0-.343 1.056l1.434 4.414c.283.87-.713 1.594-1.453 1.056l-3.756-2.728a.945.945 0 0 0-1.111 0l-3.755 2.728c-.741.538-1.737-.186-1.454-1.056l1.434-4.414a.94.94 0 0 0-.343-1.056l-3.756-2.728c-.74-.538-.359-1.709.556-1.709h4.642a.95.95 0 0 0 .899-.652zM147.213 106.303c.283-.871 1.514-.871 1.797 0l1.435 4.414a.94.94 0 0 0 .898.652h4.642c.916 0 1.296 1.171.556 1.709l-3.756 2.728a.94.94 0 0 0-.343 1.056l1.434 4.414c.283.87-.713 1.594-1.453 1.056l-3.756-2.728a.94.94 0 0 0-1.111 0l-3.756 2.728c-.74.538-1.736-.186-1.454-1.056l1.435-4.414a.94.94 0 0 0-.343-1.056l-3.756-2.728c-.74-.538-.36-1.709.555-1.709h4.643a.94.94 0 0 0 .898-.652zM136.908 141.317c.283-.87 1.514-.87 1.797 0l1.435 4.414a.94.94 0 0 0 .898.653h4.643c.915 0 1.295 1.171.555 1.708l-3.756 2.729a.94.94 0 0 0-.343 1.055l1.435 4.415c.282.87-.714 1.593-1.454 1.056l-3.756-2.729a.95.95 0 0 0-1.111 0l-3.755 2.729c-.741.537-1.737-.186-1.454-1.056l1.434-4.415a.94.94 0 0 0-.343-1.055l-3.756-2.729c-.74-.537-.36-1.708.556-1.708h4.642a.94.94 0 0 0 .898-.653zM124.611 174.893c.283-.871 1.514-.871 1.797 0l1.435 4.414a.94.94 0 0 0 .898.652h4.643c.915 0 1.295 1.171.555 1.709l-3.756 2.728a.94.94 0 0 0-.343 1.056l1.434 4.413c.283.871-.713 1.595-1.453 1.056l-3.756-2.727a.94.94 0 0 0-1.111 0l-3.756 2.727c-.74.539-1.736-.185-1.453-1.056l1.434-4.413a.94.94 0 0 0-.343-1.056l-3.756-2.728c-.74-.538-.36-1.709.556-1.709h4.642a.94.94 0 0 0 .898-.652zM115.607 204.37c.283-.869 1.515-.869 1.797 0l1.435 4.415a.94.94 0 0 0 .898.653h4.643c.915 0 1.296 1.169.555 1.708l-3.756 2.727a.95.95 0 0 0-.343 1.056l1.435 4.414c.283.871-.714 1.595-1.454 1.056l-3.756-2.727a.95.95 0 0 0-1.11 0l-3.756 2.727c-.741.539-1.737-.185-1.454-1.056l1.435-4.414a.945.945 0 0 0-.344-1.056l-3.755-2.727c-.741-.539-.36-1.708.555-1.708h4.642c.41 0 .772-.264.899-.653zM105.389 235.167c.282-.871 1.514-.871 1.796 0l1.435 4.414a.94.94 0 0 0 .899.652h4.642c.915 0 1.296 1.171.555 1.709l-3.756 2.728a.945.945 0 0 0-.343 1.056l1.435 4.414c.283.871-.713 1.594-1.454 1.056l-3.756-2.728a.94.94 0 0 0-1.11 0l-3.756 2.728c-.741.538-1.737-.185-1.454-1.056l1.435-4.414a.945.945 0 0 0-.343-1.056l-3.756-2.728c-.74-.538-.36-1.709.555-1.709h4.643a.94.94 0 0 0 .898-.652z"/><path fill="#F5EB13" d="M146.427 0h32.119L92.58 260.667H30.23L0 104.833l25.507 1.889L60.46 240.833z"/><path fill="#1282BD" d="M745.234 196.567c0-.423-1.519-1.237-2.927-1.568-.457-.107-1.709-.268-2.785-.357-2.229-.185-3.308-.364-3.708-.619-.913-.582-1.287-.788-1.888-1.03-.807-.326-2.216-.698-3.985-1.046-2.652-.523-3.999-1.19-4.462-2.21-.157-.344-.184-.682-.185-2.322l-.002-1.921-.276-.052c-.151-.028-.546-.08-.877-.114-.671-.069-2.309-.331-2.581-.412-.162-.049-.176.102-.176 2.213 0 2.043-.018 2.302-.194 2.646-.54 1.059-1.782 1.636-4.899 2.27-2.64.539-3.928.981-4.933 1.696-.762.541-1.363.669-4.253.905-1.049.085-2.288.248-2.757.363-.988.242-2.114.735-2.581 1.131-.708.601-2.318.559 21.571.559 18.012 0 21.898-.022 21.898-.132m-9.796-10.391c.428-.26-.014-1.516-.76-2.158-1.551-1.334-3.735-1.964-9.186-2.648-2.672-.335-4.149-.832-5.483-1.844-1.578-1.195-2.585-3.249-2.815-5.737l-.07-.756-.601-.226c-.839-.315-2.197-1.009-2.874-1.468l-.568-.386-.059.274c-.117.564-.246 1.712-.312 2.779-.147 2.432.435 4.225 1.886 5.816 1.041 1.139 2.475 2.083 4.281 2.818 2.222.904 4.338 1.288 10.122 1.835 1.791.17 3.484.375 3.758.453.275.08.727.325 1.003.545.803.643.895.7 1.207.756.163.029.374.005.471-.053M725.292 177v-2.994l-1.956-.013-1.954-.014v4.899l.637.288c.69.313 1.908.65 2.745.759l.528.068zm.464-4.248c1.321-.128 3.271-.543 4.518-.962 4-1.344 7.37-4.016 8.343-6.617.55-1.467.495-3.098-.145-4.401-.616-1.256-1.529-1.908-3.511-2.51-.831-.252-1.033-.274-2.605-.273-1.748.001-2.636.131-4.91.72l-.701.181-.029 1.764-.026 1.764.629-.158c.363-.091 1.094-.161 1.731-.167.986-.008 1.145.016 1.517.228.646.371.884.883.884 1.917.002.728-.036.924-.263 1.354-.997 1.893-4.173 2.998-8.101 2.818-3.418-.157-5.952-1.349-6.878-3.235-.253-.518-.291-.718-.323-1.706-.089-2.754.862-4.693 2.746-5.599.393-.189.857-.372 1.031-.407l.318-.063v-5.673l-.376.052c-2.419.335-4.72 1.507-6.547 3.334-2.205 2.205-3.235 4.691-3.053 7.371.183 2.693.908 4.42 2.552 6.071 1.247 1.252 2.589 2.095 4.601 2.892 2.768 1.097 5.874 1.568 8.598 1.305m-.589-5.769c.098-.045.125-1.802.125-8.299v-8.242l.835-.221c1.056-.279 2.55-.948 3.438-1.541 3.658-2.441 5.695-6.518 5.916-11.844.087-2.098-.132-2.796-1.256-3.983l-.546-.576H678.97l.068.276c.134.55.58 1.145 1.188 1.594 1.291.95 2.458 1.367 4.438 1.585 1.933.212 3.254.492 4.95 1.049 3.36 1.104 5.756 2.489 9.872 5.706 3.553 2.776 5.585 4.122 8.117 5.371 3.907 1.927 7.42 2.815 13.103 3.312l.676.059v7.796c0 7.33.012 7.801.176 7.87.212.09 3.431.168 3.609.088m-5.989-1.373a7 7 0 0 1 .58-.484c.223-.156.226-.188.2-1.884l-.028-1.726-.752.492c-.414.27-1.032.725-1.376 1.011-.578.483-.618.543-.565.844.106.588.446 1.165.958 1.625.276.249.533.452.569.45.034-.001.221-.149.414-.328m8.929-9.383c4.041-.852 7.574-2.772 10.514-5.713 2.855-2.856 4.763-6.338 5.572-10.168.319-1.507.436-4.354.242-5.795-.548-4.031-2.9-7.123-6.978-9.172-2.65-1.332-5.401-2.128-10.261-2.97-4.413-.765-6.838-1.387-9.392-2.412-5.451-2.185-8.272-5.347-8.752-9.808-.275-2.566.477-5.282 1.992-7.189 1.407-1.771 3.206-2.621 5.528-2.613 2.857.01 5.086.942 6.579 2.749.839 1.015 1.562 2.783 1.402 3.426-.04.16-.365.486-.871.879-.499.386-.911.799-1.077 1.083-.249.422-.27.543-.265 1.511.012 1.605.41 2.506 2.2 4.959 1.494 2.049 2.276 2.756 3.051 2.756.964 0 1.719-1.042 2.305-3.173 1.224-4.459 1.273-4.752.96-5.806-.257-.862-.673-1.374-1.453-1.783-.382-.201-.78-.475-.886-.609-.106-.135-.359-.731-.563-1.325-1.716-4.985-4.716-7.618-9.288-8.15-3.762-.438-7.507.852-10.413 3.585a12.8 12.8 0 0 0-2.807 3.785c-.743 1.507-1.051 2.677-1.202 4.57-.234 2.912.174 5.651 1.13 7.553.85 1.697 2.388 3.326 4.381 4.645 3.031 2.005 7.418 3.889 13.232 5.681 7.969 2.458 9.617 3.102 11.44 4.477 1.347 1.014 2.173 2.316 2.399 3.782.134.879.057 2.928-.17 4.509-.665 4.603-2.764 7.933-6.533 10.364-.703.453-2.266 1.196-3.053 1.452l-.376.122v4.994l.275-.007c.152-.004.664-.089 1.138-.189m17.692-12.66a218 218 0 0 0 2.541-1.962c2.742-2.157 5.861-3.888 8.671-4.808 1.738-.571 3.057-.852 4.972-1.062.75-.083 1.674-.245 2.054-.361 1.706-.523 3.244-1.651 3.573-2.621l.161-.476h-11.169c-6.142 0-11.166.011-11.166.025s.095.453.208.977c.265 1.217.368 4.051.2 5.468-.221 1.88-.937 4.638-1.47 5.67-.081.156-.128.284-.105.284.022 0 .712-.51 1.53-1.134"/><path fill="#D82A3C" d="M276.158 205.889h-24.285l54.794-107.152h29.203l19.154 107.152h-24.282l-13.031-82.666h-.839zm5.547-42.118h57.358l-3.037 17.684h-57.357zm86.22 42.118 17.792-107.152h42.286q12.141 0 19.992 4.291 7.902 4.29 11.094 12.19 3.246 7.848 1.517 18.522-1.78 10.673-7.691 18.312-5.863 7.638-15.283 11.772-9.368 4.08-21.719 4.08h-28.312l3.14-18.207h24.598q6.489 0 11.094-1.779t7.274-5.336q2.721-3.558 3.56-8.842.89-5.39-.629-8.999-1.517-3.663-5.495-5.546-3.977-1.936-10.467-1.936h-15.281l-14.811 88.63zm65.939-48.762 18.578 48.762h-25.015l-18.002-48.762zm49.43-58.39h27.946l17.635 71.993h1.257l41.396-71.993h27.946L581.682 205.89h-21.981l11.617-69.743h-.94l-39.147 69.22h-15.02l-16.118-69.481h-.89l-11.722 70.004H465.5zM618.825 205.89h-24.282l54.792-107.152h29.202l19.155 107.152h-24.283l-13.031-82.666h-.837zm5.547-42.118h57.358l-3.036 17.684h-57.358z"/><path fill="#1282BD" d="m754.59 205.889 17.794-107.152h42.285q12.141 0 19.94 4.657 7.849 4.604 10.989 12.818 3.193 8.163 1.466 18.835-1.778 10.727-7.746 18.888-5.913 8.11-15.386 12.662-9.472 4.551-21.875 4.551h-26.952l2.983-18.155h23.289q6.594 0 11.251-2.249 4.71-2.302 7.484-6.331 2.774-4.082 3.611-9.366.89-5.388-.577-9.365-1.464-3.977-5.39-6.174-3.871-2.249-10.414-2.249H792.06l-14.809 88.63zm101.515 0h-24.283l54.792-107.152h29.203l19.154 107.152h-24.282l-13.031-82.666h-.837zm5.547-42.118h57.358l-3.036 17.684h-57.358zm83.694-46.355 3.14-18.679h88.024l-3.14 18.679h-32.81l-14.655 88.473h-22.398l14.652-88.473zm87.874 88.473 17.79-107.152h42.28c8.1 0 14.76 1.43 20 4.291 5.26 2.86 8.96 6.923 11.09 12.19 2.16 5.232 2.67 11.406 1.52 18.522-1.19 7.115-3.75 13.219-7.69 18.312-3.91 5.092-9.01 9.016-15.29 11.772-6.24 2.72-13.48 4.08-21.71 4.08h-28.32l3.14-18.207h24.6c4.33 0 8.02-.593 11.09-1.779s5.5-2.964 7.28-5.336c1.81-2.372 3-5.32 3.56-8.842q.885-5.39-.63-8.999c-1.01-2.442-2.85-4.291-5.5-5.546-2.65-1.291-6.14-1.936-10.46-1.936h-15.28l-14.82 88.63zm65.93-48.762 18.58 48.762h-25.01l-18-48.762zm72.09-58.39-17.79 107.152h-22.66l17.79-107.152zm19.33 107.152h-24.28l54.79-107.152h29.2l19.16 107.152h-24.29l-13.03-82.666h-.84zm5.55-42.118h57.35l-3.03 17.684h-57.36z"/><path fill="currentColor" d="m829.803 268.222 6.388-38.465h13q4.508 0 7.139 1.522 2.65 1.522 3.587 4.188.959 2.666.395 6.086-.564 3.38-2.405 6.009-1.823 2.63-4.959 4.132-3.118 1.502-7.59 1.502h-10.52l.752-4.206h10.369q3.081 0 5.111-.901 2.029-.902 3.155-2.573 1.127-1.673 1.504-3.963.375-2.33-.208-4.038-.562-1.73-2.311-2.668c-1.15-.638-2.768-.957-4.846-.957h-8.19l-5.712 34.332zm20.966-17.279 6.613 17.279h-5.411l-6.462-17.279zm23.986 17.88q-4.152 0-6.859-1.84-2.703-1.858-3.775-5.185-1.071-3.341-.338-7.775.732-4.432 2.912-7.812 2.18-3.401 5.43-5.296 3.249-1.918 7.138-1.918 2.255.001 4.34.752a8.8 8.8 0 0 1 3.607 2.442q1.522 1.672 2.123 4.432.601 2.762-.075 6.8l-.301 1.877h-22.243l.6-3.83h17.736q.431-2.443-.227-4.358-.638-1.916-2.235-3.024-1.578-1.109-4.002-1.109-2.496 0-4.659 1.353a12.3 12.3 0 0 0-3.607 3.381q-1.445 2.028-1.802 4.133l-.527 3.305q-.564 3.587.17 5.708.752 2.123 2.611 3.062 1.859.92 4.659.92 1.783 0 3.288-.487a8.2 8.2 0 0 0 2.686-1.504q1.183-1.014 1.992-2.516l4.056 1.202q-1.032 2.178-2.911 3.832-1.86 1.632-4.359 2.554-2.48.901-5.428.901m29.729 0q-3.626 0-6.087-1.821-2.46-1.842-3.475-5.185-.997-3.36-.246-7.945.77-4.544 2.876-7.888 2.123-3.343 5.203-5.164 3.081-1.822 6.727-1.823 2.817 0 4.302.941 1.501.92 2.178 2.102.678 1.165 1.034 1.916h.376l2.367-14.199h4.433l-6.387 38.465h-4.283l.75-4.433h-.525q-.62.79-1.729 1.991-1.107 1.184-2.93 2.123-1.803.92-4.584.92m1.09-3.982q2.668 0 4.771-1.39 2.122-1.409 3.531-3.887 1.41-2.498 1.954-5.765.546-3.233-.036-5.654-.583-2.443-2.237-3.795-1.652-1.371-4.376-1.371-2.8.001-4.867 1.447-2.065 1.428-3.363 3.887-1.295 2.443-1.802 5.486-.508 3.079-.019 5.596.487 2.497 2.067 3.982 1.594 1.465 4.377 1.464m46.645 3.982q-3.625 0-6.085-1.821-2.462-1.842-3.477-5.185-.995-3.36-.243-7.945.77-4.544 2.873-7.888 2.124-3.343 5.206-5.164 3.08-1.822 6.724-1.823 2.82 0 4.302.941 1.504.92 2.18 2.102.676 1.165 1.034 1.916h.374l2.367-14.199h4.435l-6.388 38.465h-4.284l.752-4.433h-.527q-.618.79-1.727 1.991-1.107 1.184-2.93 2.123-1.804.92-4.586.92m1.091-3.982q2.667 0 4.772-1.39 2.123-1.409 3.531-3.887 1.409-2.498 1.954-5.765.545-3.233-.038-5.654-.581-2.443-2.235-3.795-1.653-1.371-4.378-1.371-2.797.001-4.865 1.447-2.065 1.428-3.363 3.887-1.295 2.443-1.802 5.486-.509 3.079-.019 5.596.488 2.497 2.065 3.982 1.598 1.465 4.378 1.464m32.933 3.982q-4.152 0-6.858-1.84-2.704-1.858-3.775-5.185-1.072-3.341-.338-7.775.731-4.432 2.911-7.812 2.18-3.401 5.428-5.296 3.252-1.918 7.141-1.918 2.253.001 4.339.752a8.8 8.8 0 0 1 3.607 2.442q1.522 1.672 2.122 4.432c.4 1.841.38 4.108-.07 6.8l-.3 1.877h-22.248l.601-3.83h17.734q.433-2.443-.225-4.358-.639-1.916-2.235-3.024-1.58-1.109-4.002-1.109-2.499 0-4.659 1.353a12.25 12.25 0 0 0-3.607 3.381q-1.447 2.028-1.804 4.133l-.526 3.305q-.563 3.587.169 5.708.751 2.123 2.613 3.062 1.859.92 4.657.92 1.785 0 3.289-.487a8.2 8.2 0 0 0 2.685-1.504q1.184-1.014 1.991-2.516l4.059 1.202a11.8 11.8 0 0 1-2.912 3.832q-1.859 1.632-4.358 2.554-2.481.901-5.429.901m51.407-29.45-.6 3.757h-15.55l.6-3.757zm-15.7 28.849 5.48-32.831c.25-1.652.85-3.029 1.81-4.131a9.1 9.1 0 0 1 3.43-2.48q2.01-.824 4.08-.825 1.635 0 2.61.262c.66.176 1.15.339 1.45.49l-1.88 3.83q-.345-.113-.9-.281c-.37-.113-.87-.17-1.51-.17-1.46 0-2.58.37-3.34 1.109-.76.738-1.28 1.821-1.54 3.249l-5.26 31.778zm24.69.676c-1.82 0-3.43-.343-4.8-1.033-1.38-.701-2.4-1.709-3.07-3.024q-.99-1.99-.54-4.807c.29-1.653.84-2.994 1.67-4.02a8.9 8.9 0 0 1 3.01-2.442 15.7 15.7 0 0 1 3.83-1.334q2.07-.449 4.11-.695c1.78-.224 3.23-.4 4.34-.525q1.68-.187 2.52-.619c.56-.289.91-.782 1.03-1.485v-.149c.31-1.842.06-3.276-.73-4.301-.79-1.039-2.2-1.559-4.22-1.559q-3.165 0-5.28 1.389c-1.42.927-2.47 1.917-3.14 2.967l-3.91-1.501c1.03-1.753 2.25-3.119 3.68-4.096 1.43-.987 2.93-1.677 4.49-2.064q2.355-.603 4.53-.603c.93 0 1.97.114 3.14.338q1.74.32 3.27 1.334t2.31 3.062c.52 1.366.6 3.192.22 5.485l-3.15 19.006h-4.44l.68-3.906h-.23c-.4.625-1.01 1.296-1.84 2.01-.81.714-1.84 1.32-3.1 1.821q-1.86.75-4.38.751m1.28-3.981c1.76 0 3.29-.344 4.61-1.034 1.32-.687 2.39-1.577 3.19-2.667.81-1.09 1.32-2.234 1.52-3.436l.68-4.057c-.23.225-.67.433-1.34.62q-.99.263-2.25.47-1.245.188-2.43.338c-.77.087-1.4.163-1.87.225-1.18.149-2.3.395-3.37.733-1.05.325-1.94.82-2.66 1.483-.72.651-1.16 1.539-1.34 2.667q-.39 2.31 1.11 3.494c1 .776 2.39 1.164 4.15 1.164m20.12 3.305 4.81-28.849h4.28l-.75 4.358h.3c.75-1.428 1.9-2.586 3.44-3.474s3.17-1.333 4.9-1.333c.34 0 .75.005 1.22.019q.72 0 1.11.054l-.75 4.509c-.15-.038-.49-.094-1.01-.17-.53-.087-1.1-.13-1.7-.13-1.4 0-2.69.293-3.88.882a8.35 8.35 0 0 0-2.99 2.404 7.6 7.6 0 0 0-1.54 3.474l-3.01 18.256zm19.79 0 4.8-28.849h4.29l-.75 4.509h.37c.87-1.541 2.04-2.737 3.52-3.589 1.49-.863 3.17-1.296 5.05-1.296q2.82 0 4.53 1.296c1.14.852 1.93 2.048 2.38 3.589h.3c.98-1.504 2.28-2.694 3.91-3.57 1.64-.876 3.49-1.315 5.56-1.315 2.56 0 4.52.809 5.9 2.424 1.39 1.615 1.8 4.114 1.24 7.493l-3.23 19.308h-4.43l3.23-19.308q.51-3.211-1.02-4.564-1.5-1.371-3.87-1.371-3.045 0-5.01 1.823-1.98 1.82-2.43 4.639l-3.15 18.781h-4.51l3.3-19.758c.27-1.652-.05-2.98-.94-3.981-.88-1.001-2.17-1.504-3.86-1.504q-1.74 0-3.39.941c-1.1.612-2.04 1.464-2.83 2.554q-1.185 1.613-1.53 3.719l-3 18.029zm54.39.676c-1.83 0-3.43-.343-4.81-1.033-1.37-.701-2.4-1.709-3.06-3.024q-.99-1.99-.54-4.807c.28-1.653.84-2.994 1.67-4.02a8.86 8.86 0 0 1 3-2.442 15.6 15.6 0 0 1 3.84-1.334q2.055-.449 4.11-.695c1.78-.224 3.22-.4 4.34-.525q1.665-.187 2.52-.619c.56-.289.9-.782 1.03-1.485v-.149c.3-1.842.06-3.276-.73-4.301q-1.185-1.559-4.23-1.559-3.15 0-5.28 1.389c-1.41.927-2.46 1.917-3.14 2.967l-3.9-1.501c1.02-1.753 2.25-3.119 3.68-4.096 1.43-.987 2.92-1.677 4.49-2.064q2.34-.603 4.53-.603c.92 0 1.97.114 3.13.338q1.755.32 3.27 1.334 1.545 1.015 2.31 3.062c.53 1.366.6 3.192.23 5.485l-3.16 19.006h-4.43l.67-3.906h-.22c-.4.625-1.02 1.296-1.84 2.01-.81.714-1.85 1.32-3.1 1.821q-1.86.75-4.38.751m1.28-3.981c1.75 0 3.29-.344 4.6-1.034 1.33-.687 2.39-1.577 3.2-2.667s1.32-2.234 1.52-3.436l.67-4.057c-.22.225-.67.433-1.33.62-.66.175-1.42.332-2.25.47q-1.245.188-2.43.338c-.78.087-1.4.163-1.88.225q-1.755.225-3.36.733-1.575.488-2.67 1.483c-.71.651-1.16 1.539-1.33 2.667q-.39 2.31 1.11 3.494c1 .776 2.38 1.164 4.15 1.164m31.76 3.906q-4.08 0-6.69-1.915c-1.72-1.277-2.93-3.038-3.6-5.278q-1.02-3.363-.3-7.682c.47-2.93 1.44-5.516 2.89-7.756q2.175-3.382 5.43-5.277c2.17-1.279 4.55-1.918 7.16-1.918 2.03 0 3.79.376 5.29 1.128q2.265 1.129 3.48 3.154c.81 1.353 1.2 2.932 1.15 4.734h-4.44c-.12-1.315-.69-2.478-1.69-3.493-.99-1.027-2.45-1.541-4.39-1.541-1.73 0-3.32.452-4.78 1.353q-2.175 1.333-3.66 3.775-1.485 2.422-2.01 5.692-.555 3.343.09 5.821c.44 1.653 1.24 2.936 2.39 3.85s2.61 1.371 4.36 1.371c1.15 0 2.23-.2 3.23-.601q1.5-.6 2.67-1.728a8.3 8.3 0 0 0 1.84-2.705h4.43a12.7 12.7 0 0 1-2.65 4.603q-1.815 2.028-4.41 3.23-2.595 1.183-5.79 1.183m17.91-.601 4.8-28.849h4.44l-4.81 28.849zm8.37-33.732c-.86 0-1.6-.294-2.23-.882-.62-.589-.92-1.295-.92-2.123 0-.825.3-1.534.92-2.121a3.15 3.15 0 0 1 2.23-.884q1.305 0 2.22.884c.63.587.94 1.296.94 2.121 0 .828-.31 1.534-.94 2.123q-.915.882-2.22.882m12.6 34.408c-1.83 0-3.43-.343-4.81-1.033q-2.07-1.052-3.06-3.024c-.67-1.326-.85-2.93-.55-4.807.29-1.653.85-2.994 1.67-4.02a8.9 8.9 0 0 1 3.01-2.442 15.7 15.7 0 0 1 3.83-1.334q2.07-.449 4.11-.695c1.78-.224 3.23-.4 4.34-.525q1.68-.187 2.52-.619c.57-.289.91-.782 1.03-1.485v-.149c.3-1.842.06-3.276-.73-4.301q-1.185-1.559-4.23-1.559c-2.1 0-3.86.463-5.27 1.389-1.42.927-2.46 1.917-3.14 2.967l-3.91-1.501c1.03-1.753 2.26-3.119 3.68-4.096 1.43-.987 2.93-1.677 4.49-2.064q2.355-.603 4.53-.603c.93 0 1.97.114 3.14.338q1.74.32 3.27 1.334t2.31 3.062c.52 1.366.6 3.192.22 5.485l-3.15 19.006H1223l.68-3.906h-.22c-.41.625-1.02 1.296-1.85 2.01-.81.714-1.84 1.32-3.1 1.821-1.24.5-2.7.751-4.37.751m1.27-3.981c1.76 0 3.29-.344 4.61-1.034 1.32-.687 2.39-1.577 3.19-2.667.81-1.09 1.32-2.234 1.52-3.436l.68-4.057c-.23.225-.67.433-1.34.62q-.99.263-2.25.47c-.83.125-1.63.238-2.42.338-.78.087-1.41.163-1.88.225q-1.77.225-3.36.733-1.59.488-2.67 1.483c-.72.651-1.16 1.539-1.34 2.667q-.39 2.31 1.11 3.494c1 .776 2.39 1.164 4.15 1.164m44.32-19.082-4.21 1.126a6.7 6.7 0 0 0-.79-1.953c-.36-.639-.93-1.158-1.69-1.559-.75-.413-1.78-.619-3.08-.619-1.77 0-3.3.406-4.61 1.22-1.3.801-2.04 1.823-2.23 3.062q-.285 1.634.75 2.61c.69.652 1.84 1.183 3.46 1.597l4.13 1.052c2.48.638 4.25 1.596 5.3 2.873 1.06 1.265 1.43 2.91 1.09 4.939q-.42 2.48-2.16 4.433-1.755 1.953-4.47 3.081c-1.82.75-3.84 1.126-6.07 1.126-2.97 0-5.31-.639-7.03-1.915-1.71-1.291-2.63-3.155-2.74-5.597l4.43-1.052c.11 1.539.67 2.705 1.66 3.494q1.5 1.164 4.2 1.164c2.07 0 3.79-.439 5.17-1.315 1.38-.89 2.16-1.953 2.35-3.192q.285-1.523-.6-2.537c-.58-.676-1.58-1.182-3.01-1.521l-4.58-1.127c-2.56-.639-4.35-1.615-5.38-2.93-1.01-1.315-1.35-2.967-1.01-4.958a8.53 8.53 0 0 1 2.1-4.32q1.71-1.878 4.29-2.949c1.73-.714 3.6-1.071 5.63-1.071 2.86 0 4.99.627 6.41 1.88 1.42 1.239 2.31 2.892 2.69 4.958"/></symbol>
</svg>
