<svg xmlns="http://www.w3.org/2000/svg" viewBox="0 0 1140 240">
		<path
			d="M66.1772 144.265C66.1762 144.248 66.1762 144.23 66.1772 144.212V99.7059C66.1772 99.7059 143.693 48.5294 153.088 69.2647C162.484 90 219.707 28.2353 219.707 28.2353V75.8824C198.53 99.7059 160.588 120.882 159.706 111.176C159.706 86.9907 66.4813 138.698 66.1772 144.212V144.265Z"
			fill="#DCB706"
		/>
		<path
			d="M162.794 145.588C159.265 161.912 203.894 150.009 220.588 126.176V75.4412C220.588 75.4412 169.101 126.618 159.706 105.882C150.31 85.147 66.1771 142.5 66.1771 142.5L67.0589 196.765C67.3631 191.235 162.794 121.398 162.794 145.588Z"
			fill="#3FA8DB"
		/>
		<path
			d="M210.254 99.4332C209.99 98.6206 208.84 98.6206 208.576 99.4332L207.236 103.557C207.117 103.921 206.779 104.167 206.396 104.167H202.061C201.206 104.167 200.85 105.26 201.542 105.763L205.05 108.311C205.359 108.536 205.489 108.934 205.37 109.298L204.031 113.422C203.766 114.235 204.697 114.911 205.388 114.409L208.896 111.86C209.206 111.635 209.624 111.635 209.934 111.86L213.441 114.409C214.133 114.911 215.064 114.235 214.799 113.422L213.46 109.298C213.341 108.934 213.47 108.536 213.78 108.311L217.288 105.763C217.979 105.26 217.624 104.167 216.769 104.167H212.434C212.051 104.167 211.712 103.921 211.594 103.557L210.254 99.4332Z"
			fill="#FDFDFD"
		/>
		<path
			d="M194.458 114.433C194.722 113.621 195.873 113.621 196.136 114.433L197.477 118.557C197.594 118.921 197.933 119.167 198.316 119.167H202.652C203.507 119.167 203.861 120.26 203.171 120.763L199.662 123.311C199.353 123.536 199.224 123.934 199.342 124.298L200.681 128.422C200.946 129.235 200.015 129.911 199.324 129.409L195.816 126.86C195.506 126.635 195.088 126.635 194.779 126.86L191.27 129.409C190.579 129.911 189.649 129.235 189.913 128.422L191.253 124.298C191.371 123.934 191.241 123.536 190.932 123.311L187.424 120.763C186.732 120.26 187.088 119.167 187.943 119.167H192.279C192.661 119.167 193 118.921 193.118 118.557L194.458 114.433Z"
			fill="#FDFDFD"
		/>
		<path
			d="M156.517 116.198C156.781 115.385 157.931 115.385 158.195 116.198L159.536 120.322C159.653 120.686 159.992 120.932 160.375 120.932H164.711C165.566 120.932 165.92 122.025 165.229 122.528L161.721 125.076C161.411 125.301 161.283 125.699 161.401 126.063L162.74 130.187C163.005 130.999 162.074 131.675 161.382 131.173L157.875 128.625C157.565 128.4 157.147 128.4 156.837 128.625L153.329 131.173C152.638 131.675 151.707 130.999 151.972 130.187L153.311 126.063C153.43 125.699 153.3 125.301 152.991 125.076L149.483 122.528C148.791 122.025 149.147 120.932 150.002 120.932H154.338C154.72 120.932 155.059 120.686 155.177 120.322L156.517 116.198Z"
			fill="#FDFDFD"
		/>
		<path
			d="M136.136 122.374C135.873 121.562 134.722 121.562 134.458 122.374L133.118 126.499C133 126.862 132.661 127.108 132.279 127.108H127.943C127.088 127.108 126.732 128.201 127.424 128.704L130.932 131.253C131.241 131.478 131.371 131.876 131.253 132.239L129.913 136.363C129.649 137.176 130.579 137.852 131.27 137.35L134.779 134.801C135.088 134.576 135.506 134.576 135.816 134.801L139.324 137.35C140.015 137.852 140.946 137.176 140.681 136.363L139.342 132.239C139.224 131.876 139.353 131.478 139.662 131.253L143.171 128.704C143.861 128.201 143.507 127.108 142.652 127.108H138.316C137.933 127.108 137.594 126.862 137.477 126.499L136.136 122.374Z"
			fill="#FDFDFD"
		/>
		<path
			d="M114.164 130.316C114.428 129.503 115.579 129.503 115.842 130.316L117.183 134.44C117.3 134.803 117.639 135.049 118.022 135.049H122.358C123.213 135.049 123.567 136.143 122.876 136.646L119.368 139.194C119.059 139.419 118.93 139.817 119.048 140.18L120.387 144.304C120.652 145.117 119.721 145.793 119.029 145.291L115.522 142.743C115.212 142.518 114.794 142.518 114.484 142.743L110.976 145.291C110.285 145.793 109.354 145.117 109.619 144.304L110.959 140.18C111.077 139.817 110.947 139.419 110.638 139.194L107.13 136.646C106.438 136.143 106.794 135.049 107.649 135.049H111.985C112.367 135.049 112.706 134.803 112.824 134.44L114.164 130.316Z"
			fill="#FDFDFD"
		/>
		<path
			d="M98.1953 145.316C97.9315 144.503 96.7809 144.503 96.5171 145.316L95.1768 149.44C95.0585 149.803 94.7197 150.049 94.3377 150.049H90.0018C89.1468 150.049 88.7912 151.143 89.483 151.646L92.9912 154.194C93.3 154.419 93.4297 154.817 93.3115 155.18L91.9721 159.304C91.7074 160.117 92.6383 160.793 93.3291 160.291L96.8374 157.743C97.1471 157.518 97.5653 157.518 97.875 157.743L101.382 160.291C102.074 160.793 103.005 160.117 102.74 159.304L101.401 155.18C101.283 154.817 101.411 154.419 101.721 154.194L105.229 151.646C105.92 151.143 105.566 150.049 104.711 150.049H100.375C99.9918 150.049 99.653 149.803 99.5356 149.44L98.1953 145.316Z"
			fill="#FDFDFD"
		/>
		<path
			d="M79.6658 154.139C79.4017 153.326 78.2516 153.326 77.9874 154.139L76.6475 158.263C76.5294 158.627 76.1906 158.873 75.8084 158.873H71.4722C70.6175 158.873 70.2621 159.966 70.9536 160.469L74.4617 163.017C74.7708 163.242 74.9003 163.64 74.7822 164.004L73.4422 168.128C73.1781 168.941 74.1085 169.617 74.8 169.114L78.308 166.566C78.6173 166.341 79.036 166.341 79.3453 166.566L82.8533 169.114C83.5448 169.617 84.4752 168.941 84.211 168.128L82.8711 164.004C82.753 163.64 82.8825 163.242 83.1916 163.017L86.6997 160.469C87.3912 159.966 87.0358 158.873 86.1811 158.873H81.8449C81.4627 158.873 81.1239 158.627 81.0058 158.263L79.6658 154.139Z"
			fill="#FDFDFD"
		/>
		<path
			d="M176.725 122.374C176.461 121.562 175.31 121.562 175.046 122.374L173.706 126.499C173.588 126.862 173.249 127.108 172.867 127.108H168.531C167.676 127.108 167.321 128.201 168.012 128.704L171.521 131.253C171.829 131.478 171.959 131.876 171.841 132.239L170.501 136.363C170.237 137.176 171.168 137.852 171.859 137.35L175.367 134.801C175.676 134.576 176.095 134.576 176.404 134.801L179.912 137.35C180.604 137.852 181.534 137.176 181.27 136.363L179.93 132.239C179.812 131.876 179.941 131.478 180.251 131.253L183.759 128.704C184.45 128.201 184.095 127.108 183.24 127.108H178.904C178.521 127.108 178.182 126.862 178.065 126.499L176.725 122.374Z"
			fill="#FDFDFD"
		/>
		<path
			d="M67.0588 211.324V194.559C103.076 163.912 166.652 126.182 163.676 143.824C160.701 161.465 215.601 141.288 221.029 125.294V177.353C189.087 197.074 166.825 190.15 167.647 180C168.469 169.85 126.561 188.143 110.294 211.324H67.0588Z"
			fill="#DF281E"
		/>
		<path
			d="M296.556 94.9597C296.291 94.1453 295.939 93.4165 295.504 92.7715C295.078 92.1185 294.566 91.5626 293.97 91.1038C293.382 90.6441 292.714 90.2938 291.964 90.0521C291.215 89.8103 290.394 89.6894 289.499 89.6894C288.034 89.6894 286.7 90.0679 285.499 90.8259C284.299 91.5829 283.345 92.6991 282.636 94.1735C281.927 95.6488 281.572 97.4576 281.572 99.6018C281.572 101.745 281.931 103.555 282.648 105.029C283.365 106.504 284.336 107.62 285.56 108.378C286.784 109.135 288.162 109.514 289.692 109.514C291.11 109.514 292.359 109.211 293.439 108.607C294.526 107.995 295.372 107.133 295.976 106.02C296.588 104.9 296.894 103.583 296.894 102.068L297.813 102.261H290.369V99.6018H299.794V102.261C299.794 104.299 299.359 106.073 298.489 107.58C297.627 109.087 296.435 110.255 294.912 111.086C293.398 111.907 291.658 112.318 289.692 112.318C287.501 112.318 285.576 111.803 283.916 110.771C282.266 109.739 280.976 108.273 280.05 106.371C279.131 104.469 278.673 102.213 278.673 99.6018C278.673 97.6429 278.934 95.8826 279.458 94.3191C279.989 92.7476 280.738 91.41 281.705 90.3053C282.672 89.2015 283.816 88.3553 285.137 87.7671C286.459 87.1788 287.913 86.8847 289.499 86.8847C290.804 86.8847 292.021 87.0821 293.149 87.477C294.284 87.8638 295.295 88.4162 296.181 89.1335C297.076 89.8421 297.821 90.6926 298.417 91.6835C299.013 92.6665 299.424 93.7588 299.65 94.9597H296.556Z"
			fill="#878889"
		/>
		<path
			d="M312.08 112.367C310.405 112.367 308.935 111.968 307.67 111.17C306.413 110.372 305.43 109.256 304.721 107.822C304.021 106.387 303.671 104.711 303.671 102.793C303.671 100.859 304.021 99.1703 304.721 97.7276C305.43 96.285 306.413 95.1653 307.67 94.3676C308.935 93.5691 310.405 93.1703 312.08 93.1703C313.756 93.1703 315.222 93.5691 316.479 94.3676C317.743 95.1653 318.726 96.285 319.428 97.7276C320.136 99.1703 320.491 100.859 320.491 102.793C320.491 104.711 320.136 106.387 319.428 107.822C318.726 109.256 317.743 110.372 316.479 111.17C315.222 111.968 313.756 112.367 312.08 112.367ZM312.08 109.804C313.354 109.804 314.401 109.478 315.222 108.825C316.044 108.172 316.652 107.314 317.047 106.25C317.441 105.186 317.639 104.034 317.639 102.793C317.639 101.552 317.441 100.395 317.047 99.3238C316.652 98.2518 316.044 97.3853 315.222 96.7244C314.401 96.0635 313.354 95.7335 312.08 95.7335C310.808 95.7335 309.761 96.0635 308.939 96.7244C308.117 97.3853 307.509 98.2518 307.114 99.3238C306.719 100.395 306.522 101.552 306.522 102.793C306.522 104.034 306.719 105.186 307.114 106.25C307.509 107.314 308.117 108.172 308.939 108.825C309.761 109.478 310.808 109.804 312.08 109.804Z"
			fill="#878889"
		/>
		<path
			d="M325.23 111.98V87.2231H328.082V96.3618H328.324C328.534 96.0397 328.823 95.6285 329.194 95.1291C329.572 94.6209 330.112 94.17 330.813 93.7747C331.522 93.3724 332.48 93.1703 333.689 93.1703C335.252 93.1703 336.629 93.5612 337.821 94.3429C339.014 95.1247 339.944 96.2329 340.613 97.6676C341.282 99.1015 341.615 100.794 341.615 102.745C341.615 104.711 341.282 106.415 340.613 107.858C339.944 109.293 339.018 110.404 337.834 111.194C336.649 111.976 335.284 112.367 333.738 112.367C332.545 112.367 331.59 112.169 330.874 111.775C330.156 111.371 329.605 110.916 329.218 110.409C328.831 109.893 328.534 109.466 328.324 109.127H327.986V111.98H325.23ZM328.034 102.696C328.034 104.098 328.239 105.335 328.65 106.407C329.061 107.471 329.661 108.305 330.451 108.91C331.24 109.506 332.207 109.804 333.35 109.804C334.543 109.804 335.538 109.489 336.335 108.861C337.141 108.224 337.745 107.37 338.148 106.299C338.559 105.219 338.764 104.018 338.764 102.696C338.764 101.39 338.562 100.214 338.16 99.1668C337.765 98.1106 337.165 97.2768 336.359 96.6644C335.561 96.0432 334.559 95.7335 333.35 95.7335C332.191 95.7335 331.216 96.0274 330.426 96.6159C329.636 97.1956 329.041 98.01 328.638 99.0574C328.235 100.097 328.034 101.31 328.034 102.696Z"
			fill="#878889"
		/>
		<path
			d="M345.978 111.98V93.4121H348.829V111.98H345.978ZM347.428 90.3176C346.872 90.3176 346.392 90.1279 345.99 89.7494C345.596 89.3709 345.398 88.9156 345.398 88.3835C345.398 87.8517 345.596 87.3964 345.99 87.0176C346.392 86.6389 346.872 86.4495 347.428 86.4495C347.984 86.4495 348.459 86.6389 348.854 87.0176C349.256 87.3964 349.458 87.8517 349.458 88.3835C349.458 88.9156 349.256 89.3709 348.854 89.7494C348.459 90.1279 347.984 90.3176 347.428 90.3176Z"
			fill="#878889"
		/>
		<path
			d="M361.834 112.367C360.046 112.367 358.504 111.971 357.206 111.182C355.917 110.384 354.923 109.272 354.222 107.846C353.529 106.411 353.183 104.743 353.183 102.841C353.183 100.939 353.529 99.2629 354.222 97.8123C354.923 96.3538 355.897 95.2173 357.146 94.4038C358.403 93.5815 359.869 93.1703 361.545 93.1703C362.511 93.1703 363.466 93.3318 364.408 93.6538C365.351 93.9768 366.209 94.5 366.982 95.2253C367.756 95.9426 368.372 96.8938 368.831 98.0788C369.29 99.2629 369.52 100.721 369.52 102.454V103.663H355.212V101.197H366.619C366.619 100.15 366.41 99.2144 365.991 98.3929C365.581 97.5706 364.992 96.9221 364.227 96.4465C363.47 95.9709 362.576 95.7335 361.545 95.7335C360.409 95.7335 359.426 96.015 358.596 96.5797C357.775 97.1356 357.142 97.8609 356.699 98.7556C356.256 99.6503 356.035 100.609 356.035 101.632V103.277C356.035 104.679 356.276 105.867 356.759 106.842C357.251 107.809 357.932 108.547 358.802 109.054C359.672 109.554 360.683 109.804 361.834 109.804C362.584 109.804 363.26 109.699 363.865 109.489C364.477 109.272 365.005 108.949 365.448 108.522C365.891 108.087 366.233 107.547 366.475 106.903L369.229 107.676C368.94 108.611 368.452 109.433 367.767 110.142C367.083 110.844 366.237 111.392 365.23 111.786C364.223 112.174 363.091 112.367 361.834 112.367Z"
			fill="#878889"
		/>
		<path
			d="M373.857 111.98V93.4121H376.613V96.2171H376.806C377.144 95.2985 377.756 94.5529 378.643 93.9803C379.529 93.4085 380.528 93.1227 381.64 93.1227C381.849 93.1227 382.111 93.1262 382.425 93.1341C382.739 93.1421 382.976 93.1544 383.138 93.1703V96.0715C383.041 96.0476 382.819 96.0115 382.474 95.9629C382.135 95.9065 381.776 95.8782 381.398 95.8782C380.495 95.8782 379.69 96.0679 378.981 96.4465C378.281 96.8171 377.725 97.3332 377.314 97.9941C376.911 98.6462 376.709 99.3918 376.709 100.23V111.98H373.857Z"
			fill="#878889"
		/>
		<path
			d="M389.37 100.811V111.98H386.518V93.412H389.273V96.3132H389.515C389.95 95.3709 390.611 94.6129 391.496 94.0412C392.383 93.4606 393.527 93.1703 394.929 93.1703C396.185 93.1703 397.285 93.4288 398.227 93.9441C399.169 94.4523 399.903 95.2253 400.427 96.2656C400.95 97.297 401.212 98.6021 401.212 100.181V111.98H398.36V100.376C398.36 98.9162 397.982 97.7806 397.225 96.9662C396.467 96.1447 395.428 95.7335 394.106 95.7335C393.197 95.7335 392.383 95.9303 391.666 96.3256C390.957 96.7209 390.397 97.297 389.986 98.0541C389.576 98.812 389.37 99.7306 389.37 100.811Z"
			fill="#878889"
		/>
		<path
			d="M413.963 112.367C412.287 112.367 410.817 111.968 409.553 111.17C408.296 110.372 407.314 109.256 406.604 107.822C405.904 106.387 405.553 104.711 405.553 102.793C405.553 100.859 405.904 99.1703 406.604 97.7276C407.314 96.285 408.296 95.1653 409.553 94.3676C410.817 93.5691 412.287 93.1703 413.963 93.1703C415.639 93.1703 417.105 93.5691 418.361 94.3676C419.626 95.1653 420.609 96.285 421.31 97.7276C422.019 99.1703 422.374 100.859 422.374 102.793C422.374 104.711 422.019 106.387 421.31 107.822C420.609 109.256 419.626 110.372 418.361 111.17C417.105 111.968 415.639 112.367 413.963 112.367ZM413.963 109.804C415.236 109.804 416.284 109.478 417.105 108.825C417.926 108.172 418.534 107.314 418.93 106.25C419.324 105.186 419.522 104.034 419.522 102.793C419.522 101.552 419.324 100.395 418.93 99.3238C418.534 98.2518 417.926 97.3853 417.105 96.7244C416.284 96.0635 415.236 95.7335 413.963 95.7335C412.691 95.7335 411.643 96.0635 410.822 96.7244C409.999 97.3853 409.391 98.2518 408.997 99.3238C408.602 100.395 408.405 101.552 408.405 102.793C408.405 104.034 408.602 105.186 408.997 106.25C409.391 107.314 409.999 108.172 410.822 108.825C411.643 109.478 412.691 109.804 413.963 109.804Z"
			fill="#878889"
		/>
		<path
			d="M286.261 153.701C284.714 153.701 283.349 153.311 282.164 152.529C280.98 151.739 280.054 150.627 279.386 149.193C278.717 147.75 278.382 146.046 278.382 144.079C278.382 142.129 278.717 140.437 279.386 139.002C280.054 137.568 280.984 136.459 282.176 135.678C283.369 134.897 284.747 134.506 286.309 134.506C287.517 134.506 288.472 134.707 289.173 135.11C289.882 135.505 290.422 135.956 290.792 136.464C291.171 136.963 291.465 137.374 291.674 137.696H291.916V128.558H294.768V153.315H292.013V150.462H291.674C291.465 150.8 291.167 151.227 290.78 151.744C290.394 152.251 289.841 152.706 289.125 153.109C288.408 153.504 287.453 153.701 286.261 153.701ZM286.647 151.139C287.792 151.139 288.758 150.841 289.548 150.244C290.337 149.64 290.937 148.806 291.348 147.742C291.759 146.67 291.964 145.433 291.964 144.031C291.964 142.645 291.763 141.432 291.36 140.392C290.958 139.345 290.361 138.531 289.571 137.951C288.783 137.362 287.808 137.068 286.647 137.068C285.439 137.068 284.432 137.379 283.627 137.999C282.829 138.611 282.229 139.445 281.826 140.501C281.432 141.549 281.234 142.726 281.234 144.031C281.234 145.353 281.435 146.554 281.839 147.634C282.249 148.706 282.853 149.56 283.651 150.196C284.456 150.825 285.455 151.139 286.647 151.139Z"
			fill="#878889"
		/>
		<path
			d="M308.168 153.701C306.38 153.701 304.837 153.307 303.54 152.517C302.252 151.719 301.256 150.607 300.556 149.18C299.863 147.746 299.516 146.078 299.516 144.176C299.516 142.274 299.863 140.598 300.556 139.147C301.256 137.689 302.231 136.552 303.48 135.739C304.736 134.916 306.203 134.506 307.879 134.506C308.845 134.506 309.799 134.666 310.742 134.989C311.685 135.311 312.543 135.836 313.316 136.561C314.089 137.277 314.705 138.229 315.165 139.414C315.624 140.598 315.853 142.057 315.853 143.789V144.998H301.547V142.532H312.954C312.954 141.484 312.744 140.55 312.325 139.728C311.914 138.905 311.326 138.257 310.561 137.781C309.804 137.306 308.909 137.068 307.879 137.068C306.743 137.068 305.76 137.351 304.93 137.914C304.108 138.47 303.476 139.196 303.033 140.09C302.59 140.985 302.368 141.944 302.368 142.968V144.611C302.368 146.014 302.61 147.202 303.094 148.177C303.585 149.144 304.265 149.882 305.135 150.389C306.005 150.889 307.016 151.139 308.168 151.139C308.918 151.139 309.594 151.034 310.198 150.825C310.811 150.607 311.338 150.285 311.781 149.858C312.224 149.422 312.566 148.882 312.808 148.238L315.564 149.012C315.274 149.946 314.786 150.769 314.102 151.477C313.417 152.179 312.571 152.726 311.564 153.122C310.556 153.508 309.425 153.701 308.168 153.701Z"
			fill="#878889"
		/>
		<path
			d="M331.164 128.558L338.51 149.398H338.801L346.147 128.558H349.289L340.202 153.315H337.108L328.022 128.558H331.164Z"
			fill="#878889"
		/>
		<path
			d="M358.811 153.701C357.022 153.701 355.48 153.307 354.183 152.517C352.894 151.719 351.899 150.607 351.198 149.18C350.505 147.746 350.159 146.078 350.159 144.176C350.159 142.274 350.505 140.598 351.198 139.147C351.899 137.689 352.873 136.552 354.123 135.739C355.379 134.916 356.845 134.506 358.52 134.506C359.487 134.506 360.442 134.666 361.384 134.989C362.327 135.311 363.185 135.836 363.958 136.561C364.731 137.277 365.348 138.229 365.807 139.414C366.266 140.598 366.496 142.057 366.496 143.789V144.998H352.189V142.532H363.596C363.596 141.484 363.386 140.55 362.967 139.728C362.556 138.905 361.969 138.257 361.204 137.781C360.446 137.306 359.552 137.068 358.52 137.068C357.385 137.068 356.402 137.351 355.572 137.914C354.751 138.47 354.118 139.196 353.675 140.09C353.232 140.985 353.011 141.944 353.011 142.968V144.611C353.011 146.014 353.252 147.202 353.735 148.177C354.227 149.144 354.908 149.882 355.778 150.389C356.648 150.889 357.659 151.139 358.811 151.139C359.56 151.139 360.236 151.034 360.841 150.825C361.453 150.607 361.981 150.285 362.424 149.858C362.867 149.422 363.209 148.882 363.451 148.238L366.206 149.012C365.916 149.946 365.428 150.769 364.744 151.477C364.059 152.179 363.214 152.726 362.206 153.122C361.199 153.508 360.067 153.701 358.811 153.701Z"
			fill="#878889"
		/>
		<path
			d="M373.685 142.145V153.315H370.834V134.748H373.589V137.649H373.831C374.266 136.706 374.926 135.948 375.813 135.376C376.699 134.795 377.842 134.506 379.244 134.506C380.501 134.506 381.6 134.764 382.543 135.279C383.486 135.787 384.219 136.561 384.742 137.6C385.265 138.632 385.527 139.937 385.527 141.517V153.315H382.676V141.71C382.676 140.252 382.297 139.115 381.54 138.301C380.783 137.479 379.744 137.068 378.423 137.068C377.512 137.068 376.699 137.266 375.981 137.66C375.273 138.056 374.712 138.632 374.302 139.389C373.891 140.147 373.685 141.065 373.685 142.145Z"
			fill="#878889"
		/>
		<path
			d="M398.52 153.701C396.732 153.701 395.189 153.307 393.892 152.517C392.604 151.719 391.609 150.607 390.908 149.18C390.215 147.746 389.869 146.078 389.869 144.176C389.869 142.274 390.215 140.598 390.908 139.147C391.609 137.689 392.584 136.552 393.832 135.739C395.089 134.916 396.555 134.506 398.231 134.506C399.197 134.506 400.151 134.666 401.094 134.989C402.037 135.311 402.895 135.836 403.668 136.561C404.441 137.277 405.057 138.229 405.517 139.414C405.976 140.598 406.205 142.057 406.205 143.789V144.998H391.899V142.532H403.305C403.305 141.484 403.096 140.55 402.677 139.728C402.266 138.905 401.678 138.257 400.913 137.781C400.156 137.306 399.261 137.068 398.231 137.068C397.094 137.068 396.112 137.351 395.282 137.914C394.46 138.47 393.828 139.196 393.385 140.09C392.942 140.985 392.72 141.944 392.72 142.968V144.611C392.72 146.014 392.962 147.202 393.446 148.177C393.936 149.144 394.617 149.882 395.487 150.389C396.357 150.889 397.369 151.139 398.52 151.139C399.269 151.139 399.946 151.034 400.55 150.825C401.163 150.607 401.69 150.285 402.133 149.858C402.576 149.422 402.919 148.882 403.16 148.238L405.916 149.012C405.626 149.946 405.138 150.769 404.453 151.477C403.768 152.179 402.923 152.726 401.916 153.122C400.909 153.508 399.777 153.701 398.52 153.701Z"
			fill="#878889"
		/>
		<path
			d="M410.012 153.315V151.139L420.549 137.6V137.407H410.35V134.748H424.222V137.02L413.975 150.462V150.656H424.56V153.315H410.012Z"
			fill="#878889"
		/>
		<path
			d="M440.65 145.723V134.748H443.501V153.315H440.65V150.172H440.456C440.021 151.114 439.345 151.916 438.426 152.577C437.508 153.23 436.348 153.557 434.946 153.557C433.786 153.557 432.755 153.303 431.853 152.795C430.951 152.279 430.241 151.505 429.726 150.474C429.211 149.434 428.953 148.125 428.953 146.546V134.748H431.804V146.352C431.804 147.706 432.184 148.786 432.941 149.591C433.706 150.398 434.681 150.8 435.865 150.8C436.573 150.8 437.294 150.619 438.027 150.257C438.769 149.894 439.389 149.337 439.888 148.588C440.396 147.839 440.65 146.884 440.65 145.723Z"
			fill="#878889"
		/>
		<path
			d="M456.507 153.701C454.718 153.701 453.176 153.307 451.879 152.517C450.589 151.719 449.595 150.607 448.894 149.18C448.201 147.746 447.854 146.078 447.854 144.176C447.854 142.274 448.201 140.598 448.894 139.147C449.595 137.689 450.569 136.552 451.818 135.739C453.075 134.916 454.541 134.506 456.216 134.506C457.183 134.506 458.138 134.666 459.08 134.989C460.023 135.311 460.88 135.836 461.654 136.561C462.427 137.277 463.044 138.229 463.503 139.414C463.962 140.598 464.192 142.057 464.192 143.789V144.998H449.884V142.532H461.291C461.291 141.484 461.082 140.55 460.663 139.728C460.252 138.905 459.664 138.257 458.899 137.781C458.142 137.306 457.248 137.068 456.216 137.068C455.081 137.068 454.098 137.351 453.268 137.914C452.446 138.47 451.814 139.196 451.371 140.09C450.927 140.985 450.706 141.944 450.706 142.968V144.611C450.706 146.014 450.948 147.202 451.431 148.177C451.923 149.144 452.604 149.882 453.474 150.389C454.344 150.889 455.354 151.139 456.507 151.139C457.256 151.139 457.932 151.034 458.537 150.825C459.148 150.607 459.676 150.285 460.12 149.858C460.563 149.422 460.905 148.882 461.147 148.238L463.901 149.012C463.611 149.946 463.124 150.769 462.439 151.477C461.755 152.179 460.909 152.726 459.902 153.122C458.895 153.508 457.763 153.701 456.507 153.701Z"
			fill="#878889"
		/>
		<path
			d="M471.381 128.558V153.315H468.529V128.558H471.381Z"
			fill="#878889"
		/>
		<path
			d="M482.066 153.75C480.89 153.75 479.823 153.529 478.864 153.085C477.905 152.634 477.144 151.985 476.58 151.139C476.016 150.285 475.735 149.254 475.735 148.045C475.735 146.981 475.944 146.119 476.363 145.458C476.781 144.789 477.341 144.265 478.042 143.886C478.744 143.508 479.516 143.225 480.363 143.04C481.216 142.847 482.074 142.693 482.936 142.58C484.064 142.436 484.978 142.326 485.679 142.254C486.388 142.174 486.904 142.04 487.226 141.855C487.556 141.67 487.721 141.348 487.721 140.888V140.792C487.721 139.599 487.395 138.672 486.743 138.011C486.098 137.351 485.119 137.02 483.806 137.02C482.445 137.02 481.377 137.318 480.604 137.914C479.831 138.511 479.287 139.147 478.973 139.825L476.266 138.858C476.749 137.729 477.394 136.85 478.199 136.222C479.013 135.585 479.899 135.142 480.858 134.892C481.825 134.635 482.775 134.506 483.709 134.506C484.306 134.506 484.991 134.578 485.764 134.723C486.545 134.86 487.298 135.146 488.023 135.581C488.756 136.016 489.364 136.673 489.848 137.552C490.331 138.431 490.573 139.607 490.573 141.081V153.315H487.721V150.8H487.576C487.383 151.204 487.061 151.634 486.61 152.094C486.159 152.554 485.558 152.944 484.809 153.266C484.06 153.589 483.146 153.75 482.066 153.75ZM482.501 151.188C483.629 151.188 484.579 150.965 485.353 150.522C486.134 150.079 486.723 149.507 487.117 148.806C487.52 148.105 487.721 147.367 487.721 146.594V143.982C487.601 144.128 487.335 144.26 486.924 144.381C486.521 144.494 486.054 144.596 485.522 144.684C484.999 144.764 484.487 144.837 483.987 144.902C483.496 144.958 483.097 145.006 482.791 145.046C482.05 145.144 481.357 145.301 480.713 145.518C480.077 145.728 479.561 146.046 479.166 146.473C478.78 146.892 478.586 147.464 478.586 148.189C478.586 149.18 478.953 149.93 479.686 150.438C480.427 150.937 481.365 151.188 482.501 151.188Z"
			fill="#878889"
		/>
		<path
			d="M451.361 111.98V87.2231H461.269C463.09 87.2231 464.608 87.4931 465.824 88.0331C467.041 88.5732 467.955 89.3224 468.567 90.2815C469.18 91.2326 469.486 92.3285 469.486 93.5691C469.486 94.5362 469.293 95.3868 468.906 96.12C468.519 96.8453 467.988 97.4418 467.311 97.9094C466.642 98.3682 465.877 98.6947 465.015 98.8879V99.1297C465.957 99.1703 466.84 99.4359 467.661 99.9282C468.491 100.42 469.164 101.109 469.679 101.995C470.194 102.874 470.453 103.921 470.453 105.138C470.453 106.451 470.126 107.624 469.474 108.656C468.829 109.679 467.875 110.489 466.61 111.086C465.345 111.682 463.787 111.98 461.934 111.98H451.361ZM456.593 107.701H460.858C462.316 107.701 463.38 107.423 464.048 106.866C464.717 106.302 465.051 105.553 465.051 104.618C465.051 103.933 464.886 103.329 464.556 102.805C464.225 102.281 463.754 101.87 463.142 101.572C462.538 101.274 461.816 101.125 460.979 101.125H456.593V107.701ZM456.593 97.5829H460.472C461.188 97.5829 461.825 97.4576 462.38 97.2079C462.945 96.9503 463.388 96.5876 463.71 96.12C464.04 95.6523 464.205 95.0929 464.205 94.44C464.205 93.5453 463.887 92.8244 463.251 92.2765C462.622 91.7276 461.728 91.4541 460.568 91.4541H456.593V97.5829Z"
			fill="currentColor"
		/>
		<path
			d="M482.147 112.343C480.269 112.343 478.646 111.943 477.277 111.146C475.916 110.34 474.864 109.219 474.123 107.786C473.381 106.343 473.011 104.671 473.011 102.769C473.011 100.85 473.381 99.1747 474.123 97.74C474.864 96.2973 475.916 95.1776 477.277 94.3791C478.646 93.5735 480.269 93.1703 482.147 93.1703C484.024 93.1703 485.643 93.5735 487.004 94.3791C488.374 95.1776 489.429 96.2973 490.17 97.74C490.911 99.1747 491.282 100.85 491.282 102.769C491.282 104.671 490.911 106.343 490.17 107.786C489.429 109.219 488.374 110.34 487.004 111.146C485.643 111.943 484.024 112.343 482.147 112.343ZM482.171 108.354C483.025 108.354 483.738 108.112 484.309 107.629C484.881 107.136 485.313 106.467 485.602 105.621C485.9 104.775 486.049 103.812 486.049 102.732C486.049 101.652 485.9 100.69 485.602 99.8435C485.313 98.9973 484.881 98.3285 484.309 97.8371C483.738 97.3447 483.025 97.0994 482.171 97.0994C481.309 97.0994 480.583 97.3447 479.996 97.8371C479.416 98.3285 478.976 98.9973 478.678 99.8435C478.389 100.69 478.243 101.652 478.243 102.732C478.243 103.812 478.389 104.775 478.678 105.621C478.976 106.467 479.416 107.136 479.996 107.629C480.583 108.112 481.309 108.354 482.171 108.354Z"
			fill="currentColor"
		/>
		<path
			d="M499.776 87.2231V111.98H494.629V87.2231H499.776Z"
			fill="currentColor"
		/>
		<path
			d="M503.9 111.98V93.4121H509.048V111.98H503.9ZM506.486 91.0191C505.721 91.0191 505.064 90.765 504.516 90.2577C503.976 89.7415 503.706 89.1247 503.706 88.4082C503.706 87.6987 503.976 87.0902 504.516 86.5825C505.064 86.0668 505.721 85.8088 506.486 85.8088C507.251 85.8088 507.904 86.0668 508.444 86.5825C508.991 87.0902 509.265 87.6987 509.265 88.4082C509.265 89.1247 508.991 89.7415 508.444 90.2577C507.904 90.765 507.251 91.0191 506.486 91.0191Z"
			fill="currentColor"
		/>
		<path
			d="M530.475 93.412L523.986 111.98H518.186L511.697 93.412H517.135L520.989 106.698H521.182L525.025 93.412H530.475Z"
			fill="currentColor"
		/>
		<path
			d="M537.904 112.331C536.719 112.331 535.663 112.125 534.738 111.714C533.811 111.295 533.078 110.679 532.538 109.864C532.007 109.042 531.74 108.019 531.74 106.794C531.74 105.762 531.93 104.896 532.309 104.195C532.687 103.494 533.202 102.93 533.855 102.503C534.507 102.076 535.249 101.753 536.079 101.536C536.916 101.318 537.794 101.165 538.713 101.076C539.792 100.963 540.662 100.859 541.323 100.762C541.984 100.657 542.463 100.504 542.761 100.302C543.059 100.101 543.208 99.8029 543.208 99.4085V99.3353C543.208 98.5703 542.967 97.9773 542.483 97.5582C542.007 97.1391 541.331 96.93 540.453 96.93C539.526 96.93 538.789 97.1356 538.242 97.5468C537.694 97.9491 537.331 98.4573 537.154 99.0697L532.393 98.6832C532.635 97.5547 533.11 96.5797 533.819 95.7573C534.528 94.9271 535.442 94.2909 536.562 93.8479C537.69 93.3962 538.995 93.1703 540.476 93.1703C541.508 93.1703 542.495 93.2912 543.438 93.5329C544.388 93.7747 545.23 94.1497 545.963 94.6571C546.704 95.1653 547.288 95.8182 547.715 96.6159C548.142 97.4056 548.355 98.3523 548.355 99.4562V111.98H543.474V109.405H543.328C543.031 109.985 542.632 110.497 542.133 110.94C541.633 111.376 541.032 111.718 540.332 111.968C539.631 112.21 538.821 112.331 537.904 112.331ZM539.377 108.776C540.134 108.776 540.803 108.627 541.384 108.329C541.963 108.023 542.419 107.612 542.749 107.096C543.079 106.58 543.244 105.996 543.244 105.343V103.373C543.083 103.478 542.861 103.574 542.579 103.663C542.306 103.744 541.995 103.82 541.649 103.893C541.302 103.957 540.956 104.018 540.61 104.074C540.264 104.123 539.949 104.167 539.667 104.207C539.063 104.296 538.535 104.437 538.084 104.63C537.634 104.824 537.283 105.086 537.033 105.416C536.783 105.739 536.659 106.141 536.659 106.624C536.659 107.326 536.913 107.861 537.42 108.233C537.935 108.596 538.588 108.776 539.377 108.776Z"
			fill="currentColor"
		/>
		<path
			d="M552.349 111.98V93.4121H557.339V96.6521H557.533C557.871 95.4997 558.439 94.6288 559.237 94.0412C560.034 93.4447 560.952 93.1465 561.992 93.1465C562.249 93.1465 562.527 93.1624 562.826 93.195C563.124 93.2268 563.385 93.2709 563.611 93.3274V97.8971C563.369 97.8247 563.035 97.7603 562.608 97.7038C562.181 97.6474 561.791 97.6191 561.436 97.6191C560.679 97.6191 560.002 97.7841 559.406 98.115C558.818 98.4371 558.35 98.888 558.004 99.4685C557.666 100.049 557.497 100.718 557.497 101.475V111.98H552.349Z"
			fill="currentColor"
		/>
		<path
			d="M566.272 111.98V93.4121H571.42V111.98H566.272ZM568.858 91.0191C568.093 91.0191 567.437 90.765 566.889 90.2577C566.349 89.7415 566.079 89.1247 566.079 88.4082C566.079 87.6987 566.349 87.0902 566.889 86.5825C567.437 86.0668 568.093 85.8088 568.858 85.8088C569.623 85.8088 570.276 86.0668 570.816 86.5825C571.363 87.0902 571.638 87.6987 571.638 88.4082C571.638 89.1247 571.363 89.7415 570.816 90.2577C570.276 90.765 569.623 91.0191 568.858 91.0191Z"
			fill="currentColor"
		/>
		<path
			d="M580.836 112.331C579.652 112.331 578.597 112.125 577.67 111.714C576.744 111.295 576.011 110.679 575.471 109.864C574.939 109.042 574.674 108.019 574.674 106.794C574.674 105.762 574.863 104.896 575.241 104.195C575.62 103.494 576.136 102.93 576.788 102.503C577.441 102.076 578.182 101.753 579.011 101.536C579.849 101.318 580.728 101.165 581.645 101.076C582.725 100.963 583.595 100.859 584.255 100.762C584.916 100.657 585.395 100.504 585.694 100.302C585.992 100.101 586.141 99.8029 586.141 99.4085V99.3353C586.141 98.5703 585.899 97.9773 585.416 97.5582C584.94 97.1391 584.264 96.93 583.385 96.93C582.46 96.93 581.722 97.1356 581.174 97.5468C580.626 97.9491 580.264 98.4573 580.087 99.0697L575.326 98.6832C575.568 97.5547 576.043 96.5797 576.752 95.7573C577.46 94.9271 578.375 94.2909 579.495 93.8479C580.623 93.3962 581.928 93.1703 583.41 93.1703C584.441 93.1703 585.428 93.2912 586.37 93.5329C587.321 93.7747 588.162 94.1497 588.896 94.6571C589.637 95.1653 590.221 95.8182 590.648 96.6159C591.075 97.4056 591.289 98.3523 591.289 99.4562V111.98H586.406V109.405H586.262C585.964 109.985 585.565 110.497 585.065 110.94C584.566 111.376 583.966 111.718 583.264 111.968C582.564 112.21 581.755 112.331 580.836 112.331ZM582.311 108.776C583.068 108.776 583.736 108.627 584.316 108.329C584.896 108.023 585.351 107.612 585.681 107.096C586.012 106.58 586.177 105.996 586.177 105.343V103.373C586.016 103.478 585.794 103.574 585.513 103.663C585.238 103.744 584.929 103.82 584.582 103.893C584.236 103.957 583.889 104.018 583.542 104.074C583.196 104.123 582.882 104.167 582.6 104.207C581.997 104.296 581.469 104.437 581.017 104.63C580.566 104.824 580.216 105.086 579.966 105.416C579.716 105.739 579.591 106.141 579.591 106.624C579.591 107.326 579.845 107.861 580.353 108.233C580.868 108.596 581.521 108.776 582.311 108.776Z"
			fill="currentColor"
		/>
		<path
			d="M600.43 101.246V111.98H595.282V93.412H600.188V96.6882H600.405C600.816 95.6082 601.505 94.7541 602.471 94.1259C603.439 93.4888 604.61 93.1703 605.988 93.1703C607.277 93.1703 608.401 93.4526 609.359 94.0165C610.318 94.5812 611.063 95.3868 611.595 96.4341C612.126 97.4744 612.393 98.715 612.393 100.158V111.98H607.245V101.076C607.253 99.9397 606.963 99.0538 606.375 98.4168C605.786 97.7718 604.977 97.4497 603.946 97.4497C603.253 97.4497 602.641 97.5988 602.109 97.897C601.586 98.1953 601.174 98.6303 600.877 99.2029C600.587 99.7668 600.438 100.448 600.43 101.246Z"
			fill="currentColor"
		/>
		<path
			d="M624.836 112.343C622.959 112.343 621.335 111.943 619.966 111.146C618.604 110.34 617.553 109.219 616.811 107.786C616.071 106.343 615.701 104.671 615.701 102.769C615.701 100.85 616.071 99.1747 616.811 97.74C617.553 96.2973 618.604 95.1776 619.966 94.3791C621.335 93.5735 622.959 93.1703 624.836 93.1703C626.712 93.1703 628.331 93.5735 629.693 94.3791C631.062 95.1776 632.118 96.2973 632.859 97.74C633.6 99.1747 633.971 100.85 633.971 102.769C633.971 104.671 633.6 106.343 632.859 107.786C632.118 109.219 631.062 110.34 629.693 111.146C628.331 111.943 626.712 112.343 624.836 112.343ZM624.859 108.354C625.714 108.354 626.427 108.112 626.998 107.629C627.57 107.136 628.001 106.467 628.291 105.621C628.589 104.775 628.738 103.812 628.738 102.732C628.738 101.652 628.589 100.69 628.291 99.8435C628.001 98.9973 627.57 98.3285 626.998 97.8371C626.427 97.3447 625.714 97.0994 624.859 97.0994C623.997 97.0994 623.273 97.3447 622.684 97.8371C622.105 98.3285 621.665 98.9973 621.367 99.8435C621.078 100.69 620.932 101.652 620.932 102.732C620.932 103.812 621.078 104.775 621.367 105.621C621.665 106.467 622.105 107.136 622.684 107.629C623.273 108.112 623.997 108.354 624.859 108.354Z"
			fill="currentColor"
		/>
		<path
			d="M693.088 66.8382V172.721"
			stroke="currentColor"
			stroke-width="4"
		/>
		<path
			d="M748.957 93.5497H751.554L757.661 108.464H757.871L763.977 93.5497H766.574V111.517H764.538V97.8662H764.363L758.748 111.517H756.783L751.168 97.8662H750.993V111.517H748.957V93.5497Z"
			fill="#878889"
		/>
		<path
			d="M770.656 111.517V98.0418H772.727V111.517H770.656ZM771.709 95.7953C771.305 95.7953 770.958 95.6576 770.665 95.3832C770.378 95.1079 770.235 94.7779 770.235 94.3915C770.235 94.0059 770.378 93.675 770.665 93.4006C770.958 93.1253 771.305 92.9876 771.709 92.9876C772.113 92.9876 772.458 93.1253 772.744 93.4006C773.036 93.675 773.183 94.0059 773.183 94.3915C773.183 94.7779 773.036 95.1079 772.744 95.3832C772.458 95.6576 772.113 95.7953 771.709 95.7953Z"
			fill="#878889"
		/>
		<path
			d="M778.589 103.411V111.517H776.519V98.0418H778.519V100.147H778.695C779.011 99.4624 779.49 98.9126 780.133 98.4979C780.776 98.0762 781.608 97.8662 782.625 97.8662C783.537 97.8662 784.336 98.0532 785.021 98.4274C785.704 98.7962 786.236 99.3574 786.617 100.112C786.997 100.861 787.188 101.809 787.188 102.955V111.517H785.117V103.095C785.117 102.036 784.841 101.211 784.292 100.621C783.742 100.024 782.988 99.7262 782.029 99.7262C781.368 99.7262 780.776 99.8691 780.256 100.156C779.741 100.443 779.335 100.861 779.036 101.411C778.738 101.96 778.589 102.627 778.589 103.411Z"
			fill="#878889"
		/>
		<path
			d="M790.971 111.517V98.0418H793.041V111.517H790.971ZM792.024 95.7953C791.62 95.7953 791.272 95.6576 790.98 95.3832C790.693 95.1079 790.549 94.7779 790.549 94.3915C790.549 94.0059 790.693 93.675 790.98 93.4006C791.272 93.1253 791.62 92.9876 792.024 92.9876C792.427 92.9876 792.772 93.1253 793.059 93.4006C793.352 93.675 793.497 94.0059 793.497 94.3915C793.497 94.7779 793.352 95.1079 793.059 95.3832C792.772 95.6576 792.427 95.7953 792.024 95.7953Z"
			fill="#878889"
		/>
		<path
			d="M806.379 101.059L804.519 101.586C804.402 101.276 804.229 100.975 804.002 100.683C803.779 100.384 803.475 100.138 803.089 99.945C802.703 99.7527 802.209 99.6556 801.606 99.6556C800.782 99.6556 800.095 99.8462 799.545 100.226C799.001 100.601 798.729 101.077 798.729 101.656C798.729 102.171 798.916 102.577 799.29 102.875C799.664 103.174 800.249 103.422 801.045 103.621L803.045 104.112C804.25 104.405 805.148 104.853 805.738 105.455C806.329 106.052 806.625 106.82 806.625 107.763C806.625 108.535 806.403 109.225 805.958 109.833C805.519 110.441 804.905 110.921 804.116 111.272C803.326 111.623 802.407 111.799 801.361 111.799C799.986 111.799 798.849 111.499 797.948 110.903C797.047 110.306 796.477 109.436 796.237 108.289L798.202 107.797C798.389 108.522 798.743 109.067 799.264 109.429C799.79 109.792 800.478 109.973 801.326 109.973C802.291 109.973 803.057 109.768 803.624 109.359C804.198 108.944 804.484 108.446 804.484 107.868C804.484 107.4 804.32 107.008 803.993 106.692C803.666 106.37 803.162 106.13 802.484 105.972L800.238 105.446C799.003 105.154 798.097 104.701 797.518 104.086C796.945 103.466 796.658 102.692 796.658 101.762C796.658 101.001 796.871 100.328 797.299 99.7438C797.732 99.1588 798.319 98.6991 799.062 98.3665C799.811 98.0329 800.659 97.8662 801.606 97.8662C802.94 97.8662 803.987 98.1582 804.747 98.7432C805.513 99.3282 806.058 100.1 806.379 101.059Z"
			fill="#878889"
		/>
		<path
			d="M815.602 98.0418V99.7959H808.618V98.0418H815.602ZM810.654 94.8132H812.725V107.657C812.725 108.242 812.809 108.68 812.979 108.973C813.154 109.26 813.377 109.452 813.646 109.552C813.92 109.646 814.21 109.692 814.514 109.692C814.743 109.692 814.93 109.681 815.075 109.657C815.222 109.628 815.339 109.605 815.426 109.587L815.847 111.447C815.707 111.499 815.511 111.552 815.26 111.605C815.008 111.664 814.69 111.693 814.303 111.693C813.719 111.693 813.146 111.567 812.584 111.316C812.029 111.064 811.566 110.681 811.198 110.166C810.836 109.652 810.654 109.002 810.654 108.219V94.8132Z"
			fill="#878889"
		/>
		<path
			d="M824.222 111.799C822.924 111.799 821.803 111.512 820.862 110.938C819.926 110.359 819.204 109.552 818.695 108.517C818.192 107.476 817.94 106.265 817.94 104.884C817.94 103.504 818.192 102.288 818.695 101.235C819.204 100.176 819.911 99.3512 820.818 98.7609C821.73 98.1644 822.795 97.8662 824.012 97.8662C824.713 97.8662 825.407 97.9826 826.091 98.2165C826.775 98.4512 827.398 98.8315 827.959 99.3574C828.521 99.8779 828.969 100.568 829.301 101.428C829.635 102.288 829.802 103.346 829.802 104.604V105.481H819.414V103.691H827.696C827.696 102.931 827.544 102.252 827.24 101.656C826.942 101.059 826.515 100.588 825.959 100.243C825.409 99.8982 824.76 99.7262 824.012 99.7262C823.187 99.7262 822.473 99.9309 821.87 100.34C821.274 100.744 820.815 101.27 820.493 101.92C820.172 102.568 820.011 103.264 820.011 104.007V105.2C820.011 106.219 820.186 107.081 820.537 107.788C820.894 108.491 821.389 109.025 822.02 109.394C822.651 109.757 823.385 109.939 824.222 109.939C824.766 109.939 825.258 109.862 825.696 109.71C826.14 109.552 826.524 109.318 826.845 109.009C827.167 108.693 827.416 108.301 827.591 107.832L829.591 108.394C829.381 109.073 829.027 109.669 828.529 110.184C828.033 110.693 827.419 111.09 826.687 111.377C825.956 111.657 825.134 111.799 824.222 111.799Z"
			fill="#878889"
		/>
		<path
			d="M832.952 111.517V98.0418H834.952V100.076H835.092C835.338 99.4103 835.782 98.8694 836.426 98.4538C837.069 98.0382 837.794 97.8309 838.601 97.8309C838.753 97.8309 838.944 97.8335 839.171 97.8397C839.4 97.8459 839.573 97.8547 839.689 97.8662V99.9715C839.62 99.9538 839.458 99.9273 839.207 99.8929C838.961 99.8515 838.701 99.8312 838.426 99.8312C837.771 99.8312 837.186 99.9688 836.672 100.243C836.163 100.512 835.759 100.887 835.46 101.366C835.168 101.84 835.022 102.381 835.022 102.99V111.517H832.952Z"
			fill="#878889"
		/>
		<path
			d="M842.144 111.517V98.0418H844.214V111.517H842.144ZM843.197 95.7953C842.793 95.7953 842.445 95.6576 842.153 95.3832C841.866 95.1079 841.722 94.7779 841.722 94.3915C841.722 94.0059 841.866 93.675 842.153 93.4006C842.445 93.1253 842.793 92.9876 843.197 92.9876C843.6 92.9876 843.945 93.1253 844.232 93.4006C844.525 93.675 844.67 94.0059 844.67 94.3915C844.67 94.7779 844.525 95.1079 844.232 95.3832C843.945 95.6576 843.6 95.7953 843.197 95.7953Z"
			fill="#878889"
		/>
		<path
			d="M853.481 111.799C852.265 111.799 851.197 111.508 850.279 110.929C849.366 110.351 848.653 109.541 848.138 108.499C847.63 107.458 847.375 106.241 847.375 104.85C847.375 103.446 847.63 102.221 848.138 101.173C848.653 100.127 849.366 99.3132 850.279 98.7344C851.197 98.1556 852.265 97.8662 853.481 97.8662C854.698 97.8662 855.762 98.1556 856.675 98.7344C857.593 99.3132 858.307 100.127 858.815 101.173C859.331 102.221 859.587 103.446 859.587 104.85C859.587 106.241 859.331 107.458 858.815 108.499C858.307 109.541 857.593 110.351 856.675 110.929C855.762 111.508 854.698 111.799 853.481 111.799ZM853.481 109.939C854.405 109.939 855.166 109.701 855.762 109.227C856.359 108.754 856.801 108.131 857.087 107.359C857.374 106.586 857.517 105.75 857.517 104.85C857.517 103.949 857.374 103.109 857.087 102.332C856.801 101.554 856.359 100.925 855.762 100.445C855.166 99.9653 854.405 99.7262 853.481 99.7262C852.557 99.7262 851.797 99.9653 851.201 100.445C850.603 100.925 850.162 101.554 849.875 102.332C849.589 103.109 849.446 103.949 849.446 104.85C849.446 105.75 849.589 106.586 849.875 107.359C850.162 108.131 850.603 108.754 851.201 109.227C851.797 109.701 852.557 109.939 853.481 109.939Z"
			fill="#878889"
		/>
		<path
			d="M874.785 111.799C873.663 111.799 872.671 111.514 871.811 110.947C870.951 110.374 870.279 109.567 869.794 108.526C869.307 107.479 869.065 106.241 869.065 104.815C869.065 103.399 869.307 102.171 869.794 101.13C870.279 100.089 870.954 99.2841 871.819 98.7168C872.686 98.1494 873.686 97.8662 874.82 97.8662C875.697 97.8662 876.391 98.0118 876.9 98.3047C877.414 98.5915 877.806 98.9188 878.075 99.2877C878.351 99.6503 878.563 99.9485 878.716 100.182H878.891V93.5497H880.961V111.517H878.961V109.447H878.716C878.563 109.692 878.347 110.002 878.066 110.377C877.786 110.745 877.385 111.076 876.865 111.368C876.344 111.655 875.651 111.799 874.785 111.799ZM875.066 109.939C875.897 109.939 876.598 109.721 877.172 109.289C877.744 108.851 878.18 108.245 878.479 107.473C878.777 106.695 878.926 105.797 878.926 104.779C878.926 103.774 878.78 102.893 878.487 102.139C878.195 101.378 877.762 100.788 877.189 100.367C876.616 99.9397 875.908 99.7262 875.066 99.7262C874.189 99.7262 873.458 99.9512 872.873 100.401C872.293 100.846 871.858 101.451 871.565 102.218C871.279 102.978 871.136 103.832 871.136 104.779C871.136 105.739 871.282 106.61 871.574 107.394C871.872 108.172 872.311 108.791 872.891 109.254C873.475 109.71 874.2 109.939 875.066 109.939Z"
			fill="#878889"
		/>
		<path
			d="M890.691 111.799C889.394 111.799 888.274 111.512 887.329 110.938C886.394 110.359 885.671 109.552 885.168 108.517C884.665 107.476 884.409 106.265 884.409 104.884C884.409 103.504 884.665 102.288 885.168 101.235C885.671 100.176 886.376 99.3512 887.285 98.7609C888.203 98.1644 889.262 97.8662 890.479 97.8662C891.185 97.8662 891.874 97.9826 892.562 98.2165C893.241 98.4512 893.868 98.8315 894.432 99.3574C894.988 99.8779 895.438 100.568 895.774 101.428C896.109 102.288 896.268 103.346 896.268 104.604V105.481H885.882V103.691H894.168C894.168 102.931 894.018 102.252 893.709 101.656C893.409 101.059 892.985 100.588 892.429 100.243C891.882 99.8982 891.229 99.7262 890.479 99.7262C889.659 99.7262 888.944 99.9309 888.344 100.34C887.744 100.744 887.285 101.27 886.959 101.92C886.641 102.568 886.482 103.264 886.482 104.007V105.2C886.482 106.219 886.659 107.081 887.003 107.788C887.365 108.491 887.859 109.025 888.485 109.394C889.121 109.757 889.853 109.939 890.691 109.939C891.238 109.939 891.724 109.862 892.165 109.71C892.606 109.552 892.994 109.318 893.312 109.009C893.638 108.693 893.885 108.301 894.062 107.832L896.065 108.394C895.853 109.073 895.5 109.669 894.997 110.184C894.503 110.693 893.885 111.09 893.153 111.377C892.429 111.657 891.6 111.799 890.691 111.799Z"
			fill="#878889"
		/>
		<path
			d="M901.491 93.5497V111.517H899.418V93.5497H901.491Z"
			fill="#878889"
		/>
		<path
			d="M912.229 116.571V98.0418H914.232V100.182H914.479C914.629 99.9485 914.841 99.6503 915.106 99.2877C915.388 98.9188 915.776 98.5915 916.288 98.3047C916.8 98.0118 917.497 97.8662 918.371 97.8662C919.509 97.8662 920.506 98.1494 921.371 98.7168C922.244 99.2841 922.915 100.089 923.4 101.13C923.885 102.171 924.132 103.399 924.132 104.815C924.132 106.241 923.885 107.479 923.4 108.526C922.915 109.567 922.244 110.374 921.379 110.947C920.523 111.514 919.535 111.799 918.406 111.799C917.541 111.799 916.853 111.655 916.332 111.368C915.812 111.076 915.406 110.745 915.124 110.377C914.85 110.002 914.629 109.692 914.479 109.447H914.303V116.571H912.229ZM914.268 104.779C914.268 105.797 914.418 106.695 914.718 107.473C915.018 108.245 915.45 108.851 916.024 109.289C916.597 109.721 917.294 109.939 918.132 109.939C918.997 109.939 919.712 109.71 920.294 109.254C920.876 108.791 921.318 108.172 921.609 107.394C921.909 106.61 922.059 105.739 922.059 104.779C922.059 103.832 921.909 102.978 921.618 102.218C921.335 101.451 920.894 100.846 920.312 100.401C919.729 99.9512 919.006 99.7262 918.132 99.7262C917.285 99.7262 916.579 99.9397 916.006 100.367C915.432 100.788 915 101.378 914.709 102.139C914.418 102.893 914.268 103.774 914.268 104.779Z"
			fill="#878889"
		/>
		<path
			d="M932.762 111.799C931.544 111.799 930.476 111.508 929.559 110.929C928.65 110.351 927.935 109.541 927.415 108.499C926.912 107.458 926.656 106.241 926.656 104.85C926.656 103.446 926.912 102.221 927.415 101.173C927.935 100.127 928.65 99.3132 929.559 98.7344C930.476 98.1556 931.544 97.8662 932.762 97.8662C933.979 97.8662 935.047 98.1556 935.956 98.7344C936.874 99.3132 937.588 100.127 938.1 101.173C938.612 102.221 938.868 103.446 938.868 104.85C938.868 106.241 938.612 107.458 938.1 108.499C937.588 109.541 936.874 110.351 935.956 110.929C935.047 111.508 933.979 111.799 932.762 111.799ZM932.762 109.939C933.688 109.939 934.447 109.701 935.047 109.227C935.638 108.754 936.079 108.131 936.371 107.359C936.653 106.586 936.794 105.75 936.794 104.85C936.794 103.949 936.653 103.109 936.371 102.332C936.079 101.554 935.638 100.925 935.047 100.445C934.447 99.9653 933.688 99.7262 932.762 99.7262C931.835 99.7262 931.076 99.9653 930.485 100.445C929.885 100.925 929.444 101.554 929.153 102.332C928.871 103.109 928.729 103.949 928.729 104.85C928.729 105.75 928.871 106.586 929.153 107.359C929.444 108.131 929.885 108.754 930.485 109.227C931.076 109.701 931.835 109.939 932.762 109.939Z"
			fill="#878889"
		/>
		<path
			d="M947.118 111.799C945.997 111.799 945 111.514 944.144 110.947C943.279 110.374 942.609 109.567 942.124 108.526C941.638 107.479 941.4 106.241 941.4 104.815C941.4 103.399 941.638 102.171 942.124 101.13C942.609 100.089 943.288 99.2841 944.153 98.7168C945.018 98.1494 946.015 97.8662 947.153 97.8662C948.026 97.8662 948.724 98.0118 949.235 98.3047C949.747 98.5915 950.135 98.9188 950.409 99.2877C950.682 99.6503 950.894 99.9485 951.044 100.182H951.221V93.5497H953.294V111.517H951.291V109.447H951.044C950.894 109.692 950.682 110.002 950.4 110.377C950.118 110.745 949.721 111.076 949.2 111.368C948.679 111.655 947.982 111.799 947.118 111.799ZM947.4 109.939C948.229 109.939 948.926 109.721 949.5 109.289C950.073 108.851 950.515 108.245 950.815 107.473C951.106 106.695 951.256 105.797 951.256 104.779C951.256 103.774 951.115 102.893 950.823 102.139C950.523 101.378 950.091 100.788 949.518 100.367C948.944 99.9397 948.238 99.7262 947.4 99.7262C946.518 99.7262 945.794 99.9512 945.203 100.401C944.629 100.846 944.188 101.451 943.897 102.218C943.615 102.978 943.465 103.832 943.465 104.779C943.465 105.739 943.615 106.61 943.906 107.394C944.206 108.172 944.647 108.791 945.221 109.254C945.812 109.71 946.535 109.939 947.4 109.939Z"
			fill="#878889"
		/>
		<path
			d="M963.026 111.799C961.729 111.799 960.609 111.512 959.665 110.938C958.729 110.359 958.006 109.552 957.494 108.517C956.991 107.476 956.744 106.265 956.744 104.884C956.744 103.504 956.991 102.288 957.494 101.235C958.006 100.176 958.712 99.3512 959.621 98.7609C960.529 98.1644 961.597 97.8662 962.815 97.8662C963.512 97.8662 964.209 97.9826 964.888 98.2165C965.576 98.4512 966.203 98.8315 966.759 99.3574C967.324 99.8779 967.774 100.568 968.1 101.428C968.435 102.288 968.603 103.346 968.603 104.604V105.481H958.218V103.691H966.494C966.494 102.931 966.344 102.252 966.044 101.656C965.744 101.059 965.321 100.588 964.765 100.243C964.209 99.8982 963.565 99.7262 962.815 99.7262C961.985 99.7262 961.271 99.9309 960.671 100.34C960.079 100.744 959.621 101.27 959.294 101.92C958.976 102.568 958.809 103.264 958.809 104.007V105.2C958.809 106.219 958.985 107.081 959.338 107.788C959.7 108.491 960.194 109.025 960.821 109.394C961.456 109.757 962.188 109.939 963.026 109.939C963.565 109.939 964.059 109.862 964.5 109.71C964.941 109.552 965.329 109.318 965.647 109.009C965.965 108.693 966.221 108.301 966.397 107.832L968.391 108.394C968.179 109.073 967.826 109.669 967.332 110.184C966.838 110.693 966.221 111.09 965.488 111.377C964.756 111.657 963.935 111.799 963.026 111.799Z"
			fill="#878889"
		/>
		<path
			d="M971.753 111.517V98.0418H973.756V100.076H973.897C974.135 99.4103 974.585 98.8694 975.229 98.4538C975.874 98.0382 976.597 97.8309 977.4 97.8309C977.559 97.8309 977.744 97.8335 977.974 97.8397C978.203 97.8459 978.371 97.8547 978.494 97.8662V99.9715C978.423 99.9538 978.256 99.9273 978.009 99.8929C977.762 99.8515 977.506 99.8312 977.224 99.8312C976.571 99.8312 975.988 99.9688 975.476 100.243C974.965 100.512 974.559 100.887 974.259 101.366C973.968 101.84 973.826 102.381 973.826 102.99V111.517H971.753Z"
			fill="#878889"
		/>
		<path
			d="M987.891 116.571V98.0418H989.894V100.182H990.141C990.291 99.9485 990.503 99.6503 990.768 99.2877C991.05 98.9188 991.438 98.5915 991.95 98.3047C992.462 98.0118 993.159 97.8662 994.032 97.8662C995.171 97.8662 996.168 98.1494 997.032 98.7168C997.906 99.2841 998.576 100.089 999.062 101.13C999.547 102.171 999.794 103.399 999.794 104.815C999.794 106.241 999.547 107.479 999.062 108.526C998.576 109.567 997.906 110.374 997.041 110.947C996.185 111.514 995.197 111.799 994.068 111.799C993.203 111.799 992.515 111.655 991.994 111.368C991.474 111.076 991.068 110.745 990.785 110.377C990.512 110.002 990.291 109.692 990.141 109.447H989.965V116.571H987.891ZM989.929 104.779C989.929 105.797 990.079 106.695 990.379 107.473C990.679 108.245 991.112 108.851 991.685 109.289C992.259 109.721 992.956 109.939 993.794 109.939C994.659 109.939 995.374 109.71 995.956 109.254C996.538 108.791 996.979 108.172 997.271 107.394C997.571 106.61 997.721 105.739 997.721 104.779C997.721 103.832 997.571 102.978 997.279 102.218C996.997 101.451 996.556 100.846 995.974 100.401C995.391 99.9512 994.668 99.7262 993.794 99.7262C992.947 99.7262 992.241 99.9397 991.668 100.367C991.094 100.788 990.662 101.378 990.371 102.139C990.079 102.893 989.929 103.774 989.929 104.779Z"
			fill="#878889"
		/>
		<path
			d="M1008.42 111.799C1007.21 111.799 1006.14 111.508 1005.22 110.929C1004.31 110.351 1003.6 109.541 1003.08 108.499C1002.57 107.458 1002.32 106.241 1002.32 104.85C1002.32 103.446 1002.57 102.221 1003.08 101.173C1003.6 100.127 1004.31 99.3132 1005.22 98.7344C1006.14 98.1556 1007.21 97.8662 1008.42 97.8662C1009.64 97.8662 1010.71 98.1556 1011.62 98.7344C1012.54 99.3132 1013.25 100.127 1013.76 101.173C1014.27 102.221 1014.53 103.446 1014.53 104.85C1014.53 106.241 1014.27 107.458 1013.76 108.499C1013.25 109.541 1012.54 110.351 1011.62 110.929C1010.71 111.508 1009.64 111.799 1008.42 111.799ZM1008.42 109.939C1009.35 109.939 1010.11 109.701 1010.71 109.227C1011.3 108.754 1011.74 108.131 1012.03 107.359C1012.31 106.586 1012.46 105.75 1012.46 104.85C1012.46 103.949 1012.31 103.109 1012.03 102.332C1011.74 101.554 1011.3 100.925 1010.71 100.445C1010.11 99.9653 1009.35 99.7262 1008.42 99.7262C1007.5 99.7262 1006.74 99.9653 1006.15 100.445C1005.55 100.925 1005.11 101.554 1004.81 102.332C1004.53 103.109 1004.39 103.949 1004.39 104.85C1004.39 105.75 1004.53 106.586 1004.81 107.359C1005.11 108.131 1005.55 108.754 1006.15 109.227C1006.74 109.701 1007.5 109.939 1008.42 109.939Z"
			fill="#878889"
		/>
		<path
			d="M1017.69 116.571V98.0418H1019.69V100.182H1019.94C1020.09 99.9485 1020.3 99.6503 1020.56 99.2877C1020.85 98.9188 1021.24 98.5915 1021.75 98.3047C1022.26 98.0118 1022.96 97.8662 1023.83 97.8662C1024.97 97.8662 1025.96 98.1494 1026.83 98.7168C1027.69 99.2841 1028.37 100.089 1028.86 101.13C1029.34 102.171 1029.59 103.399 1029.59 104.815C1029.59 106.241 1029.34 107.479 1028.86 108.526C1028.37 109.567 1027.7 110.374 1026.84 110.947C1025.98 111.514 1024.99 111.799 1023.86 111.799C1023 111.799 1022.31 111.655 1021.79 111.368C1021.27 111.076 1020.86 110.745 1020.58 110.377C1020.31 110.002 1020.09 109.692 1019.94 109.447H1019.76V116.571H1017.69ZM1019.73 104.779C1019.73 105.797 1019.88 106.695 1020.18 107.473C1020.47 108.245 1020.91 108.851 1021.48 109.289C1022.06 109.721 1022.75 109.939 1023.58 109.939C1024.46 109.939 1025.17 109.71 1025.75 109.254C1026.34 108.791 1026.78 108.172 1027.07 107.394C1027.37 106.61 1027.52 105.739 1027.52 104.779C1027.52 103.832 1027.37 102.978 1027.08 102.218C1026.79 101.451 1026.35 100.846 1025.77 100.401C1025.19 99.9512 1024.46 99.7262 1023.58 99.7262C1022.74 99.7262 1022.04 99.9397 1021.46 100.367C1020.89 100.788 1020.46 101.378 1020.17 102.139C1019.88 102.893 1019.73 103.774 1019.73 104.779Z"
			fill="#878889"
		/>
		<path
			d="M1041.24 106.008V98.0417H1043.31V111.517H1041.24V109.236H1041.1C1040.78 109.921 1040.29 110.502 1039.62 110.982C1038.96 111.456 1038.11 111.693 1037.1 111.693C1036.25 111.693 1035.5 111.508 1034.85 111.14C1034.2 110.766 1033.69 110.204 1033.31 109.456C1032.94 108.701 1032.75 107.75 1032.75 106.604V98.0417H1034.81V106.464C1034.81 107.447 1035.09 108.23 1035.64 108.815C1036.2 109.4 1036.91 109.692 1037.76 109.692C1038.28 109.692 1038.8 109.561 1039.33 109.298C1039.87 109.034 1040.32 108.631 1040.68 108.087C1041.05 107.543 1041.24 106.85 1041.24 106.008Z"
			fill="#878889"
		/>
		<path
			d="M1049.17 93.5497V111.517H1047.1V93.5497H1049.17Z"
			fill="#878889"
		/>
		<path
			d="M1056.93 111.833C1056.08 111.833 1055.3 111.672 1054.61 111.35C1053.91 111.023 1053.35 110.553 1052.95 109.939C1052.54 109.318 1052.33 108.569 1052.33 107.692C1052.33 106.92 1052.49 106.294 1052.79 105.814C1053.1 105.329 1053.5 104.949 1054.01 104.674C1054.52 104.399 1055.08 104.194 1055.69 104.06C1056.31 103.92 1056.94 103.809 1057.56 103.727C1058.38 103.621 1059.04 103.542 1059.56 103.489C1060.07 103.431 1060.44 103.335 1060.68 103.2C1060.91 103.066 1061.04 102.832 1061.04 102.499V102.428C1061.04 101.562 1060.8 100.89 1060.32 100.41C1059.86 99.9309 1059.15 99.6909 1058.2 99.6909C1057.21 99.6909 1056.43 99.9071 1055.87 100.34C1055.3 100.773 1054.91 101.235 1054.69 101.726L1052.72 101.024C1053.07 100.205 1053.54 99.5682 1054.12 99.1121C1054.71 98.6497 1055.36 98.3277 1056.05 98.1468C1056.75 97.9597 1057.45 97.8662 1058.13 97.8662C1058.56 97.8662 1059.05 97.9182 1059.62 98.0241C1060.18 98.1229 1060.73 98.3312 1061.26 98.6471C1061.79 98.9629 1062.23 99.4394 1062.58 100.076C1062.93 100.714 1063.1 101.569 1063.1 102.639V111.517H1061.04V109.692H1060.93C1060.79 109.985 1060.55 110.298 1060.23 110.631C1059.9 110.965 1059.47 111.248 1058.92 111.483C1058.37 111.716 1057.71 111.833 1056.93 111.833ZM1057.24 109.973C1058.06 109.973 1058.75 109.812 1059.32 109.49C1059.88 109.169 1060.31 108.754 1060.6 108.245C1060.89 107.736 1061.04 107.201 1061.04 106.639V104.744C1060.95 104.85 1060.76 104.946 1060.46 105.034C1060.16 105.116 1059.82 105.189 1059.44 105.253C1059.06 105.311 1058.69 105.364 1058.32 105.411C1057.97 105.452 1057.68 105.487 1057.46 105.516C1056.92 105.587 1056.41 105.701 1055.95 105.859C1055.49 106.01 1055.11 106.241 1054.83 106.552C1054.54 106.856 1054.4 107.271 1054.4 107.797C1054.4 108.517 1054.67 109.061 1055.2 109.429C1055.74 109.792 1056.42 109.973 1057.24 109.973Z"
			fill="#878889"
		/>
		<path
			d="M1066.89 111.517V98.0418H1068.88V100.076H1069.02C1069.27 99.4103 1069.72 98.8694 1070.36 98.4538C1071 98.0382 1071.73 97.8309 1072.54 97.8309C1072.69 97.8309 1072.88 97.8335 1073.11 97.8397C1073.33 97.8459 1073.51 97.8547 1073.62 97.8662V99.9715C1073.55 99.9538 1073.39 99.9273 1073.14 99.8929C1072.9 99.8515 1072.63 99.8312 1072.36 99.8312C1071.71 99.8312 1071.12 99.9688 1070.6 100.243C1070.1 100.512 1069.69 100.887 1069.39 101.366C1069.1 101.84 1068.95 102.381 1068.95 102.99V111.517H1066.89Z"
			fill="#878889"
		/>
		<path
			d="M748.676 146.571V128.042H750.677V130.182H750.922C751.075 129.949 751.285 129.65 751.554 129.288C751.829 128.919 752.221 128.591 752.73 128.305C753.244 128.012 753.941 127.866 754.818 127.866C755.952 127.866 756.953 128.149 757.819 128.717C758.684 129.284 759.359 130.089 759.845 131.13C760.331 132.171 760.573 133.399 760.573 134.815C760.573 136.241 760.331 137.479 759.845 138.526C759.359 139.567 758.687 140.374 757.827 140.947C756.967 141.514 755.976 141.799 754.853 141.799C753.987 141.799 753.294 141.655 752.773 141.368C752.254 141.076 751.852 140.745 751.571 140.377C751.291 140.002 751.075 139.692 750.922 139.447H750.747V146.571H748.676ZM750.712 134.779C750.712 135.797 750.861 136.695 751.159 137.473C751.458 138.245 751.893 138.851 752.466 139.289C753.04 139.721 753.742 139.939 754.572 139.939C755.438 139.939 756.161 139.71 756.739 139.254C757.324 138.791 757.763 138.172 758.055 137.394C758.353 136.61 758.502 135.739 758.502 134.779C758.502 133.832 758.357 132.978 758.064 132.218C757.777 131.451 757.342 130.846 756.757 130.401C756.177 129.951 755.449 129.726 754.572 129.726C753.73 129.726 753.022 129.94 752.449 130.367C751.876 130.788 751.443 131.378 751.151 132.139C750.859 132.893 750.712 133.774 750.712 134.779Z"
			fill="#878889"
		/>
		<path
			d="M767.697 141.833C766.843 141.833 766.069 141.672 765.372 141.35C764.676 141.023 764.124 140.553 763.714 139.939C763.305 139.318 763.1 138.569 763.1 137.692C763.1 136.92 763.252 136.294 763.556 135.814C763.86 135.329 764.267 134.949 764.776 134.674C765.284 134.399 765.846 134.194 766.46 134.06C767.08 133.92 767.703 133.809 768.329 133.727C769.148 133.621 769.811 133.542 770.321 133.489C770.835 133.431 771.209 133.335 771.444 133.2C771.683 133.066 771.803 132.832 771.803 132.499V132.428C771.803 131.562 771.566 130.89 771.093 130.41C770.625 129.931 769.914 129.691 768.961 129.691C767.972 129.691 767.197 129.907 766.636 130.34C766.074 130.773 765.679 131.235 765.451 131.726L763.486 131.024C763.837 130.205 764.305 129.568 764.89 129.112C765.481 128.65 766.124 128.328 766.819 128.147C767.522 127.96 768.212 127.866 768.89 127.866C769.324 127.866 769.82 127.918 770.381 128.024C770.949 128.123 771.496 128.331 772.023 128.647C772.555 128.963 772.997 129.439 773.347 130.076C773.698 130.714 773.874 131.569 773.874 132.639V141.517H771.803V139.692H771.698C771.558 139.985 771.324 140.298 770.996 140.631C770.668 140.965 770.232 141.248 769.689 141.483C769.144 141.716 768.481 141.833 767.697 141.833ZM768.013 139.973C768.832 139.973 769.522 139.812 770.083 139.49C770.651 139.169 771.078 138.754 771.364 138.245C771.657 137.736 771.803 137.201 771.803 136.639V134.744C771.716 134.85 771.522 134.946 771.224 135.034C770.932 135.116 770.592 135.189 770.207 135.253C769.826 135.311 769.455 135.364 769.092 135.411C768.735 135.452 768.446 135.487 768.223 135.516C767.686 135.587 767.182 135.701 766.714 135.859C766.253 136.01 765.878 136.241 765.591 136.552C765.311 136.856 765.17 137.271 765.17 137.797C765.17 138.517 765.437 139.061 765.969 139.429C766.507 139.792 767.188 139.973 768.013 139.973Z"
			fill="#878889"
		/>
		<path
			d="M777.653 141.517V128.042H779.653V130.076H779.794C780.039 129.41 780.483 128.869 781.127 128.454C781.771 128.038 782.495 127.831 783.303 127.831C783.455 127.831 783.645 127.834 783.874 127.84C784.101 127.846 784.274 127.855 784.391 127.866V129.971C784.321 129.954 784.159 129.927 783.908 129.893C783.663 129.851 783.402 129.831 783.127 129.831C782.472 129.831 781.887 129.969 781.373 130.243C780.864 130.512 780.461 130.887 780.162 131.366C779.869 131.84 779.723 132.381 779.723 132.99V141.517H777.653Z"
			fill="#878889"
		/>
		<path
			d="M790.811 141.833C789.956 141.833 789.182 141.672 788.486 141.35C787.789 141.023 787.237 140.553 786.828 139.939C786.418 139.318 786.214 138.569 786.214 137.692C786.214 136.92 786.365 136.294 786.67 135.814C786.974 135.329 787.38 134.949 787.889 134.674C788.398 134.399 788.959 134.194 789.573 134.06C790.194 133.92 790.817 133.809 791.442 133.727C792.261 133.621 792.925 133.542 793.434 133.489C793.948 133.431 794.323 133.335 794.557 133.2C794.797 133.066 794.917 132.832 794.917 132.499V132.428C794.917 131.562 794.68 130.89 794.206 130.41C793.738 129.931 793.027 129.691 792.074 129.691C791.086 129.691 790.31 129.907 789.749 130.34C789.188 130.773 788.793 131.235 788.565 131.726L786.599 131.024C786.95 130.205 787.418 129.568 788.003 129.112C788.594 128.65 789.237 128.328 789.934 128.147C790.635 127.96 791.325 127.866 792.004 127.866C792.437 127.866 792.933 127.918 793.496 128.024C794.063 128.123 794.61 128.331 795.136 128.647C795.668 128.963 796.11 129.439 796.461 130.076C796.811 130.714 796.987 131.569 796.987 132.639V141.517H794.917V139.692H794.811C794.671 139.985 794.437 140.298 794.11 140.631C793.782 140.965 793.346 141.248 792.802 141.483C792.258 141.716 791.594 141.833 790.811 141.833ZM791.126 139.973C791.945 139.973 792.635 139.812 793.197 139.49C793.765 139.169 794.192 138.754 794.478 138.245C794.771 137.736 794.917 137.201 794.917 136.639V134.744C794.829 134.85 794.636 134.946 794.337 135.034C794.045 135.116 793.706 135.189 793.32 135.253C792.94 135.311 792.568 135.364 792.206 135.411C791.849 135.452 791.56 135.487 791.337 135.516C790.799 135.587 790.296 135.701 789.828 135.859C789.366 136.01 788.992 136.241 788.705 136.552C788.425 136.856 788.284 137.271 788.284 137.797C788.284 138.517 788.55 139.061 789.082 139.429C789.62 139.792 790.301 139.973 791.126 139.973Z"
			fill="#878889"
		/>
		<path
			d="M809.786 123.55V141.517H807.715V123.55H809.786Z"
			fill="#878889"
		/>
		<path
			d="M817.543 141.833C816.689 141.833 815.914 141.672 815.218 141.35C814.522 141.023 813.97 140.553 813.56 139.939C813.151 139.318 812.946 138.569 812.946 137.692C812.946 136.92 813.098 136.294 813.402 135.814C813.707 135.329 814.113 134.949 814.622 134.674C815.131 134.399 815.692 134.194 816.306 134.06C816.926 133.92 817.549 133.809 818.175 133.727C818.994 133.621 819.657 133.542 820.166 133.489C820.681 133.431 821.056 133.335 821.29 133.2C821.53 133.066 821.649 132.832 821.649 132.499V132.428C821.649 131.562 821.412 130.89 820.939 130.41C820.471 129.931 819.76 129.691 818.807 129.691C817.819 129.691 817.043 129.907 816.482 130.34C815.921 130.773 815.525 131.235 815.298 131.726L813.332 131.024C813.683 130.205 814.151 129.568 814.736 129.112C815.327 128.65 815.97 128.328 816.666 128.147C817.368 127.96 818.058 127.866 818.736 127.866C819.169 127.866 819.666 127.918 820.228 128.024C820.796 128.123 821.342 128.331 821.869 128.647C822.401 128.963 822.843 129.439 823.193 130.076C823.544 130.714 823.72 131.569 823.72 132.639V141.517H821.649V139.692H821.544C821.404 139.985 821.17 140.298 820.842 140.631C820.514 140.965 820.079 141.248 819.535 141.483C818.991 141.716 818.327 141.833 817.543 141.833ZM817.859 139.973C818.678 139.973 819.368 139.812 819.93 139.49C820.497 139.169 820.924 138.754 821.21 138.245C821.503 137.736 821.649 137.201 821.649 136.639V134.744C821.561 134.85 821.368 134.946 821.07 135.034C820.778 135.116 820.438 135.189 820.053 135.253C819.672 135.311 819.301 135.364 818.938 135.411C818.582 135.452 818.291 135.487 818.07 135.516C817.532 135.587 817.029 135.701 816.56 135.859C816.099 136.01 815.724 136.241 815.438 136.552C815.156 136.856 815.016 137.271 815.016 137.797C815.016 138.517 815.283 139.061 815.815 139.429C816.353 139.792 817.034 139.973 817.859 139.973Z"
			fill="#878889"
		/>
		<path
			d="M844.561 128.717C844.49 128.009 844.189 127.459 843.657 127.068C843.125 126.676 842.403 126.48 841.49 126.48C840.87 126.48 840.347 126.567 839.92 126.743C839.493 126.912 839.165 127.15 838.937 127.453C838.715 127.758 838.604 128.103 838.604 128.489C838.592 128.81 838.66 129.091 838.805 129.331C838.958 129.571 839.165 129.778 839.428 129.954C839.692 130.123 839.996 130.273 840.341 130.401C840.686 130.525 841.054 130.63 841.446 130.717L843.061 131.104C843.844 131.279 844.563 131.513 845.219 131.805C845.874 132.098 846.441 132.457 846.921 132.884C847.4 133.311 847.772 133.814 848.036 134.393C848.304 134.973 848.441 135.636 848.448 136.385C848.441 137.485 848.161 138.438 847.605 139.245C847.055 140.046 846.26 140.669 845.219 141.114C844.183 141.552 842.935 141.772 841.473 141.772C840.022 141.772 838.759 141.55 837.683 141.105C836.613 140.66 835.776 140.002 835.174 139.131C834.577 138.253 834.264 137.169 834.235 135.876H837.911C837.952 136.479 838.124 136.982 838.428 137.385C838.738 137.783 839.15 138.084 839.666 138.289C840.186 138.488 840.774 138.587 841.429 138.587C842.072 138.587 842.631 138.493 843.104 138.306C843.584 138.119 843.956 137.859 844.219 137.525C844.482 137.192 844.614 136.809 844.614 136.376C844.614 135.972 844.494 135.634 844.254 135.358C844.02 135.084 843.675 134.85 843.219 134.657C842.768 134.464 842.216 134.288 841.56 134.13L839.604 133.639C838.089 133.271 836.893 132.694 836.015 131.911C835.138 131.126 834.702 130.071 834.708 128.743C834.702 127.655 834.992 126.705 835.577 125.892C836.168 125.079 836.978 124.444 838.007 123.988C839.036 123.532 840.206 123.304 841.517 123.304C842.85 123.304 844.014 123.532 845.008 123.988C846.009 124.444 846.786 125.079 847.342 125.892C847.898 126.705 848.185 127.646 848.201 128.717H844.561Z"
			fill="currentColor"
		/>
		<path
			d="M854.775 141.772C853.916 141.772 853.15 141.623 852.476 141.325C851.804 141.02 851.272 140.573 850.88 139.982C850.494 139.385 850.301 138.642 850.301 137.754C850.301 137.005 850.438 136.376 850.714 135.867C850.988 135.358 851.362 134.949 851.836 134.639C852.31 134.329 852.848 134.095 853.451 133.937C854.059 133.779 854.696 133.669 855.364 133.604C856.147 133.522 856.779 133.446 857.258 133.376C857.738 133.3 858.086 133.189 858.303 133.042C858.519 132.896 858.626 132.679 858.626 132.393V132.341C858.626 131.785 858.452 131.355 858.101 131.051C857.756 130.746 857.264 130.594 856.626 130.594C855.954 130.594 855.419 130.744 855.021 131.042C854.623 131.335 854.36 131.703 854.231 132.147L850.774 131.867C850.95 131.048 851.295 130.34 851.81 129.744C852.325 129.141 852.988 128.679 853.802 128.358C854.621 128.029 855.568 127.866 856.644 127.866C857.393 127.866 858.109 127.954 858.793 128.129C859.484 128.305 860.095 128.576 860.627 128.945C861.165 129.313 861.589 129.787 861.899 130.367C862.21 130.939 862.364 131.627 862.364 132.428V141.517H858.82V139.648H858.715C858.499 140.07 858.208 140.441 857.846 140.763C857.484 141.079 857.048 141.327 856.539 141.508C856.03 141.684 855.442 141.772 854.775 141.772ZM855.845 139.192C856.396 139.192 856.881 139.084 857.302 138.868C857.723 138.646 858.054 138.348 858.294 137.973C858.533 137.599 858.653 137.174 858.653 136.701V135.271C858.536 135.347 858.375 135.417 858.17 135.481C857.972 135.54 857.747 135.596 857.495 135.648C857.244 135.694 856.992 135.739 856.741 135.78C856.489 135.814 856.261 135.847 856.056 135.876C855.618 135.941 855.235 136.043 854.907 136.183C854.579 136.324 854.325 136.513 854.143 136.753C853.962 136.987 853.871 137.28 853.871 137.631C853.871 138.139 854.056 138.529 854.425 138.798C854.799 139.061 855.273 139.192 855.845 139.192Z"
			fill="currentColor"
		/>
		<path
			d="M869.001 123.55V141.517H865.264V123.55H869.001Z"
			fill="currentColor"
		/>
		<path
			d="M880.637 135.78V128.042H884.374V141.517H880.786V139.069H880.646C880.342 139.859 879.836 140.494 879.128 140.974C878.426 141.453 877.57 141.693 876.558 141.693C875.657 141.693 874.864 141.488 874.18 141.079C873.496 140.669 872.96 140.088 872.575 139.332C872.194 138.578 872.001 137.674 871.995 136.622V128.042H875.733V135.955C875.739 136.751 875.952 137.379 876.373 137.841C876.794 138.304 877.359 138.535 878.067 138.535C878.517 138.535 878.938 138.432 879.33 138.228C879.722 138.017 880.038 137.707 880.278 137.298C880.523 136.888 880.643 136.382 880.637 135.78Z"
			fill="currentColor"
		/>
		<path
			d="M892.332 141.737C891.309 141.737 890.382 141.474 889.553 140.947C888.724 140.415 888.071 139.634 887.585 138.604C887.1 137.569 886.862 136.3 886.862 134.797C886.862 133.253 887.109 131.969 887.612 130.946C888.106 129.916 888.768 129.146 889.588 128.638C890.426 128.123 891.335 127.866 892.324 127.866C893.074 127.866 893.7 127.995 894.212 128.252C894.715 128.503 895.129 128.819 895.438 129.199C895.756 129.574 895.994 129.942 896.153 130.305H896.268V123.55H900V141.517H896.312V139.359H896.153C895.976 139.734 895.729 140.104 895.412 140.473C895.094 140.836 894.679 141.137 894.176 141.377C893.674 141.617 893.056 141.737 892.332 141.737ZM893.515 138.762C894.115 138.762 894.626 138.599 895.041 138.271C895.465 137.938 895.782 137.473 896.003 136.876C896.232 136.279 896.347 135.581 896.347 134.779C896.347 133.978 896.241 133.282 896.012 132.692C895.791 132.101 895.474 131.644 895.05 131.322C894.626 131.001 894.115 130.84 893.515 130.84C892.897 130.84 892.385 131.006 891.962 131.34C891.538 131.674 891.221 132.136 891.009 132.726C890.788 133.317 890.682 134.001 890.682 134.779C890.682 135.563 890.788 136.256 891.009 136.859C891.229 137.456 891.547 137.923 891.962 138.262C892.385 138.596 892.897 138.762 893.515 138.762Z"
			fill="currentColor"
		/>
	</svg>