<svg width="371" height="370" viewBox="0 0 371 370" fill="none" xmlns="http://www.w3.org/2000/svg">
<path d="M7.73445 8.0647C12.6883 3.11234 19.4063 0.330256 26.411 0.330256C33.4158 0.330256 40.1337 3.11234 45.0876 8.0647L184.911 147.888L324.734 8.0647C327.171 5.54164 330.086 3.52916 333.309 2.14469C336.532 0.760215 339.999 0.0314774 343.506 0.000997415C347.014 -0.0294826 350.492 0.638899 353.739 1.96715C356.985 3.29541 359.935 5.25693 362.415 7.73726C364.895 10.2176 366.857 13.1671 368.185 16.4136C369.513 19.6601 370.182 23.1386 370.151 26.6462C370.121 30.1538 369.392 33.6202 368.008 36.8431C366.623 40.0661 364.611 42.981 362.088 45.4179L222.264 185.241L362.088 325.065C366.9 330.047 369.562 336.72 369.502 343.646C369.442 350.573 366.664 357.198 361.766 362.096C356.868 366.994 350.242 369.772 343.316 369.832C336.39 369.893 329.717 367.23 324.734 362.418L184.911 222.594L45.0876 362.418C40.1054 367.23 33.4325 369.893 26.5061 369.832C19.5797 369.772 12.9541 366.994 8.05623 362.096C3.15837 357.198 0.380151 350.573 0.319962 343.646C0.259774 336.72 2.92244 330.047 7.73445 325.065L147.558 185.241L7.73445 45.4179C2.78209 40.464 0 33.746 0 26.7413C0 19.7365 2.78209 13.0186 7.73445 8.0647Z" fill="currentColor"/>
</svg>
