<svg xmlns="http://www.w3.org/2000/svg" viewBox="0 0 1281 306" fill="none">
		<path
			d="M62.3496 151.111H52.9027L68.9624 222.889L73.6858 203.056L62.3496 151.111Z"
			fill="#D82A3C"
		/>
		<path
			d="M68.9624 305.056L57.6261 260.667H109.584L195.551 0H302.301L292.854 34.9444H232.394L197.44 121.833H255.066L242.785 151.111H178.546L130.367 305.056H68.9624Z"
			fill="#D82A3C"
		/>
		<path
			d="M197.44 0H177.602L90.6903 260.667H109.584L197.44 0Z"
			fill="#1282BD"
		/>
		<path
			d="M68.0177 222.889L60.4602 241.778L25.5066 107.667H44.4004L68.0177 222.889Z"
			fill="#1282BD"
		/>
		<path
			d="M180.757 5.79441C181.04 4.92428 182.271 4.92428 182.554 5.79441L183.988 10.2085C184.115 10.5976 184.478 10.8611 184.887 10.8611H189.529C190.444 10.8611 190.826 12.0319 190.085 12.5696L186.329 15.2977C185.998 15.5382 185.859 15.9645 185.986 16.3536L187.42 20.7678C187.703 21.6378 186.707 22.3614 185.967 21.8237L182.211 19.0955C181.88 18.8551 181.431 18.8551 181.1 19.0955L177.344 21.8237C176.604 22.3614 175.608 21.6378 175.891 20.7678L177.325 16.3536C177.452 15.9645 177.313 15.5382 176.982 15.2977L173.226 12.5696C172.486 12.0319 172.866 10.8611 173.781 10.8611H178.424C178.833 10.8611 179.196 10.5976 179.322 10.2085L180.757 5.79441Z"
			fill="#FDFDFD"
		/>
		<path
			d="M170.993 38.9978C171.276 38.1276 172.507 38.1276 172.79 38.9978L174.224 43.412C174.351 43.8011 174.713 44.0646 175.123 44.0646H179.765C180.68 44.0646 181.061 45.2353 180.32 45.7731L176.565 48.501C176.233 48.7416 176.095 49.168 176.221 49.5571L177.656 53.971C177.939 54.8412 176.943 55.5649 176.202 55.0271L172.446 52.299C172.115 52.0585 171.667 52.0585 171.336 52.299L167.58 55.0271C166.84 55.5649 165.844 54.8412 166.126 53.971L167.561 49.5571C167.687 49.168 167.549 48.7416 167.218 48.501L163.462 45.7731C162.722 45.2353 163.102 44.0646 164.017 44.0646H168.66C169.069 44.0646 169.432 43.8011 169.558 43.412L170.993 38.9978Z"
			fill="#FDFDFD"
		/>
		<path
			d="M159.336 72.2237C159.619 71.3535 160.85 71.3535 161.133 72.2237L162.568 76.6379C162.694 77.027 163.057 77.2903 163.466 77.2903H168.109C169.024 77.2903 169.404 78.4612 168.664 78.999L164.908 81.7269C164.577 81.9674 164.438 82.3937 164.565 82.7828L165.999 87.197C166.282 88.0672 165.286 88.7906 164.546 88.2529L160.79 85.5249C160.459 85.2843 160.011 85.2843 159.679 85.5249L155.924 88.2529C155.183 88.7906 154.187 88.0672 154.47 87.197L155.904 82.7828C156.031 82.3937 155.892 81.9674 155.561 81.7269L151.805 78.999C151.065 78.4612 151.446 77.2903 152.361 77.2903H157.003C157.412 77.2903 157.775 77.027 157.902 76.6379L159.336 72.2237Z"
			fill="#FDFDFD"
		/>
		<path
			d="M147.213 106.303C147.496 105.432 148.727 105.432 149.01 106.303L150.445 110.717C150.571 111.106 150.934 111.369 151.343 111.369H155.985C156.901 111.369 157.281 112.54 156.541 113.078L152.785 115.806C152.454 116.046 152.315 116.473 152.442 116.862L153.876 121.276C154.159 122.146 153.163 122.87 152.423 122.332L148.667 119.604C148.336 119.363 147.887 119.363 147.556 119.604L143.8 122.332C143.06 122.87 142.064 122.146 142.346 121.276L143.781 116.862C143.908 116.473 143.769 116.046 143.438 115.806L139.682 113.078C138.942 112.54 139.322 111.369 140.237 111.369H144.88C145.289 111.369 145.652 111.106 145.778 110.717L147.213 106.303Z"
			fill="#FDFDFD"
		/>
		<path
			d="M136.908 141.317C137.191 140.447 138.422 140.447 138.705 141.317L140.14 145.731C140.266 146.12 140.629 146.384 141.038 146.384H145.681C146.596 146.384 146.976 147.555 146.236 148.092L142.48 150.821C142.149 151.061 142.01 151.487 142.137 151.876L143.572 156.291C143.854 157.161 142.858 157.884 142.118 157.347L138.362 154.618C138.031 154.378 137.582 154.378 137.251 154.618L133.496 157.347C132.755 157.884 131.759 157.161 132.042 156.291L133.476 151.876C133.603 151.487 133.464 151.061 133.133 150.821L129.377 148.092C128.637 147.555 129.017 146.384 129.933 146.384H134.575C134.984 146.384 135.347 146.12 135.473 145.731L136.908 141.317Z"
			fill="#FDFDFD"
		/>
		<path
			d="M124.611 174.893C124.894 174.022 126.125 174.022 126.408 174.893L127.843 179.307C127.969 179.696 128.332 179.959 128.741 179.959H133.384C134.299 179.959 134.679 181.13 133.939 181.668L130.183 184.396C129.852 184.636 129.713 185.063 129.84 185.452L131.274 189.865C131.557 190.736 130.561 191.46 129.821 190.921L126.065 188.194C125.734 187.953 125.285 187.953 124.954 188.194L121.198 190.921C120.458 191.46 119.462 190.736 119.745 189.865L121.179 185.452C121.306 185.063 121.167 184.636 120.836 184.396L117.08 181.668C116.34 181.13 116.72 179.959 117.636 179.959H122.278C122.687 179.959 123.05 179.696 123.176 179.307L124.611 174.893Z"
			fill="#FDFDFD"
		/>
		<path
			d="M115.607 204.37C115.89 203.501 117.122 203.501 117.404 204.37L118.839 208.785C118.965 209.174 119.328 209.438 119.737 209.438H124.38C125.295 209.438 125.676 210.607 124.935 211.146L121.179 213.873C120.848 214.115 120.71 214.54 120.836 214.929L122.271 219.343C122.554 220.214 121.557 220.938 120.817 220.399L117.061 217.672C116.73 217.432 116.282 217.432 115.951 217.672L112.195 220.399C111.454 220.938 110.458 220.214 110.741 219.343L112.176 214.929C112.302 214.54 112.164 214.115 111.832 213.873L108.077 211.146C107.336 210.607 107.717 209.438 108.632 209.438H113.274C113.684 209.438 114.046 209.174 114.173 208.785L115.607 204.37Z"
			fill="#FDFDFD"
		/>
		<path
			d="M105.389 235.167C105.671 234.296 106.903 234.296 107.185 235.167L108.62 239.581C108.746 239.97 109.109 240.233 109.519 240.233H114.161C115.076 240.233 115.457 241.404 114.716 241.942L110.96 244.67C110.629 244.91 110.491 245.336 110.617 245.726L112.052 250.14C112.335 251.011 111.339 251.734 110.598 251.196L106.842 248.468C106.511 248.226 106.063 248.226 105.732 248.468L101.976 251.196C101.235 251.734 100.239 251.011 100.522 250.14L101.957 245.726C102.083 245.336 101.945 244.91 101.614 244.67L97.8578 241.942C97.1174 241.404 97.4979 240.233 98.4131 240.233H103.056C103.465 240.233 103.828 239.97 103.954 239.581L105.389 235.167Z"
			fill="#FDFDFD"
		/>
		<path
			d="M146.427 0H178.546L92.5797 260.667H30.2301L0 104.833L25.5066 106.722L60.4602 240.833L146.427 0Z"
			fill="#F5EB13"
		/>
		<path
			d="M745.234 196.567C745.234 196.144 743.715 195.33 742.307 194.999C741.85 194.892 740.598 194.731 739.522 194.642C737.293 194.457 736.214 194.278 735.814 194.023C734.901 193.441 734.527 193.235 733.926 192.993C733.119 192.667 731.71 192.295 729.941 191.947C727.289 191.424 725.942 190.757 725.479 189.737C725.322 189.393 725.295 189.055 725.294 187.415L725.292 185.494L725.016 185.442C724.865 185.414 724.47 185.362 724.139 185.328C723.468 185.259 721.83 184.997 721.558 184.916C721.396 184.867 721.382 185.018 721.382 187.129C721.382 189.172 721.364 189.431 721.188 189.775C720.648 190.834 719.406 191.411 716.289 192.045C713.649 192.584 712.361 193.026 711.356 193.741C710.594 194.282 709.993 194.41 707.103 194.646C706.054 194.731 704.815 194.894 704.346 195.009C703.358 195.251 702.232 195.744 701.765 196.14C701.057 196.741 699.447 196.699 723.336 196.699C741.348 196.699 745.234 196.677 745.234 196.567ZM735.438 186.176C735.866 185.916 735.424 184.66 734.678 184.018C733.127 182.684 730.943 182.054 725.492 181.37C722.82 181.035 721.343 180.538 720.009 179.526C718.431 178.331 717.424 176.277 717.194 173.789L717.124 173.033L716.523 172.807C715.684 172.492 714.326 171.798 713.649 171.339L713.081 170.953L713.022 171.227C712.905 171.791 712.776 172.939 712.71 174.006C712.563 176.438 713.145 178.231 714.596 179.822C715.637 180.961 717.071 181.905 718.877 182.64C721.099 183.544 723.215 183.928 728.999 184.475C730.79 184.645 732.483 184.85 732.757 184.928C733.032 185.008 733.484 185.253 733.76 185.473C734.563 186.116 734.655 186.173 734.967 186.229C735.13 186.258 735.341 186.234 735.438 186.176ZM725.292 177V174.006L723.336 173.993L721.382 173.979V176.428V178.878L722.019 179.166C722.709 179.479 723.927 179.816 724.764 179.925L725.292 179.993V177ZM725.756 172.752C727.077 172.624 729.027 172.209 730.274 171.79C734.274 170.446 737.644 167.774 738.617 165.173C739.167 163.706 739.112 162.075 738.472 160.772C737.856 159.516 736.943 158.864 734.961 158.262C734.13 158.01 733.928 157.988 732.356 157.989C730.608 157.99 729.72 158.12 727.446 158.709L726.745 158.89L726.716 160.654L726.69 162.418L727.319 162.26C727.682 162.169 728.413 162.099 729.05 162.093C730.036 162.085 730.195 162.109 730.567 162.321C731.213 162.692 731.451 163.204 731.451 164.238C731.453 164.966 731.415 165.162 731.188 165.592C730.191 167.485 727.015 168.59 723.087 168.41C719.669 168.253 717.135 167.061 716.209 165.175C715.956 164.657 715.918 164.457 715.886 163.469C715.797 160.715 716.748 158.776 718.632 157.87C719.025 157.681 719.489 157.498 719.663 157.463L719.981 157.4V154.563V151.727L719.605 151.779C717.186 152.114 714.885 153.286 713.058 155.113C710.853 157.318 709.823 159.804 710.005 162.484C710.188 165.177 710.913 166.904 712.557 168.555C713.804 169.807 715.146 170.65 717.158 171.447C719.926 172.544 723.032 173.015 725.756 172.752ZM725.167 166.983C725.265 166.938 725.292 165.181 725.292 158.684V150.442L726.127 150.221C727.183 149.942 728.677 149.273 729.565 148.68C733.223 146.239 735.26 142.162 735.481 136.836C735.568 134.738 735.349 134.04 734.225 132.853L733.679 132.277H706.324H678.97L679.038 132.553C679.172 133.103 679.618 133.698 680.226 134.147C681.517 135.097 682.684 135.514 684.664 135.732C686.597 135.944 687.918 136.224 689.614 136.781C692.974 137.885 695.37 139.27 699.486 142.487C703.039 145.263 705.071 146.609 707.603 147.858C711.51 149.785 715.023 150.673 720.706 151.17L721.382 151.229V159.025C721.382 166.355 721.394 166.826 721.558 166.895C721.77 166.985 724.989 167.063 725.167 166.983ZM719.178 165.61C719.37 165.431 719.631 165.213 719.758 165.126C719.981 164.97 719.984 164.938 719.958 163.242L719.93 161.516L719.178 162.008C718.764 162.278 718.146 162.733 717.802 163.019C717.224 163.502 717.184 163.562 717.237 163.863C717.343 164.451 717.683 165.028 718.195 165.488C718.471 165.737 718.728 165.94 718.764 165.938C718.798 165.937 718.985 165.789 719.178 165.61ZM728.107 156.227C732.148 155.375 735.681 153.455 738.621 150.514C741.476 147.658 743.384 144.176 744.193 140.346C744.512 138.839 744.629 135.992 744.435 134.551C743.887 130.52 741.535 127.428 737.457 125.379C734.807 124.047 732.056 123.251 727.196 122.409C722.783 121.644 720.358 121.022 717.804 119.997C712.353 117.812 709.532 114.65 709.052 110.189C708.777 107.623 709.529 104.907 711.044 103C712.451 101.229 714.25 100.379 716.572 100.387C719.429 100.397 721.658 101.329 723.151 103.136C723.99 104.151 724.713 105.919 724.553 106.562C724.513 106.722 724.188 107.048 723.682 107.441C723.183 107.827 722.771 108.24 722.605 108.524C722.356 108.946 722.335 109.067 722.34 110.035C722.352 111.64 722.75 112.541 724.54 114.994C726.034 117.043 726.816 117.75 727.591 117.75C728.555 117.75 729.31 116.708 729.896 114.577C731.12 110.118 731.169 109.825 730.856 108.771C730.599 107.909 730.183 107.397 729.403 106.988C729.021 106.787 728.623 106.513 728.517 106.379C728.411 106.244 728.158 105.648 727.954 105.054C726.238 100.069 723.238 97.4361 718.666 96.9038C714.904 96.4658 711.159 97.7557 708.253 100.489C707.048 101.624 706.164 102.817 705.446 104.274C704.703 105.781 704.395 106.951 704.244 108.844C704.01 111.756 704.418 114.495 705.374 116.397C706.224 118.094 707.762 119.723 709.755 121.042C712.786 123.047 717.173 124.931 722.987 126.723C730.956 129.181 732.604 129.825 734.427 131.2C735.774 132.214 736.6 133.516 736.826 134.982C736.96 135.861 736.883 137.91 736.656 139.491C735.991 144.094 733.892 147.424 730.123 149.855C729.42 150.308 727.857 151.051 727.07 151.307L726.694 151.429V153.926V156.423L726.969 156.416C727.121 156.412 727.633 156.327 728.107 156.227ZM745.799 143.567C746.619 142.944 747.762 142.061 748.34 141.605C751.082 139.448 754.201 137.717 757.011 136.797C758.749 136.226 760.068 135.945 761.983 135.735C762.733 135.652 763.657 135.49 764.037 135.374C765.743 134.851 767.281 133.723 767.61 132.753L767.771 132.277H756.602C750.46 132.277 745.436 132.288 745.436 132.302C745.436 132.316 745.531 132.755 745.644 133.279C745.909 134.496 746.012 137.33 745.844 138.747C745.623 140.627 744.907 143.385 744.374 144.417C744.293 144.573 744.246 144.701 744.269 144.701C744.291 144.701 744.981 144.191 745.799 143.567Z"
			fill="#1282BD"
		/>
		<path
			d="M276.158 205.889H251.873L306.667 98.7373H335.87L355.024 205.889H330.742L317.711 123.223H316.872L276.158 205.889ZM281.705 163.771H339.063L336.026 181.455H278.669L281.705 163.771ZM367.925 205.889L385.717 98.7373H428.003C436.097 98.7373 442.761 100.167 447.995 103.028C453.262 105.888 456.962 109.951 459.089 115.218C461.253 120.45 461.759 126.624 460.606 133.74C459.42 140.855 456.856 146.959 452.915 152.052C449.006 157.144 443.912 161.068 437.632 163.824C431.387 166.544 424.147 167.904 415.913 167.904H387.601L390.741 149.697H415.339C419.665 149.697 423.363 149.104 426.433 147.918C429.503 146.732 431.928 144.954 433.707 142.582C435.521 140.21 436.708 137.262 437.267 133.74C437.86 130.147 437.65 127.147 436.638 124.741C435.627 122.299 433.794 120.45 431.143 119.195C428.491 117.904 425.003 117.259 420.676 117.259H405.395L390.584 205.889H367.925ZM433.864 157.127L452.442 205.889H427.427L409.425 157.127H433.864ZM483.294 98.7373H511.24L528.875 170.73H530.132L571.528 98.7373H599.474L581.682 205.889H559.701L571.318 136.146H570.378L531.231 205.366H516.211L500.093 135.885H499.203L487.481 205.889H465.5L483.294 98.7373ZM618.825 205.889H594.543L649.335 98.7373H678.537L697.692 205.889H673.409L660.378 123.223H659.541L618.825 205.889ZM624.372 163.771H681.73L678.694 181.455H621.336L624.372 163.771Z"
			fill="#D82A3C"
		/>
		<path
			d="M754.59 205.889L772.384 98.7373H814.669C822.763 98.7373 829.41 100.29 834.609 103.394C839.841 106.463 843.505 110.736 845.598 116.212C847.727 121.654 848.215 127.932 847.064 135.047C845.878 142.198 843.297 148.494 839.318 153.935C835.376 159.341 830.247 163.562 823.932 166.597C817.618 169.631 810.325 171.148 802.057 171.148H775.105L778.088 152.993H801.377C805.772 152.993 809.524 152.243 812.628 150.744C815.768 149.209 818.262 147.099 820.112 144.413C821.962 141.692 823.165 138.57 823.723 135.047C824.316 131.455 824.125 128.333 823.146 125.682C822.17 123.031 820.373 120.973 817.756 119.508C815.175 118.009 811.704 117.259 807.342 117.259H792.06L777.251 205.889H754.59ZM856.105 205.889H831.822L886.614 98.7373H915.817L934.971 205.889H910.689L897.658 123.223H896.821L856.105 205.889ZM861.652 163.771H919.01L915.974 181.455H858.616L861.652 163.771ZM945.346 117.416L948.486 98.7373H1036.51L1033.37 117.416H1000.56L985.905 205.889H963.507L978.159 117.416H945.346ZM1033.22 205.889L1051.01 98.7373H1093.29C1101.39 98.7373 1108.05 100.167 1113.29 103.028C1118.55 105.888 1122.25 109.951 1124.38 115.218C1126.54 120.45 1127.05 126.624 1125.9 133.74C1124.71 140.855 1122.15 146.959 1118.21 152.052C1114.3 157.144 1109.2 161.068 1102.92 163.824C1096.68 166.544 1089.44 167.904 1081.21 167.904H1052.89L1056.03 149.697H1080.63C1084.96 149.697 1088.65 149.104 1091.72 147.918C1094.79 146.732 1097.22 144.954 1099 142.582C1100.81 140.21 1102 137.262 1102.56 133.74C1103.15 130.147 1102.94 127.147 1101.93 124.741C1100.92 122.299 1099.08 120.45 1096.43 119.195C1093.78 117.904 1090.29 117.259 1085.97 117.259H1070.69L1055.87 205.889H1033.22ZM1099.15 157.127L1117.73 205.889H1092.72L1074.72 157.127H1099.15ZM1171.24 98.7373L1153.45 205.889H1130.79L1148.58 98.7373H1171.24ZM1190.57 205.889H1166.29L1221.08 98.7373H1250.28L1269.44 205.889H1245.15L1232.12 123.223H1231.28L1190.57 205.889ZM1196.12 163.771H1253.47L1250.44 181.455H1193.08L1196.12 163.771Z"
			fill="#1282BD"
		/>
		<path
			d="M829.803 268.222L836.191 229.757H849.191C852.196 229.757 854.576 230.265 856.33 231.279C858.096 232.294 859.292 233.69 859.917 235.467C860.556 237.244 860.688 239.273 860.312 241.553C859.936 243.806 859.135 245.809 857.907 247.562C856.692 249.316 855.039 250.693 852.948 251.694C850.869 252.696 848.339 253.196 845.358 253.196H834.838L835.59 248.99H845.959C848.013 248.99 849.717 248.689 851.07 248.089C852.422 247.488 853.475 246.63 854.225 245.516C854.977 244.401 855.477 243.079 855.729 241.553C855.978 240 855.91 238.654 855.521 237.515C855.147 236.362 854.376 235.473 853.21 234.847C852.06 234.209 850.442 233.89 848.364 233.89H840.174L834.462 268.222H829.803ZM850.769 250.943L857.382 268.222H851.971L845.509 250.943H850.769ZM874.755 268.823C871.987 268.823 869.701 268.209 867.896 266.983C866.094 265.744 864.836 264.016 864.121 261.798C863.407 259.571 863.294 256.978 863.783 254.023C864.271 251.069 865.242 248.464 866.695 246.211C868.148 243.944 869.958 242.178 872.125 240.915C874.29 239.636 876.671 238.997 879.263 238.997C880.767 238.997 882.212 239.249 883.603 239.749C884.993 240.25 886.195 241.064 887.21 242.191C888.224 243.306 888.933 244.783 889.333 246.623C889.734 248.464 889.709 250.731 889.258 253.423L888.957 255.3H866.714L867.314 251.47H885.05C885.337 249.841 885.262 248.389 884.823 247.112C884.398 245.835 883.652 244.826 882.588 244.088C881.536 243.349 880.202 242.979 878.586 242.979C876.922 242.979 875.369 243.431 873.927 244.332C872.488 245.221 871.286 246.349 870.32 247.713C869.357 249.065 868.756 250.442 868.518 251.846L867.991 255.151C867.615 257.542 867.672 259.445 868.161 260.859C868.662 262.274 869.533 263.296 870.772 263.921C872.011 264.535 873.564 264.841 875.431 264.841C876.62 264.841 877.715 264.679 878.719 264.354C879.72 264.016 880.616 263.515 881.405 262.85C882.193 262.174 882.858 261.335 883.397 260.334L887.453 261.536C886.766 262.988 885.794 264.265 884.542 265.368C883.302 266.456 881.849 267.308 880.183 267.922C878.53 268.523 876.72 268.823 874.755 268.823ZM904.484 268.823C902.066 268.823 900.038 268.217 898.397 267.002C896.757 265.774 895.598 264.046 894.922 261.817C894.257 259.577 894.176 256.929 894.676 253.872C895.19 250.843 896.148 248.213 897.552 245.984C898.967 243.755 900.702 242.035 902.755 240.82C904.809 239.606 907.052 238.997 909.482 238.997C911.36 238.997 912.794 239.311 913.784 239.938C914.785 240.55 915.511 241.253 915.962 242.04C916.414 242.817 916.758 243.455 916.996 243.956H917.372L919.739 229.757H924.172L917.785 268.222H913.502L914.252 263.789H913.727C913.313 264.316 912.737 264.979 911.998 265.78C911.26 266.569 910.283 267.278 909.068 267.903C907.866 268.517 906.338 268.823 904.484 268.823ZM905.574 264.841C907.352 264.841 908.943 264.378 910.345 263.451C911.76 262.512 912.937 261.216 913.876 259.564C914.817 257.899 915.467 255.977 915.83 253.799C916.195 251.643 916.181 249.76 915.794 248.145C915.405 246.517 914.66 245.251 913.557 244.35C912.456 243.436 910.997 242.979 909.181 242.979C907.315 242.979 905.692 243.463 904.314 244.426C902.937 245.378 901.816 246.674 900.951 248.313C900.088 249.942 899.487 251.77 899.149 253.799C898.81 255.852 898.805 257.716 899.13 259.395C899.455 261.06 900.144 262.387 901.197 263.377C902.26 264.354 903.719 264.841 905.574 264.841ZM952.219 268.823C949.803 268.823 947.774 268.217 946.134 267.002C944.492 265.774 943.334 264.046 942.657 261.817C941.994 259.577 941.913 256.929 942.414 253.872C942.927 250.843 943.885 248.213 945.287 245.984C946.702 243.755 948.439 242.035 950.493 240.82C952.546 239.606 954.787 238.997 957.217 238.997C959.097 238.997 960.531 239.311 961.519 239.938C962.522 240.55 963.248 241.253 963.699 242.04C964.149 242.817 964.495 243.455 964.733 243.956H965.107L967.474 229.757H971.909L965.521 268.222H961.237L961.989 263.789H961.462C961.05 264.316 960.474 264.979 959.735 265.78C958.997 266.569 958.02 267.278 956.805 267.903C955.601 268.517 954.075 268.823 952.219 268.823ZM953.31 264.841C955.088 264.841 956.678 264.378 958.082 263.451C959.497 262.512 960.674 261.216 961.613 259.564C962.552 257.899 963.204 255.977 963.567 253.799C963.93 251.643 963.918 249.76 963.529 248.145C963.142 246.517 962.396 245.251 961.294 244.35C960.193 243.436 958.732 242.979 956.916 242.979C955.052 242.979 953.429 243.463 952.051 244.426C950.674 245.378 949.554 246.674 948.688 248.313C947.825 249.942 947.224 251.77 946.886 253.799C946.547 255.852 946.54 257.716 946.867 259.395C947.192 261.06 947.881 262.387 948.932 263.377C949.998 264.354 951.456 264.841 953.31 264.841ZM986.243 268.823C983.475 268.823 981.189 268.209 979.385 266.983C977.582 265.744 976.324 264.016 975.61 261.798C974.896 259.571 974.782 256.978 975.272 254.023C975.759 251.069 976.73 248.464 978.183 246.211C979.636 243.944 981.446 242.178 983.611 240.915C985.779 239.636 988.159 238.997 990.752 238.997C992.254 238.997 993.701 239.249 995.091 239.749C996.482 240.25 997.684 241.064 998.698 242.191C999.713 243.306 1000.42 244.783 1000.82 246.623C1001.22 248.464 1001.2 250.731 1000.75 253.423L1000.45 255.3H978.202L978.803 251.47H996.537C996.826 249.841 996.75 248.389 996.312 247.112C995.887 245.835 995.14 244.826 994.077 244.088C993.024 243.349 991.69 242.979 990.075 242.979C988.409 242.979 986.856 243.431 985.416 244.332C983.976 245.221 982.773 246.349 981.809 247.713C980.845 249.065 980.243 250.442 980.005 251.846L979.479 255.151C979.103 257.542 979.16 259.445 979.648 260.859C980.15 262.274 981.019 263.296 982.261 263.921C983.5 264.535 985.053 264.841 986.918 264.841C988.108 264.841 989.204 264.679 990.207 264.354C991.209 264.016 992.104 263.515 992.892 262.85C993.682 262.174 994.345 261.335 994.883 260.334L998.942 261.536C998.254 262.988 997.283 264.265 996.03 265.368C994.791 266.456 993.338 267.308 991.672 267.922C990.018 268.523 988.208 268.823 986.243 268.823ZM1037.65 239.373L1037.05 243.13H1021.5L1022.1 239.373H1037.65ZM1021.95 268.222L1027.43 235.391C1027.68 233.739 1028.28 232.362 1029.24 231.26C1030.2 230.157 1031.34 229.332 1032.67 228.78C1034.01 228.231 1035.37 227.955 1036.75 227.955C1037.84 227.955 1038.71 228.042 1039.36 228.217C1040.02 228.393 1040.51 228.556 1040.81 228.707L1038.93 232.537C1038.7 232.462 1038.4 232.367 1038.03 232.256C1037.66 232.143 1037.16 232.086 1036.52 232.086C1035.06 232.086 1033.94 232.456 1033.18 233.195C1032.42 233.933 1031.9 235.016 1031.64 236.444L1026.38 268.222H1021.95ZM1046.64 268.898C1044.82 268.898 1043.21 268.555 1041.84 267.865C1040.46 267.164 1039.44 266.156 1038.77 264.841C1038.11 263.515 1037.93 261.911 1038.23 260.034C1038.52 258.381 1039.07 257.04 1039.9 256.014C1040.73 254.975 1041.73 254.161 1042.91 253.572C1044.1 252.971 1045.38 252.527 1046.74 252.238C1048.12 251.938 1049.49 251.708 1050.85 251.543C1052.63 251.319 1054.08 251.143 1055.19 251.018C1056.31 250.894 1057.15 250.686 1057.71 250.399C1058.27 250.11 1058.62 249.617 1058.74 248.914V248.765C1059.05 246.923 1058.8 245.489 1058.01 244.464C1057.22 243.425 1055.81 242.905 1053.79 242.905C1051.68 242.905 1049.92 243.368 1048.51 244.294C1047.09 245.221 1046.04 246.211 1045.37 247.261L1041.46 245.76C1042.49 244.007 1043.71 242.641 1045.14 241.664C1046.57 240.677 1048.07 239.987 1049.63 239.6C1051.2 239.198 1052.71 238.997 1054.16 238.997C1055.09 238.997 1056.13 239.111 1057.3 239.335C1058.46 239.549 1059.55 239.993 1060.57 240.669C1061.59 241.345 1062.36 242.367 1062.88 243.731C1063.4 245.097 1063.48 246.923 1063.1 249.216L1059.95 268.222H1055.51L1056.19 264.316H1055.96C1055.56 264.941 1054.95 265.612 1054.12 266.326C1053.31 267.04 1052.28 267.646 1051.02 268.147C1049.78 268.647 1048.32 268.898 1046.64 268.898ZM1047.92 264.917C1049.68 264.917 1051.21 264.573 1052.53 263.883C1053.85 263.196 1054.92 262.306 1055.72 261.216C1056.53 260.126 1057.04 258.982 1057.24 257.78L1057.92 253.723C1057.69 253.948 1057.25 254.156 1056.58 254.343C1055.92 254.518 1055.17 254.675 1054.33 254.813C1053.5 254.938 1052.69 255.051 1051.9 255.151C1051.13 255.238 1050.5 255.314 1050.03 255.376C1048.85 255.525 1047.73 255.771 1046.66 256.109C1045.61 256.434 1044.72 256.929 1044 257.592C1043.28 258.243 1042.84 259.131 1042.66 260.259C1042.4 261.798 1042.77 262.964 1043.77 263.753C1044.77 264.529 1046.16 264.917 1047.92 264.917ZM1068.04 268.222L1072.85 239.373H1077.13L1076.38 243.731H1076.68C1077.43 242.303 1078.58 241.145 1080.12 240.257C1081.66 239.368 1083.29 238.924 1085.02 238.924C1085.36 238.924 1085.77 238.929 1086.24 238.943C1086.72 238.943 1087.09 238.961 1087.35 238.997L1086.6 243.506C1086.45 243.468 1086.11 243.412 1085.59 243.336C1085.06 243.249 1084.49 243.206 1083.89 243.206C1082.49 243.206 1081.2 243.499 1080.01 244.088C1078.82 244.664 1077.82 245.465 1077.02 246.492C1076.22 247.507 1075.7 248.665 1075.48 249.966L1072.47 268.222H1068.04ZM1087.83 268.222L1092.63 239.373H1096.92L1096.17 243.882H1096.54C1097.41 242.341 1098.58 241.145 1100.06 240.293C1101.55 239.43 1103.23 238.997 1105.11 238.997C1106.99 238.997 1108.5 239.43 1109.64 240.293C1110.78 241.145 1111.57 242.341 1112.02 243.882H1112.32C1113.3 242.378 1114.6 241.188 1116.23 240.312C1117.87 239.436 1119.72 238.997 1121.79 238.997C1124.35 238.997 1126.31 239.806 1127.69 241.421C1129.08 243.036 1129.49 245.535 1128.93 248.914L1125.7 268.222H1121.27L1124.5 248.914C1124.84 246.774 1124.5 245.251 1123.48 244.35C1122.48 243.436 1121.19 242.979 1119.61 242.979C1117.58 242.979 1115.91 243.587 1114.6 244.802C1113.28 246.016 1112.47 247.562 1112.17 249.441L1109.02 268.222H1104.51L1107.81 248.464C1108.08 246.812 1107.76 245.484 1106.87 244.483C1105.99 243.482 1104.7 242.979 1103.01 242.979C1101.85 242.979 1100.72 243.293 1099.62 243.92C1098.52 244.532 1097.58 245.384 1096.79 246.474C1096 247.55 1095.49 248.789 1095.26 250.193L1092.26 268.222H1087.83ZM1142.22 268.898C1140.39 268.898 1138.79 268.555 1137.41 267.865C1136.04 267.164 1135.01 266.156 1134.35 264.841C1133.69 263.515 1133.51 261.911 1133.81 260.034C1134.09 258.381 1134.65 257.04 1135.48 256.014C1136.3 254.975 1137.31 254.161 1138.48 253.572C1139.67 252.971 1140.95 252.527 1142.32 252.238C1143.69 251.938 1145.06 251.708 1146.43 251.543C1148.21 251.319 1149.65 251.143 1150.77 251.018C1151.88 250.894 1152.72 250.686 1153.29 250.399C1153.85 250.11 1154.19 249.617 1154.32 248.914V248.765C1154.62 246.923 1154.38 245.489 1153.59 244.464C1152.8 243.425 1151.39 242.905 1149.36 242.905C1147.26 242.905 1145.5 243.368 1144.08 244.294C1142.67 245.221 1141.62 246.211 1140.94 247.261L1137.04 245.76C1138.06 244.007 1139.29 242.641 1140.72 241.664C1142.15 240.677 1143.64 239.987 1145.21 239.6C1146.77 239.198 1148.28 238.997 1149.74 238.997C1150.66 238.997 1151.71 239.111 1152.87 239.335C1154.04 239.549 1155.13 239.993 1156.14 240.669C1157.17 241.345 1157.94 242.367 1158.45 243.731C1158.98 245.097 1159.05 246.923 1158.68 249.216L1155.52 268.222H1151.09L1151.76 264.316H1151.54C1151.14 264.941 1150.52 265.612 1149.7 266.326C1148.89 267.04 1147.85 267.646 1146.6 268.147C1145.36 268.647 1143.9 268.898 1142.22 268.898ZM1143.5 264.917C1145.25 264.917 1146.79 264.573 1148.1 263.883C1149.43 263.196 1150.49 262.306 1151.3 261.216C1152.11 260.126 1152.62 258.982 1152.82 257.78L1153.49 253.723C1153.27 253.948 1152.82 254.156 1152.16 254.343C1151.5 254.518 1150.74 254.675 1149.91 254.813C1149.08 254.938 1148.27 255.051 1147.48 255.151C1146.7 255.238 1146.08 255.314 1145.6 255.376C1144.43 255.525 1143.31 255.771 1142.24 256.109C1141.19 256.434 1140.3 256.929 1139.57 257.592C1138.86 258.243 1138.41 259.131 1138.24 260.259C1137.98 261.798 1138.35 262.964 1139.35 263.753C1140.35 264.529 1141.73 264.917 1143.5 264.917ZM1175.26 268.823C1172.54 268.823 1170.31 268.184 1168.57 266.908C1166.85 265.631 1165.64 263.87 1164.97 261.63C1164.29 259.388 1164.19 256.828 1164.67 253.948C1165.14 251.018 1166.11 248.432 1167.56 246.192C1169.01 243.937 1170.82 242.178 1172.99 240.915C1175.16 239.636 1177.54 238.997 1180.15 238.997C1182.18 238.997 1183.94 239.373 1185.44 240.125C1186.95 240.877 1188.11 241.929 1188.92 243.279C1189.73 244.632 1190.12 246.211 1190.07 248.013H1185.63C1185.51 246.698 1184.94 245.535 1183.94 244.52C1182.95 243.493 1181.49 242.979 1179.55 242.979C1177.82 242.979 1176.23 243.431 1174.77 244.332C1173.32 245.221 1172.1 246.479 1171.11 248.107C1170.12 249.722 1169.45 251.619 1169.1 253.799C1168.73 256.028 1168.76 257.967 1169.19 259.62C1169.63 261.273 1170.43 262.556 1171.58 263.47C1172.73 264.384 1174.19 264.841 1175.94 264.841C1177.09 264.841 1178.17 264.641 1179.17 264.24C1180.17 263.84 1181.06 263.264 1181.84 262.512C1182.61 261.762 1183.23 260.859 1183.68 259.807H1188.11C1187.56 261.511 1186.68 263.045 1185.46 264.41C1184.25 265.761 1182.78 266.84 1181.05 267.64C1179.32 268.428 1177.39 268.823 1175.26 268.823ZM1193.17 268.222L1197.97 239.373H1202.41L1197.6 268.222H1193.17ZM1201.54 234.49C1200.68 234.49 1199.94 234.196 1199.31 233.608C1198.69 233.019 1198.39 232.313 1198.39 231.485C1198.39 230.66 1198.69 229.951 1199.31 229.364C1199.94 228.775 1200.68 228.48 1201.54 228.48C1202.41 228.48 1203.15 228.775 1203.76 229.364C1204.39 229.951 1204.7 230.66 1204.7 231.485C1204.7 232.313 1204.39 233.019 1203.76 233.608C1203.15 234.196 1202.41 234.49 1201.54 234.49ZM1214.14 268.898C1212.31 268.898 1210.71 268.555 1209.33 267.865C1207.95 267.164 1206.93 266.156 1206.27 264.841C1205.6 263.515 1205.42 261.911 1205.72 260.034C1206.01 258.381 1206.57 257.04 1207.39 256.014C1208.22 254.975 1209.22 254.161 1210.4 253.572C1211.59 252.971 1212.87 252.527 1214.23 252.238C1215.61 251.938 1216.98 251.708 1218.34 251.543C1220.12 251.319 1221.57 251.143 1222.68 251.018C1223.8 250.894 1224.64 250.686 1225.2 250.399C1225.77 250.11 1226.11 249.617 1226.23 248.914V248.765C1226.53 246.923 1226.29 245.489 1225.5 244.464C1224.71 243.425 1223.3 242.905 1221.27 242.905C1219.17 242.905 1217.41 243.368 1216 244.294C1214.58 245.221 1213.54 246.211 1212.86 247.261L1208.95 245.76C1209.98 244.007 1211.21 242.641 1212.63 241.664C1214.06 240.677 1215.56 239.987 1217.12 239.6C1218.69 239.198 1220.2 238.997 1221.65 238.997C1222.58 238.997 1223.62 239.111 1224.79 239.335C1225.95 239.549 1227.04 239.993 1228.06 240.669C1229.08 241.345 1229.85 242.367 1230.37 243.731C1230.89 245.097 1230.97 246.923 1230.59 249.216L1227.44 268.222H1223L1223.68 264.316H1223.46C1223.05 264.941 1222.44 265.612 1221.61 266.326C1220.8 267.04 1219.77 267.646 1218.51 268.147C1217.27 268.647 1215.81 268.898 1214.14 268.898ZM1215.41 264.917C1217.17 264.917 1218.7 264.573 1220.02 263.883C1221.34 263.196 1222.41 262.306 1223.21 261.216C1224.02 260.126 1224.53 258.982 1224.73 257.78L1225.41 253.723C1225.18 253.948 1224.74 254.156 1224.07 254.343C1223.41 254.518 1222.66 254.675 1221.82 254.813C1220.99 254.938 1220.19 255.051 1219.4 255.151C1218.62 255.238 1217.99 255.314 1217.52 255.376C1216.34 255.525 1215.22 255.771 1214.16 256.109C1213.1 256.434 1212.21 256.929 1211.49 257.592C1210.77 258.243 1210.33 259.131 1210.15 260.259C1209.89 261.798 1210.26 262.964 1211.26 263.753C1212.26 264.529 1213.65 264.917 1215.41 264.917ZM1259.73 245.835L1255.52 246.961C1255.37 246.285 1255.1 245.635 1254.73 245.008C1254.37 244.369 1253.8 243.85 1253.04 243.449C1252.29 243.036 1251.26 242.83 1249.96 242.83C1248.19 242.83 1246.66 243.236 1245.35 244.05C1244.05 244.851 1243.31 245.873 1243.12 247.112C1242.93 248.202 1243.18 249.071 1243.87 249.722C1244.56 250.374 1245.71 250.905 1247.33 251.319L1251.46 252.371C1253.94 253.009 1255.71 253.967 1256.76 255.244C1257.82 256.509 1258.19 258.154 1257.85 260.183C1257.57 261.836 1256.85 263.315 1255.69 264.616C1254.52 265.918 1253.03 266.945 1251.22 267.697C1249.4 268.447 1247.38 268.823 1245.15 268.823C1242.18 268.823 1239.84 268.184 1238.12 266.908C1236.41 265.617 1235.49 263.753 1235.38 261.311L1239.81 260.259C1239.92 261.798 1240.48 262.964 1241.47 263.753C1242.47 264.529 1243.87 264.917 1245.67 264.917C1247.74 264.917 1249.46 264.478 1250.84 263.602C1252.22 262.712 1253 261.649 1253.19 260.41C1253.38 259.395 1253.18 258.549 1252.59 257.873C1252.01 257.197 1251.01 256.691 1249.58 256.352L1245 255.225C1242.44 254.586 1240.65 253.61 1239.62 252.295C1238.61 250.98 1238.27 249.328 1238.61 247.337C1238.89 245.709 1239.59 244.269 1240.71 243.017C1241.85 241.765 1243.28 240.782 1245 240.068C1246.73 239.354 1248.6 238.997 1250.63 238.997C1253.49 238.997 1255.62 239.624 1257.04 240.877C1258.46 242.116 1259.35 243.769 1259.73 245.835Z"
			fill="currentColor"
		/>
	</svg>